STARTFONT 2.1
COMMENT
COMMENT Converted from OpenType font "Patriot-Medium.otf" by "otf2bdf 3.0".
COMMENT
FONT -FreeType-Patriot Medium-Medium-R-Normal--44-320-100-100-P-217-ISO10646-1
SIZE 32 100 100
FONTBOUNDINGBOX 74 59 -17 -12
STARTPROPERTIES 19
FOUNDRY "FreeType"
FAMILY_NAME "Patriot Medium"
WEIGHT_NAME "Medium"
SLANT "R"
SETWIDTH_NAME "Normal"
ADD_STYLE_NAME ""
PIXEL_SIZE 44
POINT_SIZE 320
RESOLUTION_X 100
RESOLUTION_Y 100
SPACING "P"
AVERAGE_WIDTH 217
CHARSET_REGISTRY "ISO10646"
CHARSET_ENCODING "1"
FONT_ASCENT 44
FONT_DESCENT 8
COPYRIGHT "Copyright © 2020 by Behalf Studio. All rights reserved."
_OTF_FONTFILE "Patriot-Medium.otf"
_OTF_PSNAME "Patriot-Medium"
ENDPROPERTIES
CHARS 426
STARTCHAR 0020
ENCODING 32
SWIDTH 360 0
DWIDTH 16 0
BBX 0 0 0 0
BITMAP
ENDCHAR
STARTCHAR 0021
ENCODING 33
SWIDTH 270 0
DWIDTH 12 0
BBX 8 32 2 -1
BITMAP
7C
7C
7C
7C
7C
7C
7C
7C
7C
7C
7C
7C
7C
7C
7C
7C
7C
7C
7C
7C
00
00
00
00
00
3E
7E
FF
FF
7E
7E
18
ENDCHAR
STARTCHAR 0022
ENCODING 34
SWIDTH 315 0
DWIDTH 14 0
BBX 10 10 3 21
BITMAP
E3C0
E3C0
E3C0
E3C0
E3C0
E3C0
E3C0
E3C0
E3C0
E3C0
ENDCHAR
STARTCHAR 0023
ENCODING 35
SWIDTH 630 0
DWIDTH 28 0
BBX 24 31 2 0
BITMAP
01F07C
01F07C
01E078
01E078
01E078
01E078
03E0F8
03E0F8
03E0F8
3FFFFF
3FFFFF
3FFFFF
3FFFFF
07C1F0
07C1F0
07C1F0
07C1F0
0781E0
0781E0
FFFFFE
FFFFFE
FFFFFE
0F83E0
0F83E0
0F03C0
0F03C0
0F03C0
0F03C0
1F07C0
1F07C0
1F07C0
ENDCHAR
STARTCHAR 0024
ENCODING 36
SWIDTH 540 0
DWIDTH 24 0
BBX 20 39 2 -4
BITMAP
007800
007800
007800
00F800
07FF00
0FFF80
1FFFC0
3FFFE0
3FDFE0
3F07E0
3E03F0
3E03C0
3F0000
3F0000
3F8000
1FE000
0FF000
07FC00
03FE00
01FF80
007FC0
003FE0
000FE0
0007F0
0003F0
0001F0
1C01F0
FC01F0
7E03F0
7F07F0
3FFFF0
3FFFE0
1FFFC0
0FFF80
03FF00
007800
007800
007800
007800
ENDCHAR
STARTCHAR 0025
ENCODING 37
SWIDTH 900 0
DWIDTH 40 0
BBX 36 33 2 -1
BITMAP
03E0000000
0FF8001E00
3FFC003C00
3FFE007C00
7E3F007800
7C1F00F000
780F01F000
F80F01E000
F80F03C000
781F078000
7C1F0F8000
7FFE0F0000
3FFE1E0000
1FFC3E0000
07F03C0000
0000780000
0000F80000
0000F01C00
0001E0FF80
0003C1FFC0
0007C3FFE0
000787F7F0
000F07C1F0
001F0780F0
001E0780F0
003C0780F0
007C0780F0
007807C1F0
00F007F7F0
01E003FFE0
03E001FFC0
03C000FF80
0000001C00
ENDCHAR
STARTCHAR 0026
ENCODING 38
SWIDTH 675 0
DWIDTH 30 0
BBX 26 33 2 -1
BITMAP
00780000
03FF0000
07FFC000
0FFFE000
1FFFF000
3FCFF000
3F03E000
3E01C000
3E008000
3E000000
3E000000
3E000000
3F000000
1FFFFFC0
1FFFFFC0
0FFFFFC0
1FFFFFC0
3FFFFFC0
3FE07E00
7F007E00
7E007E00
7C007E00
FC007E00
FC007E00
FE00FC00
7E00FC00
7F03F800
3FFFF800
3FFFF000
1FFFE000
0FFFC000
03FF0000
00300000
ENDCHAR
STARTCHAR 0027
ENCODING 39
SWIDTH 180 0
DWIDTH 8 0
BBX 4 10 2 21
BITMAP
F0
F0
F0
F0
F0
F0
F0
F0
F0
F0
ENDCHAR
STARTCHAR 0028
ENCODING 40
SWIDTH 337 0
DWIDTH 15 0
BBX 11 41 2 -5
BITMAP
01C0
03E0
03C0
07C0
0780
0F80
0F00
1E00
1E00
3E00
3C00
3C00
7C00
7800
7800
7800
7800
7800
F000
F000
F000
F000
F800
7800
7800
7800
7800
7800
7C00
3C00
3C00
3E00
1E00
1F00
0F00
0F80
0780
07C0
03E0
01C0
0180
ENDCHAR
STARTCHAR 0029
ENCODING 41
SWIDTH 337 0
DWIDTH 15 0
BBX 11 42 2 -6
BITMAP
1000
3800
F800
7C00
3C00
3E00
1E00
0F00
0F00
0780
0780
07C0
03C0
03C0
03C0
01E0
01E0
01E0
01E0
01E0
01E0
01E0
01E0
01E0
01E0
01E0
01E0
03C0
03C0
03C0
03C0
0780
0780
0F80
0F00
1F00
1E00
3E00
3C00
7C00
7800
3000
ENDCHAR
STARTCHAR 002A
ENCODING 42
SWIDTH 450 0
DWIDTH 20 0
BBX 16 15 2 16
BITMAP
0180
03C0
03C0
03C0
33C6
79DF
FFBF
7FFF
3FFC
03E0
0FF0
1F78
1E7C
1E7C
1C38
ENDCHAR
STARTCHAR 002B
ENCODING 43
SWIDTH 562 0
DWIDTH 25 0
BBX 21 20 2 5
BITMAP
007800
007800
007800
007800
007800
007800
007800
007800
FFFFF8
FFFFF8
FFFFF8
FFFFF8
FFFFF8
007800
007800
007800
007800
007800
007800
007800
ENDCHAR
STARTCHAR 002C
ENCODING 44
SWIDTH 270 0
DWIDTH 12 0
BBX 7 8 3 -5
BITMAP
3E
3C
7C
78
78
F0
F0
E0
ENDCHAR
STARTCHAR 002D
ENCODING 45
SWIDTH 427 0
DWIDTH 19 0
BBX 15 4 2 8
BITMAP
FFFE
FFFE
FFFE
FFFE
ENDCHAR
STARTCHAR 002E
ENCODING 46
SWIDTH 270 0
DWIDTH 12 0
BBX 8 7 2 -1
BITMAP
3E
7E
FF
FF
7E
7E
18
ENDCHAR
STARTCHAR 002F
ENCODING 47
SWIDTH 405 0
DWIDTH 18 0
BBX 14 33 2 -1
BITMAP
003C
007C
007C
0078
0078
00F8
00F0
00F0
01F0
01F0
01E0
01E0
03E0
03C0
03C0
07C0
07C0
0780
0780
0F80
0F00
0F00
1F00
1F00
1E00
3E00
3E00
3C00
3C00
7C00
7C00
7800
F800
ENDCHAR
STARTCHAR 0030
ENCODING 48
SWIDTH 720 0
DWIDTH 32 0
BBX 29 33 2 -1
BITMAP
001F8000
00FFF000
03FFFC00
07FFFE00
0FFFFF80
1FF0FF80
3FC01FC0
3F000FE0
7E0007E0
7E0003F0
FC0003F0
FC0001F0
F80001F0
F80001F8
F80001F8
F80000F8
F80000F8
F80000F8
F80001F8
F80001F8
F80001F0
FC0001F0
FC0003F0
7E0003F0
7E0007E0
3F000FE0
3FC03FC0
1FF8FF80
0FFFFF00
07FFFE00
01FFFC00
00FFF000
000F0000
ENDCHAR
STARTCHAR 0031
ENCODING 49
SWIDTH 315 0
DWIDTH 14 0
BBX 10 31 2 0
BITMAP
07C0
07C0
07C0
FFC0
FFC0
FFC0
FFC0
FFC0
07C0
07C0
07C0
07C0
07C0
07C0
07C0
07C0
07C0
07C0
07C0
07C0
07C0
07C0
07C0
07C0
07C0
07C0
07C0
07C0
07C0
07C0
07C0
ENDCHAR
STARTCHAR 0032
ENCODING 50
SWIDTH 562 0
DWIDTH 25 0
BBX 21 32 2 0
BITMAP
00F800
07FF00
0FFF80
1FFFC0
3FFFE0
7F8FF0
7E03F0
FC01F8
FC01F8
F801F8
F801F8
0001F8
0001F0
0003F0
0003F0
0007E0
0007E0
000FC0
001F80
003F00
007E00
00FE00
01FC00
03F800
07F000
0FE000
1FC000
3FFFF8
7FFFF8
FFFFF8
FFFFF8
FFFFF8
ENDCHAR
STARTCHAR 0033
ENCODING 51
SWIDTH 517 0
DWIDTH 23 0
BBX 20 32 2 -1
BITMAP
FFFFE0
FFFFE0
FFFFC0
FFFF80
FFFF80
003F00
007E00
00FC00
01F800
03F000
07FC00
0FFF00
1FFF80
3FFFC0
1FFFE0
0C0FE0
0003F0
0003F0
0001F0
0001F0
0001F0
0001F0
0001F0
0003F0
3003F0
7C07E0
FF3FE0
FFFFC0
7FFF80
3FFF00
0FFC00
00E000
ENDCHAR
STARTCHAR 0034
ENCODING 52
SWIDTH 540 0
DWIDTH 24 0
BBX 23 31 1 0
BITMAP
000FF0
007FF0
01FFF0
03FFF0
07FFF0
0FFBF0
1FE3F0
1F83F0
3F03F0
3E03F0
7E03F0
7C03F0
7C03F0
FC03F0
F803F0
F803F0
F803F0
F803F0
FFFFFE
FFFFFE
FFFFFE
FFFFFE
0003F0
0003F0
0003F0
0003F0
0003F0
0003F0
0003F0
0003F0
0003F0
ENDCHAR
STARTCHAR 0035
ENCODING 53
SWIDTH 540 0
DWIDTH 24 0
BBX 21 32 2 -1
BITMAP
3FFFF0
3FFFF0
3FFFF0
3FFFF0
7FFFF0
7C0000
7C0000
7C0000
7C0000
7C0000
7FFE00
7FFF80
7FFFC0
7FFFE0
7FFFE0
7E07F0
1803F0
0001F8
0001F8
0000F8
0000F8
0000F8
0001F8
0001F8
1803F0
3C07F0
FF9FE0
7FFFE0
3FFFC0
1FFF80
07FE00
007000
ENDCHAR
STARTCHAR 0036
ENCODING 54
SWIDTH 607 0
DWIDTH 27 0
BBX 24 32 2 -1
BITMAP
001F80
003F00
007F00
007E00
00FC00
01FC00
01F800
03F000
07E000
0FFFC0
0FFFF0
1FFFF8
3FFFFC
3FC1FC
7F00FE
7E007E
FC003F
FC003F
F8001F
F8001F
F8001F
FC001F
FC003F
7C003F
7E007E
7F00FE
3FE7FC
1FFFF8
0FFFF0
07FFE0
01FFC0
003C00
ENDCHAR
STARTCHAR 0037
ENCODING 55
SWIDTH 472 0
DWIDTH 21 0
BBX 20 31 2 0
BITMAP
FFFFF0
FFFFF0
FFFFE0
FFFFE0
FFFFC0
0007C0
000FC0
000F80
001F80
001F80
001F00
003F00
7FFFC0
7FFFC0
7FFFC0
7FFFC0
7FFFC0
00F800
01F800
01F800
01F000
03F000
03E000
07E000
07E000
07C000
0FC000
0F8000
0F8000
1F8000
1F0000
ENDCHAR
STARTCHAR 0038
ENCODING 56
SWIDTH 562 0
DWIDTH 25 0
BBX 23 33 1 -1
BITMAP
007C00
01FF00
03FFC0
07FFE0
0FFFE0
0FC3F0
1F81F0
1F01F0
1F01F0
1F81F0
0F83F0
0FFFE0
07FFE0
07FFE0
1FFFF0
3FFFF8
3F81FC
7E00FC
7C007C
7C007E
FC003E
FC003E
FC003E
FC007E
7C007E
7E00FC
7F01FC
3FE7F8
1FFFF8
0FFFF0
07FFE0
01FF80
007C00
ENDCHAR
STARTCHAR 0039
ENCODING 57
SWIDTH 585 0
DWIDTH 26 0
BBX 24 32 2 0
BITMAP
007C00
03FF80
0FFFE0
1FFFF0
3FFFF8
7FC3FC
7F00FC
FE007E
FC007E
F8003E
F8003F
F8003F
F8003F
F8003F
F8003E
FC003E
FC007E
7F00FC
7FC3FC
3FFFF8
1FFFF8
0FFFF0
03FFE0
000FC0
000FC0
001F80
003F00
007F00
007E00
00FC00
01FC00
01F800
ENDCHAR
STARTCHAR 003A
ENCODING 58
SWIDTH 270 0
DWIDTH 12 0
BBX 8 23 2 -1
BITMAP
3C
7E
7F
FF
7F
7E
3C
00
00
00
00
00
00
00
00
00
3E
7E
FF
FF
7E
7E
18
ENDCHAR
STARTCHAR 003B
ENCODING 59
SWIDTH 292 0
DWIDTH 13 0
BBX 8 27 3 -5
BITMAP
3C
7E
7F
7F
7F
7E
3C
00
00
00
00
00
00
00
00
00
00
00
00
3E
3C
7C
78
78
F0
F0
E0
ENDCHAR
STARTCHAR 003C
ENCODING 60
SWIDTH 562 0
DWIDTH 25 0
BBX 21 20 2 4
BITMAP
000008
000038
0001F8
000FF8
003FF8
01FFC0
0FFE00
7FF000
FF8000
FC0000
FE0000
FF8000
7FF000
0FFE00
01FFC0
007FF8
000FF8
0001F8
000078
000008
ENDCHAR
STARTCHAR 003D
ENCODING 61
SWIDTH 562 0
DWIDTH 25 0
BBX 21 13 2 8
BITMAP
FFFFF8
FFFFF8
FFFFF8
FFFFF8
000000
000000
000000
000000
000000
FFFFF8
FFFFF8
FFFFF8
FFFFF8
ENDCHAR
STARTCHAR 003E
ENCODING 62
SWIDTH 562 0
DWIDTH 25 0
BBX 21 20 2 4
BITMAP
800000
F00000
FC0000
FF8000
7FF000
1FFE00
03FF80
007FF0
000FF8
0001F8
0001F8
000FF8
007FF0
01FFC0
0FFE00
7FF000
FFC000
FE0000
F00000
800000
ENDCHAR
STARTCHAR 003F
ENCODING 63
SWIDTH 427 0
DWIDTH 19 0
BBX 14 33 3 -1
BITMAP
0380
1FE0
3FF8
7FF8
FFFC
F8FC
F07C
307C
007C
007C
00F8
01F8
01F0
03E0
07E0
07C0
0F80
0F80
0F80
0F80
0F80
0F80
0000
0000
0000
0000
0F80
1FC0
1FC0
1FC0
1FC0
0F80
0700
ENDCHAR
STARTCHAR 0040
ENCODING 64
SWIDTH 810 0
DWIDTH 36 0
BBX 32 33 2 -1
BITMAP
0007F800
003FFF00
00FFFFC0
01FC0FE0
03E001F0
07800078
0F00003C
1E00001E
3C01001E
3C07EE0E
781FFE0F
781FFE0F
783F3E0F
703E1E0F
707C1E0F
F07C1E0F
F07C1E0E
F07C1E1E
707C3E1E
707F7E3C
783FFFF8
781FEFF8
380FC7E0
3C000180
3E000000
1E000000
0F000030
07C000F8
03F001F0
01FFBFE0
00FFFFC0
001FFF00
0001F000
ENDCHAR
STARTCHAR 0041
ENCODING 65
SWIDTH 562 0
DWIDTH 25 0
BBX 23 32 2 0
BITMAP
00F000
07FE00
0FFF00
1FFF80
3FFFC0
7F9FE0
7E07E0
7C07E0
FC03F0
FC03F0
FC03F0
FC03F0
FC03F0
FC03F0
FC03F0
FC03F0
FC03F0
FC03F0
FC03F0
FC03F0
FC03F0
FC03F0
FC03F0
FC03F0
FC03F0
FC03F0
FC03F0
FFFFFE
FFFFFE
FFFFFE
FFFFFE
FFFFFE
ENDCHAR
STARTCHAR 0042
ENCODING 66
SWIDTH 607 0
DWIDTH 27 0
BBX 25 31 2 0
BITMAP
3FFFC000
3FFFF000
3FFFF800
3FFFFC00
3FFFFE00
3F00FE00
3F007F00
3F003F00
3F003F00
3F003F00
3F003F00
3F007E00
3F01FE00
FFFFFC00
FFFFFC00
FFFFFC00
FFFFFE00
FFFFFF00
3F007F00
3F003F00
3F001F80
3F001F80
3F001F80
3F001F00
3F003F00
3F00FF00
3FFFFE00
3FFFFE00
3FFFFC00
3FFFF000
3FFFC000
ENDCHAR
STARTCHAR 0043
ENCODING 67
SWIDTH 675 0
DWIDTH 30 0
BBX 28 33 2 -1
BITMAP
0007E000
007FFE00
01FFFF80
03FFFFC0
07FFFFE0
0FFE7FF0
1FE007E0
3FC003C0
3F000180
7E000000
7E000000
FC000000
FC000000
F8000000
F8000000
F8000000
F8000000
F8000000
F8000000
F8000000
FC000000
FC000000
7E000000
7F000000
3F000180
3FC003C0
1FE00FE0
0FFFFFF0
07FFFFE0
03FFFFC0
00FFFF00
003FFC00
0003C000
ENDCHAR
STARTCHAR 0044
ENCODING 68
SWIDTH 652 0
DWIDTH 29 0
BBX 26 31 2 0
BITMAP
FFFE0000
FFFFC000
FFFFF000
FFFFF800
FFFFFC00
FC07FE00
FC00FF00
FC007F00
FC003F80
FC001F80
FC000FC0
FC000FC0
FC000FC0
FC0007C0
FC0007C0
FC0007C0
FC0007C0
FC0007C0
FC000FC0
FC000FC0
FC000FC0
FC001F80
FC003F80
FC007F00
FC00FF00
FC0FFE00
FFFFFC00
FFFFF800
FFFFF000
FFFFC000
FFFE0000
ENDCHAR
STARTCHAR 0045
ENCODING 69
SWIDTH 495 0
DWIDTH 22 0
BBX 21 31 1 0
BITMAP
1FFF00
1FFF00
1FFF00
1FFF00
1FFF00
1F8000
1F8000
1F8000
1F8000
1F8000
1F8000
1F8000
1F8000
FFFFC0
FFFFC0
FFFFC0
FFFFC0
FFFFC0
1F8000
1F8000
1F8000
1F8000
1F8000
1F8000
1F8000
1F8000
1FFFF8
1FFFF8
1FFFF8
1FFFF8
1FFFF8
ENDCHAR
STARTCHAR 0046
ENCODING 70
SWIDTH 472 0
DWIDTH 21 0
BBX 20 31 1 0
BITMAP
1FFFF0
1FFFF0
1FFFF0
1FFFF0
1FFFF0
1F8000
1F8000
1F8000
1F8000
1F8000
1F8000
1F8000
1F8000
1F8000
FFFFE0
FFFFE0
FFFFE0
FFFFE0
FFFFE0
1F8000
1F8000
1F8000
1F8000
1F8000
1F8000
1F8000
1F8000
1F8000
1F8000
1F8000
1F8000
ENDCHAR
STARTCHAR 0047
ENCODING 71
SWIDTH 832 0
DWIDTH 37 0
BBX 35 33 2 -1
BITMAP
0007E00000
003FFE0000
01FFFF8000
03FFFFC000
07FFFFE000
0FFE7FF000
1FE007E000
3FC001C000
3F00008000
7E00000000
7E00000000
FC00000000
FC00000000
F800000000
F801FFFFE0
F801FFFFE0
F801FFFFE0
F801FFFFE0
F801FFFFE0
F800003F00
FC00003F00
FC00007E00
7E00007E00
7F0000FE00
3F0001FC00
3FC003FC00
1FE007F800
0FFFFFF000
07FFFFE000
03FFFFC000
00FFFF8000
003FFC0000
0003C00000
ENDCHAR
STARTCHAR 0048
ENCODING 72
SWIDTH 562 0
DWIDTH 25 0
BBX 22 31 1 0
BITMAP
1F807C
1F807C
1F807C
1F807C
1F807C
1F807C
1F807C
1F807C
1F807C
1F807C
1F807C
1F807C
1F807C
FFFFFC
FFFFFC
FFFFFC
FFFFFC
FFFFFC
1F807C
1F807C
1F807C
1F807C
1F807C
1F807C
1F807C
1F807C
1F807C
1F807C
1F807C
1F807C
1F807C
ENDCHAR
STARTCHAR 0049
ENCODING 73
SWIDTH 225 0
DWIDTH 10 0
BBX 12 35 -1 1
BITMAP
0400
0600
0600
0F00
FFF0
7FE0
1F80
1F80
1F80
1980
30C0
0000
0000
0000
0000
0000
1F80
1F80
1F80
1F80
1F80
1F80
1F80
1F80
1F80
1F80
1F80
1F80
1F80
1F80
1F80
1F80
1F80
1F80
1F80
ENDCHAR
STARTCHAR 004A
ENCODING 74
SWIDTH 472 0
DWIDTH 21 0
BBX 18 32 1 -1
BITMAP
007FC0
007FC0
007FC0
007FC0
007FC0
000FC0
000FC0
000FC0
000FC0
000FC0
000FC0
000FC0
000FC0
000FC0
000FC0
000FC0
000FC0
000FC0
000FC0
000FC0
000FC0
000FC0
000FC0
080FC0
380F80
7C1F80
FFFF80
FFFF00
7FFF00
3FFE00
1FF800
01E000
ENDCHAR
STARTCHAR 004B
ENCODING 75
SWIDTH 562 0
DWIDTH 25 0
BBX 22 31 1 0
BITMAP
1F81F0
1F81F0
1F81F0
1F81F0
1F81F0
1F81F0
1F81F0
1F81F0
1F83F0
1F83F0
1F83F0
1F87E0
1F9FE0
FFFFC0
FFFFC0
FFFFE0
FFFFF0
1F8FF8
1F81F8
1F80FC
1F80FC
1F80FC
1F80FC
1F80FC
1F80FC
1F80FC
1F80FC
1F80FC
1F80FC
1F80FC
1F80FC
ENDCHAR
STARTCHAR 004C
ENCODING 76
SWIDTH 450 0
DWIDTH 20 0
BBX 17 31 2 0
BITMAP
FC0000
FC0000
FC0000
FC0000
FC0000
FC0000
FC0000
FC0000
FC0000
FC0000
FC0000
FC0000
FC0000
FC0000
FC0000
FC0000
FC0000
FC0000
FC0000
FC0000
FC0000
FC0000
FC0000
FC0000
FC0000
FC0000
FFFF80
FFFF80
FFFF80
FFFF80
FFFF80
ENDCHAR
STARTCHAR 004D
ENCODING 77
SWIDTH 877 0
DWIDTH 39 0
BBX 36 32 1 0
BITMAP
1000000000
3800E003F0
7C00F003F0
FF00FC03F0
FF80FE03F0
7FC0FF03F0
3FE0FFC3F0
1FF8FFE3F0
1FFCFFF3F0
1FFEFFFBF0
1FFFFFFFF0
1F7FFCFFF0
1F1FFC7FF0
1F0FFC3FF0
1F07FC1FF0
1F01FC07F0
1F00FC03F0
1F00FC03F0
1F00FC03F0
1F00FC03F0
1F00FC03F0
1F00FC03F0
1F00FC03F0
1F00FC03F0
1F00FC03F0
1F00FC03F0
1F00FC03F0
1F00FC03F0
1F00FC03F0
1F00FC03F0
1F00FC03F0
1F00FC03F0
ENDCHAR
STARTCHAR 004E
ENCODING 78
SWIDTH 540 0
DWIDTH 24 0
BBX 21 32 1 0
BITMAP
100000
3800F8
7C00F8
FF00F8
FF80F8
7FC0F8
3FE0F8
3FF8F8
3FFCF8
3FFEF8
3FFFF8
3F7FF8
3F3FF8
3F0FF8
3F07F8
3F03F8
3F01F8
3F00F8
3F00F8
3F00F8
3F00F8
3F00F8
3F00F8
3F00F8
3F00F8
3F00F8
3F00F8
3F00F8
3F00F8
3F00F8
3F00F8
3F00F8
ENDCHAR
STARTCHAR 004F
ENCODING 79
SWIDTH 810 0
DWIDTH 36 0
BBX 33 33 2 -1
BITMAP
0007E00000
003FFE0000
01FFFF8000
03FFFFC000
07FFFFF000
0FFE3FF800
1FE007FC00
3FC001FC00
3F0000FE00
7E00007E00
7E00003F00
FC00003F00
FC00001F00
F800001F80
F800001F80
F800001F80
F800001F80
F800001F80
F800001F80
F800001F80
FC00001F00
FC00003F00
7E00003F00
7F00007E00
3F0000FE00
3FC001FC00
1FF007FC00
0FFFFFF800
07FFFFF000
03FFFFC000
00FFFF8000
003FFE0000
0003C00000
ENDCHAR
STARTCHAR 0050
ENCODING 80
SWIDTH 562 0
DWIDTH 25 0
BBX 24 31 1 0
BITMAP
1FFF80
1FFFE0
1FFFF8
1FFFFC
1FFFFC
1F01FE
1F007E
1F003F
1F003F
1F003F
1F003F
1F003F
1F007E
1F00FE
FFFFFC
FFFFFC
FFFFF8
FFFFF0
FFFFC0
1F0000
1F0000
1F0000
1F0000
1F0000
1F0000
1F0000
1F0000
1F0000
1F0000
1F0000
1F0000
ENDCHAR
STARTCHAR 0051
ENCODING 81
SWIDTH 810 0
DWIDTH 36 0
BBX 33 33 2 -1
BITMAP
0007E00000
003FFE0000
01FFFF8000
03FFFFC000
07FFFFF000
0FFE3FF800
1FE007FC00
3FC001FC00
3F0000FE00
7E00007E00
7E00003F00
FC00003F00
FC00001F00
F800001F80
F800001F80
F800001F80
F800001F80
F800001F80
F800001F80
F800001F80
FC00001F00
FC00013F00
7E0003BF00
7F0007FE00
3F000FFE00
3FC00FFC00
1FF007FC00
0FFFFFFC00
07FFFFFE00
03FFFFFE00
00FFFFFC00
003FFE3800
0003E01000
ENDCHAR
STARTCHAR 0052
ENCODING 82
SWIDTH 607 0
DWIDTH 27 0
BBX 24 31 1 0
BITMAP
1FFFC0
1FFFF0
1FFFFC
1FFFFE
1FFFFE
1F80FF
1F803F
1F801F
1F801F
1F801F
1F801F
1F801F
1F803F
1F80FF
FFFFFE
FFFFFC
FFFFF8
FFFFF8
FFFFF8
1F81FC
1F80FC
1F807E
1F807E
1F807E
1F803E
1F803E
1F803E
1F803E
1F803E
1F803E
1F803E
ENDCHAR
STARTCHAR 0053
ENCODING 83
SWIDTH 495 0
DWIDTH 22 0
BBX 20 33 1 -1
BITMAP
00F800
07FF00
0FFF80
1FFFC0
3FFFC0
3FDFE0
3F07E0
3E03F0
3E03C0
3E0000
3F0000
3F8000
1FC000
1FF000
0FFC00
03FE00
01FF80
007FC0
003FE0
000FE0
0007F0
0003F0
0003F0
1C01F0
FC01F0
7E03F0
7F07F0
7FFFF0
3FFFE0
1FFFC0
0FFF80
03FF00
00F800
ENDCHAR
STARTCHAR 0054
ENCODING 84
SWIDTH 517 0
DWIDTH 23 0
BBX 21 31 1 0
BITMAP
FFFFF8
FFFFF8
FFFFF8
FFFFF8
FFFFF8
00F800
00F800
00F800
00F800
00F800
00F800
00F800
00F800
00F800
00F800
00F800
00F800
00F800
00F800
00F800
00F800
00F800
00F800
00F800
00F800
00F800
00F800
00F800
00F800
00F800
00F800
ENDCHAR
STARTCHAR 0055
ENCODING 85
SWIDTH 517 0
DWIDTH 23 0
BBX 20 32 2 -1
BITMAP
FC03F0
FC03F0
FC03F0
FC03F0
FC03F0
FC03F0
FC03F0
FC03F0
FC03F0
FC03F0
FC03F0
FC03F0
FC03F0
FC03F0
FC03F0
FC03F0
FC03F0
FC03F0
FC03F0
FC03F0
FC03F0
FC03E0
FC03E0
FC03E0
FC07E0
7E0FE0
7FFFC0
3FFFC0
3FFF80
1FFF00
07FE00
00F000
ENDCHAR
STARTCHAR 0056
ENCODING 86
SWIDTH 472 0
DWIDTH 21 0
BBX 18 31 1 0
BITMAP
F807C0
F807C0
F807C0
F807C0
F807C0
F807C0
F807C0
F807C0
F807C0
F807C0
F807C0
F807C0
F807C0
F807C0
F807C0
F807C0
F807C0
F807C0
FC0FC0
FC0FC0
FC0FC0
FC0F80
7E1F80
7E1F80
7E1F00
3F3F00
1F3F00
1FFE00
0FFC00
07F800
03F800
ENDCHAR
STARTCHAR 0057
ENCODING 87
SWIDTH 787 0
DWIDTH 35 0
BBX 32 31 1 0
BITMAP
F807C03F
F807C03F
F807C03F
F807C03F
F807C03F
F807C03F
F807C03F
F807C03F
F807C03F
F807C03F
F807C03F
F807C03F
F807C03F
F807C03F
F807C03F
F807E03F
F807E03F
F807E03F
FC0FE03E
FC0FE03E
FC0FE07E
FC0FF07E
7E1FF07E
7E1FF0FC
7E1FF8FC
3F3FF9F8
1F3EFDF8
1FFE7FF0
0FFC7FF0
07F83FE0
03F81FC0
ENDCHAR
STARTCHAR 0058
ENCODING 88
SWIDTH 517 0
DWIDTH 23 0
BBX 20 31 2 0
BITMAP
FC03F0
FC03F0
FC03F0
FC03F0
FC03F0
FC03F0
FC03F0
FC03F0
7C03E0
7E07E0
7F0FE0
3FFFC0
3FFFC0
1FFF80
3FFFC0
3FFFC0
7F0FE0
7E07E0
7C03E0
FC03F0
FC03F0
FC03F0
FC03F0
FC03F0
FC03F0
FC03F0
FC03F0
FC03F0
FC03F0
FC03F0
FC03F0
ENDCHAR
STARTCHAR 0059
ENCODING 89
SWIDTH 517 0
DWIDTH 23 0
BBX 19 31 2 0
BITMAP
F803E0
F803E0
F803E0
F803E0
F803E0
F803E0
F803E0
F803E0
F803E0
F803E0
F803E0
F803E0
F803E0
F803E0
F803E0
FC07E0
FC07E0
FE0FE0
7F1FC0
7FFFC0
3FFF80
1FFF00
0FFE00
01F000
01F000
01F000
01F000
01F000
01F000
01F000
01F000
ENDCHAR
STARTCHAR 005A
ENCODING 90
SWIDTH 517 0
DWIDTH 23 0
BBX 21 31 1 0
BITMAP
FFFFF8
FFFFF8
FFFFF8
FFFFF8
FFFFF0
0007E0
0007E0
000FC0
000FC0
001F80
003F00
003F00
007E00
007E00
00FC00
01FC00
01F800
03F000
03F000
07E000
0FE000
0FC000
1F8000
1F8000
3F0000
3F0000
7FFFF0
FFFFF0
FFFFF0
FFFFF0
FFFFF0
ENDCHAR
STARTCHAR 005B
ENCODING 91
SWIDTH 247 0
DWIDTH 11 0
BBX 7 44 2 -7
BITMAP
FE
FE
FE
FE
F0
F0
F0
F0
F0
F0
F0
F0
F0
F0
F0
F0
F0
F0
F0
F0
F0
F0
F0
F0
F0
F0
F0
F0
F0
F0
F0
F0
F0
F0
F0
F0
F0
F0
F0
F0
FE
FE
FE
FE
ENDCHAR
STARTCHAR 005C
ENCODING 92
SWIDTH 405 0
DWIDTH 18 0
BBX 13 33 3 -1
BITMAP
F000
F000
F800
F800
7800
7800
7C00
3C00
3C00
3E00
3E00
1E00
1E00
1F00
0F00
0F00
0F80
0F80
0780
0780
07C0
03C0
03C0
03E0
03E0
01E0
01E0
01F0
00F0
00F0
00F8
00F8
0078
ENDCHAR
STARTCHAR 005D
ENCODING 93
SWIDTH 247 0
DWIDTH 11 0
BBX 7 44 2 -7
BITMAP
FE
FE
FE
FE
0E
0E
0E
0E
0E
0E
0E
0E
0E
0E
0E
0E
0E
0E
0E
0E
0E
0E
0E
0E
0E
0E
0E
0E
0E
0E
0E
0E
0E
0E
0E
0E
0E
0E
0E
0E
FE
FE
FE
FE
ENDCHAR
STARTCHAR 005E
ENCODING 94
SWIDTH 495 0
DWIDTH 22 0
BBX 17 12 3 15
BITMAP
03E000
07F000
07F000
0FF800
1F7800
1E3C00
3E3E00
3C1E00
7C1F00
780F00
F00F80
F00780
ENDCHAR
STARTCHAR 005F
ENCODING 95
SWIDTH 540 0
DWIDTH 24 0
BBX 20 3 2 -5
BITMAP
FFFFF0
FFFFF0
FFFFF0
ENDCHAR
STARTCHAR 0060
ENCODING 96
SWIDTH 157 0
DWIDTH 7 0
BBX 7 6 0 34
BITMAP
F0
78
78
3C
1C
0E
ENDCHAR
STARTCHAR 0061
ENCODING 97
SWIDTH 562 0
DWIDTH 25 0
BBX 23 32 2 0
BITMAP
00F000
07FE00
0FFF00
1FFF80
3FFFC0
7F9FE0
7E07E0
7C07E0
FC03F0
FC03F0
FC03F0
FC03F0
FC03F0
FC03F0
FC03F0
FC03F0
FC03F0
FC03F0
FC03F0
FC03F0
FC03F0
FC03F0
FC03F0
FC03F0
FC03F0
FC03F0
FC03F0
FFFFFE
FFFFFE
FFFFFE
FFFFFE
FFFFFE
ENDCHAR
STARTCHAR 0062
ENCODING 98
SWIDTH 607 0
DWIDTH 27 0
BBX 25 31 2 0
BITMAP
3FFFC000
3FFFF000
3FFFF800
3FFFFC00
3FFFFE00
3F00FE00
3F007F00
3F003F00
3F003F00
3F003F00
3F003F00
3F007E00
3F01FE00
FFFFFC00
FFFFFC00
FFFFFC00
FFFFFE00
FFFFFF00
3F007F00
3F003F00
3F001F80
3F001F80
3F001F80
3F001F00
3F003F00
3F00FF00
3FFFFE00
3FFFFE00
3FFFFC00
3FFFF000
3FFFC000
ENDCHAR
STARTCHAR 0063
ENCODING 99
SWIDTH 675 0
DWIDTH 30 0
BBX 28 33 2 -1
BITMAP
0007E000
007FFE00
01FFFF80
03FFFFC0
07FFFFE0
0FFE7FF0
1FE007E0
3FC003C0
3F000180
7E000000
7E000000
FC000000
FC000000
F8000000
F8000000
F8000000
F8000000
F8000000
F8000000
F8000000
FC000000
FC000000
7E000000
7F000000
3F000180
3FC003C0
1FE00FE0
0FFFFFF0
07FFFFE0
03FFFFC0
00FFFF00
003FFC00
0003C000
ENDCHAR
STARTCHAR 0064
ENCODING 100
SWIDTH 652 0
DWIDTH 29 0
BBX 26 31 2 0
BITMAP
FFFE0000
FFFFC000
FFFFF000
FFFFF800
FFFFFC00
FC07FE00
FC00FF00
FC007F00
FC003F80
FC001F80
FC000FC0
FC000FC0
FC000FC0
FC0007C0
FC0007C0
FC0007C0
FC0007C0
FC0007C0
FC000FC0
FC000FC0
FC000FC0
FC001F80
FC003F80
FC007F00
FC00FF00
FC0FFE00
FFFFFC00
FFFFF800
FFFFF000
FFFFC000
FFFE0000
ENDCHAR
STARTCHAR 0065
ENCODING 101
SWIDTH 495 0
DWIDTH 22 0
BBX 21 31 1 0
BITMAP
1FFF00
1FFF00
1FFF00
1FFF00
1FFF00
1F8000
1F8000
1F8000
1F8000
1F8000
1F8000
1F8000
1F8000
FFFFC0
FFFFC0
FFFFC0
FFFFC0
FFFFC0
1F8000
1F8000
1F8000
1F8000
1F8000
1F8000
1F8000
1F8000
1FFFF8
1FFFF8
1FFFF8
1FFFF8
1FFFF8
ENDCHAR
STARTCHAR 0066
ENCODING 102
SWIDTH 472 0
DWIDTH 21 0
BBX 20 31 1 0
BITMAP
1FFFF0
1FFFF0
1FFFF0
1FFFF0
1FFFF0
1F8000
1F8000
1F8000
1F8000
1F8000
1F8000
1F8000
1F8000
1F8000
FFFFE0
FFFFE0
FFFFE0
FFFFE0
FFFFE0
1F8000
1F8000
1F8000
1F8000
1F8000
1F8000
1F8000
1F8000
1F8000
1F8000
1F8000
1F8000
ENDCHAR
STARTCHAR 0067
ENCODING 103
SWIDTH 832 0
DWIDTH 37 0
BBX 35 33 2 -1
BITMAP
0007E00000
003FFE0000
01FFFF8000
03FFFFC000
07FFFFE000
0FFE7FF000
1FE007E000
3FC001C000
3F00008000
7E00000000
7E00000000
FC00000000
FC00000000
F800000000
F801FFFFE0
F801FFFFE0
F801FFFFE0
F801FFFFE0
F801FFFFE0
F800003F00
FC00003F00
FC00007E00
7E00007E00
7F0000FE00
3F0001FC00
3FC003FC00
1FE007F800
0FFFFFF000
07FFFFE000
03FFFFC000
00FFFF8000
003FFC0000
0003C00000
ENDCHAR
STARTCHAR 0068
ENCODING 104
SWIDTH 562 0
DWIDTH 25 0
BBX 22 31 1 0
BITMAP
1F807C
1F807C
1F807C
1F807C
1F807C
1F807C
1F807C
1F807C
1F807C
1F807C
1F807C
1F807C
1F807C
FFFFFC
FFFFFC
FFFFFC
FFFFFC
FFFFFC
1F807C
1F807C
1F807C
1F807C
1F807C
1F807C
1F807C
1F807C
1F807C
1F807C
1F807C
1F807C
1F807C
ENDCHAR
STARTCHAR 0069
ENCODING 105
SWIDTH 225 0
DWIDTH 10 0
BBX 12 35 -1 1
BITMAP
0400
0600
0600
0F00
FFF0
7FE0
1F80
1F80
1F80
1980
30C0
0000
0000
0000
0000
0000
1F80
1F80
1F80
1F80
1F80
1F80
1F80
1F80
1F80
1F80
1F80
1F80
1F80
1F80
1F80
1F80
1F80
1F80
1F80
ENDCHAR
STARTCHAR 006A
ENCODING 106
SWIDTH 472 0
DWIDTH 21 0
BBX 18 32 1 -1
BITMAP
007FC0
007FC0
007FC0
007FC0
007FC0
000FC0
000FC0
000FC0
000FC0
000FC0
000FC0
000FC0
000FC0
000FC0
000FC0
000FC0
000FC0
000FC0
000FC0
000FC0
000FC0
000FC0
000FC0
080FC0
380F80
7C1F80
FFFF80
FFFF00
7FFF00
3FFE00
1FF800
01E000
ENDCHAR
STARTCHAR 006B
ENCODING 107
SWIDTH 562 0
DWIDTH 25 0
BBX 22 31 1 0
BITMAP
1F81F0
1F81F0
1F81F0
1F81F0
1F81F0
1F81F0
1F81F0
1F81F0
1F83F0
1F83F0
1F83F0
1F87E0
1F9FE0
FFFFC0
FFFFC0
FFFFE0
FFFFF0
1F8FF8
1F81F8
1F80FC
1F80FC
1F80FC
1F80FC
1F80FC
1F80FC
1F80FC
1F80FC
1F80FC
1F80FC
1F80FC
1F80FC
ENDCHAR
STARTCHAR 006C
ENCODING 108
SWIDTH 450 0
DWIDTH 20 0
BBX 17 31 2 0
BITMAP
FC0000
FC0000
FC0000
FC0000
FC0000
FC0000
FC0000
FC0000
FC0000
FC0000
FC0000
FC0000
FC0000
FC0000
FC0000
FC0000
FC0000
FC0000
FC0000
FC0000
FC0000
FC0000
FC0000
FC0000
FC0000
FC0000
FFFF80
FFFF80
FFFF80
FFFF80
FFFF80
ENDCHAR
STARTCHAR 006D
ENCODING 109
SWIDTH 877 0
DWIDTH 39 0
BBX 36 32 1 0
BITMAP
1000000000
3800E003F0
7C00F003F0
FF00FC03F0
FF80FE03F0
7FC0FF03F0
3FE0FFC3F0
1FF8FFE3F0
1FFCFFF3F0
1FFEFFFBF0
1FFFFFFFF0
1F7FFCFFF0
1F1FFC7FF0
1F0FFC3FF0
1F07FC1FF0
1F01FC07F0
1F00FC03F0
1F00FC03F0
1F00FC03F0
1F00FC03F0
1F00FC03F0
1F00FC03F0
1F00FC03F0
1F00FC03F0
1F00FC03F0
1F00FC03F0
1F00FC03F0
1F00FC03F0
1F00FC03F0
1F00FC03F0
1F00FC03F0
1F00FC03F0
ENDCHAR
STARTCHAR 006E
ENCODING 110
SWIDTH 540 0
DWIDTH 24 0
BBX 21 32 1 0
BITMAP
100000
3800F8
7C00F8
FF00F8
FF80F8
7FC0F8
3FE0F8
3FF8F8
3FFCF8
3FFEF8
3FFFF8
3F7FF8
3F3FF8
3F0FF8
3F07F8
3F03F8
3F01F8
3F00F8
3F00F8
3F00F8
3F00F8
3F00F8
3F00F8
3F00F8
3F00F8
3F00F8
3F00F8
3F00F8
3F00F8
3F00F8
3F00F8
3F00F8
ENDCHAR
STARTCHAR 006F
ENCODING 111
SWIDTH 810 0
DWIDTH 36 0
BBX 33 33 2 -1
BITMAP
0007E00000
003FFE0000
01FFFF8000
03FFFFC000
07FFFFF000
0FFE3FF800
1FE007FC00
3FC001FC00
3F0000FE00
7E00007E00
7E00003F00
FC00003F00
FC00001F00
F800001F80
F800001F80
F800001F80
F800001F80
F800001F80
F800001F80
F800001F80
FC00001F00
FC00003F00
7E00003F00
7F00007E00
3F0000FE00
3FC001FC00
1FF007FC00
0FFFFFF800
07FFFFF000
03FFFFC000
00FFFF8000
003FFE0000
0003C00000
ENDCHAR
STARTCHAR 0070
ENCODING 112
SWIDTH 562 0
DWIDTH 25 0
BBX 24 31 1 0
BITMAP
1FFF80
1FFFE0
1FFFF8
1FFFFC
1FFFFC
1F01FE
1F007E
1F003F
1F003F
1F003F
1F003F
1F003F
1F007E
1F00FE
FFFFFC
FFFFFC
FFFFF8
FFFFF0
FFFFC0
1F0000
1F0000
1F0000
1F0000
1F0000
1F0000
1F0000
1F0000
1F0000
1F0000
1F0000
1F0000
ENDCHAR
STARTCHAR 0071
ENCODING 113
SWIDTH 810 0
DWIDTH 36 0
BBX 33 33 2 -1
BITMAP
0007E00000
003FFE0000
01FFFF8000
03FFFFC000
07FFFFF000
0FFE3FF800
1FE007FC00
3FC001FC00
3F0000FE00
7E00007E00
7E00003F00
FC00003F00
FC00001F00
F800001F80
F800001F80
F800001F80
F800001F80
F800001F80
F800001F80
F800001F80
FC00001F00
FC00013F00
7E0003BF00
7F0007FE00
3F000FFE00
3FC00FFC00
1FF007FC00
0FFFFFFC00
07FFFFFE00
03FFFFFE00
00FFFFFC00
003FFE3800
0003E01000
ENDCHAR
STARTCHAR 0072
ENCODING 114
SWIDTH 607 0
DWIDTH 27 0
BBX 24 31 1 0
BITMAP
1FFFC0
1FFFF0
1FFFFC
1FFFFE
1FFFFE
1F80FF
1F803F
1F801F
1F801F
1F801F
1F801F
1F801F
1F803F
1F80FF
FFFFFE
FFFFFC
FFFFF8
FFFFF8
FFFFF8
1F81FC
1F80FC
1F807E
1F807E
1F807E
1F803E
1F803E
1F803E
1F803E
1F803E
1F803E
1F803E
ENDCHAR
STARTCHAR 0073
ENCODING 115
SWIDTH 495 0
DWIDTH 22 0
BBX 20 33 1 -1
BITMAP
00F800
07FF00
0FFF80
1FFFC0
3FFFC0
3FDFE0
3F07E0
3E03F0
3E03C0
3E0000
3F0000
3F8000
1FC000
1FF000
0FFC00
03FE00
01FF80
007FC0
003FE0
000FE0
0007F0
0003F0
0003F0
1C01F0
FC01F0
7E03F0
7F07F0
7FFFF0
3FFFE0
1FFFC0
0FFF80
03FF00
00F800
ENDCHAR
STARTCHAR 0074
ENCODING 116
SWIDTH 517 0
DWIDTH 23 0
BBX 21 31 1 0
BITMAP
FFFFF8
FFFFF8
FFFFF8
FFFFF8
FFFFF8
00F800
00F800
00F800
00F800
00F800
00F800
00F800
00F800
00F800
00F800
00F800
00F800
00F800
00F800
00F800
00F800
00F800
00F800
00F800
00F800
00F800
00F800
00F800
00F800
00F800
00F800
ENDCHAR
STARTCHAR 0075
ENCODING 117
SWIDTH 517 0
DWIDTH 23 0
BBX 20 32 2 -1
BITMAP
FC03F0
FC03F0
FC03F0
FC03F0
FC03F0
FC03F0
FC03F0
FC03F0
FC03F0
FC03F0
FC03F0
FC03F0
FC03F0
FC03F0
FC03F0
FC03F0
FC03F0
FC03F0
FC03F0
FC03F0
FC03F0
FC03E0
FC03E0
FC03E0
FC07E0
7E0FE0
7FFFC0
3FFFC0
3FFF80
1FFF00
07FE00
00F000
ENDCHAR
STARTCHAR 0076
ENCODING 118
SWIDTH 472 0
DWIDTH 21 0
BBX 18 31 1 0
BITMAP
F807C0
F807C0
F807C0
F807C0
F807C0
F807C0
F807C0
F807C0
F807C0
F807C0
F807C0
F807C0
F807C0
F807C0
F807C0
F807C0
F807C0
F807C0
FC0FC0
FC0FC0
FC0FC0
FC0F80
7E1F80
7E1F80
7E1F00
3F3F00
1F3F00
1FFE00
0FFC00
07F800
03F800
ENDCHAR
STARTCHAR 0077
ENCODING 119
SWIDTH 787 0
DWIDTH 35 0
BBX 32 31 1 0
BITMAP
F807C03F
F807C03F
F807C03F
F807C03F
F807C03F
F807C03F
F807C03F
F807C03F
F807C03F
F807C03F
F807C03F
F807C03F
F807C03F
F807C03F
F807C03F
F807E03F
F807E03F
F807E03F
FC0FE03E
FC0FE03E
FC0FE07E
FC0FF07E
7E1FF07E
7E1FF0FC
7E1FF8FC
3F3FF9F8
1F3EFDF8
1FFE7FF0
0FFC7FF0
07F83FE0
03F81FC0
ENDCHAR
STARTCHAR 0078
ENCODING 120
SWIDTH 517 0
DWIDTH 23 0
BBX 20 31 2 0
BITMAP
FC03F0
FC03F0
FC03F0
FC03F0
FC03F0
FC03F0
FC03F0
FC03F0
7C03E0
7E07E0
7F0FE0
3FFFC0
3FFFC0
1FFF80
3FFFC0
3FFFC0
7F0FE0
7E07E0
7C03E0
FC03F0
FC03F0
FC03F0
FC03F0
FC03F0
FC03F0
FC03F0
FC03F0
FC03F0
FC03F0
FC03F0
FC03F0
ENDCHAR
STARTCHAR 0079
ENCODING 121
SWIDTH 517 0
DWIDTH 23 0
BBX 19 31 2 0
BITMAP
F803E0
F803E0
F803E0
F803E0
F803E0
F803E0
F803E0
F803E0
F803E0
F803E0
F803E0
F803E0
F803E0
F803E0
F803E0
FC07E0
FC07E0
FE0FE0
7F1FC0
7FFFC0
3FFF80
1FFF00
0FFE00
01F000
01F000
01F000
01F000
01F000
01F000
01F000
01F000
ENDCHAR
STARTCHAR 007A
ENCODING 122
SWIDTH 517 0
DWIDTH 23 0
BBX 21 31 1 0
BITMAP
FFFFF8
FFFFF8
FFFFF8
FFFFF8
FFFFF0
0007E0
0007E0
000FC0
000FC0
001F80
003F00
003F00
007E00
007E00
00FC00
01FC00
01F800
03F000
03F000
07E000
0FE000
0FC000
1F8000
1F8000
3F0000
3F0000
7FFFF0
FFFFF0
FFFFF0
FFFFF0
FFFFF0
ENDCHAR
STARTCHAR 007B
ENCODING 123
SWIDTH 337 0
DWIDTH 15 0
BBX 11 44 2 -7
BITMAP
00E0
07E0
0FE0
0FE0
0F00
0F00
0F00
0F00
0F00
0F00
0F00
0F00
0F00
0F00
0F00
0F00
0E00
1E00
1E00
3E00
FC00
F800
FC00
FC00
3E00
1E00
1E00
0E00
0F00
0F00
0F00
0F00
0F00
0F00
0F00
0F00
0F00
0F00
0F00
0F00
0FE0
0FE0
07E0
00E0
ENDCHAR
STARTCHAR 007C
ENCODING 124
SWIDTH 157 0
DWIDTH 7 0
BBX 3 36 2 -5
BITMAP
E0
E0
E0
E0
E0
E0
E0
E0
E0
E0
E0
E0
E0
E0
E0
E0
E0
E0
E0
E0
E0
E0
E0
E0
E0
E0
E0
E0
E0
E0
E0
E0
E0
E0
E0
E0
ENDCHAR
STARTCHAR 007D
ENCODING 125
SWIDTH 337 0
DWIDTH 15 0
BBX 11 44 2 -7
BITMAP
F000
FC00
FE00
FE00
1F00
0F00
0F00
0F00
0F00
0F00
0F00
0F00
0F00
0F00
0F00
0F00
0F00
0F00
0F80
07C0
07E0
03E0
03E0
07E0
0780
0F00
0F00
0F00
0F00
0F00
0F00
0F00
0F00
0F00
0F00
0F00
0F00
0F00
0F00
1F00
FE00
FE00
FC00
E000
ENDCHAR
STARTCHAR 007E
ENCODING 126
SWIDTH 540 0
DWIDTH 24 0
BBX 20 5 2 12
BITMAP
7FC000
FFFFF0
FFFFF0
FFFFF0
807FF0
ENDCHAR
STARTCHAR 00A1
ENCODING 161
SWIDTH 270 0
DWIDTH 12 0
BBX 8 32 2 -5
BITMAP
3C
7E
7E
FF
FF
7E
3C
00
00
00
00
00
7C
7C
7C
7C
7C
7C
7C
7C
7C
7C
7C
7C
7C
7C
7C
7C
7C
7C
7C
7C
ENDCHAR
STARTCHAR 00A2
ENCODING 162
SWIDTH 517 0
DWIDTH 23 0
BBX 19 27 2 2
BITMAP
00F800
00F800
00F800
01FE00
07FF80
0FFFC0
1FFFE0
3F87C0
3E0180
7C0000
780000
780000
F80000
F80000
F80000
780000
7C0000
7C0000
3E0180
3F87C0
1FFFE0
0FFFC0
07FF80
00FE00
00F800
00F800
00F800
ENDCHAR
STARTCHAR 00A3
ENCODING 163
SWIDTH 540 0
DWIDTH 24 0
BBX 21 32 2 0
BITMAP
000F80
007FF8
01FFF8
03FFF8
07FFF8
0FFFF8
0FE018
1FC000
1F8000
1F8000
1F8000
1F8000
1F8000
0F8000
0FC000
FFFFC0
FFFFC0
FFFFC0
07E000
03E000
03F000
03F000
03F000
03F000
07E000
07E000
7FC000
FFFFF8
FFFFF8
FFFFF8
FFFFF8
FFFFF8
ENDCHAR
STARTCHAR 00A4
ENCODING 164
SWIDTH 585 0
DWIDTH 26 0
BBX 21 22 3 3
BITMAP
200020
700070
FBFEF8
FFFFF0
7FFFE0
3F07C0
3C03E0
7801E0
7800F0
7800F0
7800F0
7800F0
7800F0
7800E0
3C01E0
3E03E0
3FDFE0
7FFFF0
FFFFF8
F1FCF8
600070
000020
ENDCHAR
STARTCHAR 00A5
ENCODING 165
SWIDTH 652 0
DWIDTH 29 0
BBX 24 31 3 0
BITMAP
FC003F
FE007E
7E007E
7F00FC
3F00FC
3F81F8
1F81F8
1FC3F0
0FC3F0
0FE7E0
07E7E0
07FFC0
03FFC0
03FF80
01FF80
01FF00
1FFFF8
1FFFF8
1FFFF8
007E00
007E00
007E00
1FFFF8
1FFFF8
1FFFF8
007E00
007E00
007E00
007E00
007E00
007E00
ENDCHAR
STARTCHAR 00A6
ENCODING 166
SWIDTH 157 0
DWIDTH 7 0
BBX 3 36 2 -5
BITMAP
E0
E0
E0
E0
E0
E0
E0
E0
E0
E0
E0
E0
E0
00
00
00
00
00
00
00
00
00
E0
E0
E0
E0
E0
E0
E0
E0
E0
E0
E0
E0
E0
E0
ENDCHAR
STARTCHAR 00A7
ENCODING 167
SWIDTH 495 0
DWIDTH 22 0
BBX 16 37 3 -5
BITMAP
0180
0FF8
3FFC
3FFE
7FFE
7E3F
7C1F
7C1E
7C00
7E00
3F80
1FC0
0FF0
1FF8
3FFC
7FFE
FC3F
F81F
F81F
F81F
F81F
7F7E
7FFE
3FFC
0FE0
07F8
01FC
00FC
003E
183E
F83E
FC3E
FFFE
7FFE
3FFC
1FF8
0FF0
ENDCHAR
STARTCHAR 00A8
ENCODING 168
SWIDTH 382 0
DWIDTH 17 0
BBX 18 7 0 33
BITMAP
3C0F00
7E1F80
FE1FC0
FE1FC0
FE1FC0
7E1F80
380700
ENDCHAR
STARTCHAR 00A9
ENCODING 169
SWIDTH 832 0
DWIDTH 37 0
BBX 33 33 2 -1
BITMAP
0007F80000
003FFF0000
00FFFFC000
01F003E000
03C000F000
0780007800
0E00001C00
1C00001E00
3C03F00F00
380FFC0700
781FFE0700
703F3C0380
707C080380
7078000380
7070000380
E0F0000180
E0F0000180
E0F0000180
6070000380
7078000380
707C0C0380
703FFE0380
381FFE0700
380FFC0700
3C03F00E00
1E00001E00
0F00003C00
0780007800
03C000F000
01F807E000
00FFFFC000
003FFF0000
0003F00000
ENDCHAR
STARTCHAR 00AB
ENCODING 171
SWIDTH 585 0
DWIDTH 26 0
BBX 21 19 3 4
BITMAP
03F0F8
03E1F0
07C3E0
0F87C0
1F07C0
1F0F80
3E1F00
7C3E00
F83E00
F87C00
FC3E00
7C3F00
3E1F00
1F0F80
1F87C0
0F83E0
07C3E0
03E1F0
01F0F8
ENDCHAR
STARTCHAR 00AC
ENCODING 172
SWIDTH 562 0
DWIDTH 25 0
BBX 21 12 2 5
BITMAP
FFFFF8
FFFFF8
FFFFF8
FFFFF8
FFFFF8
000078
000078
000078
000078
000078
000078
000078
ENDCHAR
STARTCHAR 00AE
ENCODING 174
SWIDTH 495 0
DWIDTH 22 0
BBX 18 17 2 15
BITMAP
03F800
0FFE00
1C0700
380380
71F180
61F8C0
6198C0
C198C0
C7F0C0
C7F0C0
6198C0
6198C0
719980
300380
1C0700
0F1E00
07FC00
ENDCHAR
STARTCHAR 00AF
ENCODING 175
SWIDTH 270 0
DWIDTH 12 0
BBX 13 4 0 35
BITMAP
FFF8
FFF8
FFF8
FFF8
ENDCHAR
STARTCHAR 00B0
ENCODING 176
SWIDTH 337 0
DWIDTH 15 0
BBX 11 11 2 21
BITMAP
0600
3F80
7FC0
70E0
60E0
E060
E060
70E0
7FC0
3F80
0E00
ENDCHAR
STARTCHAR 00B1
ENCODING 177
SWIDTH 562 0
DWIDTH 25 0
BBX 21 20 2 4
BITMAP
007800
007800
007800
007800
007800
FFFFF8
FFFFF8
FFFFF8
FFFFF8
007800
007800
007800
007800
007800
000000
000000
FFFFF8
FFFFF8
FFFFF8
FFFFF8
ENDCHAR
STARTCHAR 00B4
ENCODING 180
SWIDTH 157 0
DWIDTH 7 0
BBX 7 6 0 34
BITMAP
1E
3E
3C
78
70
F0
ENDCHAR
STARTCHAR 00B6
ENCODING 182
SWIDTH 495 0
DWIDTH 22 0
BBX 18 36 2 -5
BITMAP
07F1C0
0FF1C0
1FF1C0
3FF1C0
7FF1C0
7FF1C0
7FF1C0
FFF1C0
FFF1C0
FFF1C0
7FF1C0
7FF1C0
7FF1C0
3FF1C0
1FF1C0
0FF1C0
03F1C0
0071C0
0071C0
0071C0
0071C0
0071C0
0071C0
0071C0
0071C0
0071C0
0071C0
0071C0
0071C0
0071C0
0071C0
0071C0
0071C0
0071C0
0071C0
0071C0
ENDCHAR
STARTCHAR 00B7
ENCODING 183
SWIDTH 270 0
DWIDTH 12 0
BBX 8 7 2 8
BITMAP
3C
7E
FF
FF
7E
7E
18
ENDCHAR
STARTCHAR 00B8
ENCODING 184
SWIDTH 225 0
DWIDTH 10 0
BBX 10 10 0 -10
BITMAP
0700
0E00
0F80
0380
01C0
21C0
73C0
FFC0
3F80
0E00
ENDCHAR
STARTCHAR 00BB
ENCODING 187
SWIDTH 585 0
DWIDTH 26 0
BBX 21 19 3 4
BITMAP
F87E00
7C3E00
3E1F00
3F0F80
1F0FC0
0F87C0
07C3E0
07E1F0
03E0F8
01F0F8
03E0F8
07C1F0
07C3E0
0F87C0
1F0F80
3E0F80
3E1F00
7C3E00
F87C00
ENDCHAR
STARTCHAR 00BF
ENCODING 191
SWIDTH 427 0
DWIDTH 19 0
BBX 15 32 2 -5
BITMAP
01E0
03F0
07F0
07F0
07F0
03F0
01E0
0000
0000
0000
0000
03E0
03E0
03E0
03E0
03E0
07C0
0FC0
0F80
1F00
3F00
3E00
7C00
7C00
FC00
FC1C
FC3E
7FFE
7FFC
3FFC
1FF8
07E0
ENDCHAR
STARTCHAR 00C0
ENCODING 192
SWIDTH 562 0
DWIDTH 25 0
BBX 23 40 2 0
BITMAP
078000
03C000
03C000
01E000
00E000
007000
000000
000000
00F000
07FE00
0FFF00
1FFF80
3FFFC0
7F9FE0
7E07E0
7C07E0
FC03F0
FC03F0
FC03F0
FC03F0
FC03F0
FC03F0
FC03F0
FC03F0
FC03F0
FC03F0
FC03F0
FC03F0
FC03F0
FC03F0
FC03F0
FC03F0
FC03F0
FC03F0
FC03F0
FFFFFE
FFFFFE
FFFFFE
FFFFFE
FFFFFE
ENDCHAR
STARTCHAR 00C1
ENCODING 193
SWIDTH 562 0
DWIDTH 25 0
BBX 23 40 2 0
BITMAP
001E00
003C00
003C00
007800
007000
00E000
000000
000000
00F000
07FE00
0FFF00
1FFF80
3FFFC0
7F9FE0
7E07E0
7C07E0
FC03F0
FC03F0
FC03F0
FC03F0
FC03F0
FC03F0
FC03F0
FC03F0
FC03F0
FC03F0
FC03F0
FC03F0
FC03F0
FC03F0
FC03F0
FC03F0
FC03F0
FC03F0
FC03F0
FFFFFE
FFFFFE
FFFFFE
FFFFFE
FFFFFE
ENDCHAR
STARTCHAR 00C2
ENCODING 194
SWIDTH 562 0
DWIDTH 25 0
BBX 23 40 2 0
BITMAP
01F800
03FC00
03FC00
079E00
0F9F00
1F0F80
000000
000000
00F000
07FE00
0FFF00
1FFF80
3FFFC0
7F9FE0
7E07E0
7C07E0
FC03F0
FC03F0
FC03F0
FC03F0
FC03F0
FC03F0
FC03F0
FC03F0
FC03F0
FC03F0
FC03F0
FC03F0
FC03F0
FC03F0
FC03F0
FC03F0
FC03F0
FC03F0
FC03F0
FFFFFE
FFFFFE
FFFFFE
FFFFFE
FFFFFE
ENDCHAR
STARTCHAR 00C3
ENCODING 195
SWIDTH 562 0
DWIDTH 25 0
BBX 23 40 2 0
BITMAP
030000
0FFE00
0FFE00
0FFE00
003C00
000000
000000
000000
00F000
07FE00
0FFF00
1FFF80
3FFFC0
7F9FE0
7E07E0
7C07E0
FC03F0
FC03F0
FC03F0
FC03F0
FC03F0
FC03F0
FC03F0
FC03F0
FC03F0
FC03F0
FC03F0
FC03F0
FC03F0
FC03F0
FC03F0
FC03F0
FC03F0
FC03F0
FC03F0
FFFFFE
FFFFFE
FFFFFE
FFFFFE
FFFFFE
ENDCHAR
STARTCHAR 00C4
ENCODING 196
SWIDTH 562 0
DWIDTH 25 0
BBX 23 40 2 0
BITMAP
1E07C0
3F0FE0
7F8FE0
7F8FE0
3F0FE0
3F07C0
1E0380
000000
00F000
07FE00
0FFF00
1FFF80
3FFFC0
7F9FE0
7E07E0
7C07E0
FC03F0
FC03F0
FC03F0
FC03F0
FC03F0
FC03F0
FC03F0
FC03F0
FC03F0
FC03F0
FC03F0
FC03F0
FC03F0
FC03F0
FC03F0
FC03F0
FC03F0
FC03F0
FC03F0
FFFFFE
FFFFFE
FFFFFE
FFFFFE
FFFFFE
ENDCHAR
STARTCHAR 00C5
ENCODING 197
SWIDTH 562 0
DWIDTH 25 0
BBX 23 43 2 0
BITMAP
006000
01F800
03FC00
030C00
070E00
070C00
039C00
03FC00
01F800
000000
000000
00F000
07FE00
0FFF00
1FFF80
3FFFC0
7F9FE0
7E07E0
7C07E0
FC03F0
FC03F0
FC03F0
FC03F0
FC03F0
FC03F0
FC03F0
FC03F0
FC03F0
FC03F0
FC03F0
FC03F0
FC03F0
FC03F0
FC03F0
FC03F0
FC03F0
FC03F0
FC03F0
FFFFFE
FFFFFE
FFFFFE
FFFFFE
FFFFFE
ENDCHAR
STARTCHAR 00C7
ENCODING 199
SWIDTH 675 0
DWIDTH 30 0
BBX 28 42 2 -10
BITMAP
0007E000
007FFE00
01FFFF80
03FFFFC0
07FFFFE0
0FFE7FF0
1FE007E0
3FC003C0
3F000180
7E000000
7E000000
FC000000
FC000000
F8000000
F8000000
F8000000
F8000000
F8000000
F8000000
F8000000
FC000000
FC000000
7E000000
7F000000
3F000180
3FC003C0
1FE00FE0
0FFFFFF0
07FFFFE0
03FFFFC0
00FFFF00
003FFC00
0003C000
00070000
00078000
0001C000
0000E000
0030E000
0079E000
007FC000
003FC000
000F0000
ENDCHAR
STARTCHAR 00C8
ENCODING 200
SWIDTH 495 0
DWIDTH 22 0
BBX 21 40 1 0
BITMAP
078000
078000
03C000
01C000
01E000
00E000
000000
000000
000000
1FFF00
1FFF00
1FFF00
1FFF00
1FFF00
1F8000
1F8000
1F8000
1F8000
1F8000
1F8000
1F8000
1F8000
FFFFC0
FFFFC0
FFFFC0
FFFFC0
FFFFC0
1F8000
1F8000
1F8000
1F8000
1F8000
1F8000
1F8000
1F8000
1FFFF8
1FFFF8
1FFFF8
1FFFF8
1FFFF8
ENDCHAR
STARTCHAR 00C9
ENCODING 201
SWIDTH 495 0
DWIDTH 22 0
BBX 21 40 1 0
BITMAP
003E00
003C00
007800
007000
00F000
00E000
000000
000000
000000
1FFF00
1FFF00
1FFF00
1FFF00
1FFF00
1F8000
1F8000
1F8000
1F8000
1F8000
1F8000
1F8000
1F8000
FFFFC0
FFFFC0
FFFFC0
FFFFC0
FFFFC0
1F8000
1F8000
1F8000
1F8000
1F8000
1F8000
1F8000
1F8000
1FFFF8
1FFFF8
1FFFF8
1FFFF8
1FFFF8
ENDCHAR
STARTCHAR 00CA
ENCODING 202
SWIDTH 495 0
DWIDTH 22 0
BBX 21 40 1 0
BITMAP
01F800
03F800
07FC00
0FBE00
0F1E00
1E0F00
000000
000000
000000
1FFF00
1FFF00
1FFF00
1FFF00
1FFF00
1F8000
1F8000
1F8000
1F8000
1F8000
1F8000
1F8000
1F8000
FFFFC0
FFFFC0
FFFFC0
FFFFC0
FFFFC0
1F8000
1F8000
1F8000
1F8000
1F8000
1F8000
1F8000
1F8000
1FFFF8
1FFFF8
1FFFF8
1FFFF8
1FFFF8
ENDCHAR
STARTCHAR 00CB
ENCODING 203
SWIDTH 495 0
DWIDTH 22 0
BBX 21 40 1 0
BITMAP
3E0780
7F0FC0
7F1FE0
7F1FE0
7F0FC0
3E0FC0
1C0780
000000
000000
1FFF00
1FFF00
1FFF00
1FFF00
1FFF00
1F8000
1F8000
1F8000
1F8000
1F8000
1F8000
1F8000
1F8000
FFFFC0
FFFFC0
FFFFC0
FFFFC0
FFFFC0
1F8000
1F8000
1F8000
1F8000
1F8000
1F8000
1F8000
1F8000
1FFFF8
1FFFF8
1FFFF8
1FFFF8
1FFFF8
ENDCHAR
STARTCHAR 00CC
ENCODING 204
SWIDTH 225 0
DWIDTH 10 0
BBX 8 28 0 0
BITMAP
F8
78
3C
3C
1E
0E
00
00
00
3F
3F
3F
3F
3F
3F
3F
3F
3F
3F
3F
3F
3F
3F
3F
3F
3F
3F
3F
ENDCHAR
STARTCHAR 00CD
ENCODING 205
SWIDTH 225 0
DWIDTH 10 0
BBX 8 28 2 0
BITMAP
0F
0F
1E
3C
38
78
00
00
00
FC
FC
FC
FC
FC
FC
FC
FC
FC
FC
FC
FC
FC
FC
FC
FC
FC
FC
FC
ENDCHAR
STARTCHAR 00CE
ENCODING 206
SWIDTH 225 0
DWIDTH 10 0
BBX 13 28 -1 0
BITMAP
1F80
1FC0
3FE0
7DE0
F8F0
F0F8
0000
0000
0000
1F80
1F80
1F80
1F80
1F80
1F80
1F80
1F80
1F80
1F80
1F80
1F80
1F80
1F80
1F80
1F80
1F80
1F80
1F80
ENDCHAR
STARTCHAR 00CF
ENCODING 207
SWIDTH 225 0
DWIDTH 10 0
BBX 17 28 -3 0
BITMAP
781F00
FC1F80
FE3F80
FE3F80
FE3F80
FC1F00
380E00
000000
000000
07E000
07E000
07E000
07E000
07E000
07E000
07E000
07E000
07E000
07E000
07E000
07E000
07E000
07E000
07E000
07E000
07E000
07E000
07E000
ENDCHAR
STARTCHAR 00D1
ENCODING 209
SWIDTH 540 0
DWIDTH 24 0
BBX 21 40 1 0
BITMAP
018000
07FF00
07FF00
07FF00
001E00
000000
000000
000000
100000
3800F8
7C00F8
FF00F8
FF80F8
7FC0F8
3FE0F8
3FF8F8
3FFCF8
3FFEF8
3FFFF8
3F7FF8
3F3FF8
3F0FF8
3F07F8
3F03F8
3F01F8
3F00F8
3F00F8
3F00F8
3F00F8
3F00F8
3F00F8
3F00F8
3F00F8
3F00F8
3F00F8
3F00F8
3F00F8
3F00F8
3F00F8
3F00F8
ENDCHAR
STARTCHAR 00D2
ENCODING 210
SWIDTH 810 0
DWIDTH 36 0
BBX 33 41 2 -1
BITMAP
001F000000
000F000000
0007800000
0007800000
0003C00000
0001C00000
0000000000
0000000000
0007E00000
003FFE0000
01FFFF8000
03FFFFC000
07FFFFF000
0FFE3FF800
1FE007FC00
3FC001FC00
3F0000FE00
7E00007E00
7E00003F00
FC00003F00
FC00001F00
F800001F80
F800001F80
F800001F80
F800001F80
F800001F80
F800001F80
F800001F80
FC00001F00
FC00003F00
7E00003F00
7F00007E00
3F0000FE00
3FC001FC00
1FF007FC00
0FFFFFF800
07FFFFF000
03FFFFC000
00FFFF8000
003FFE0000
0003C00000
ENDCHAR
STARTCHAR 00D3
ENCODING 211
SWIDTH 810 0
DWIDTH 36 0
BBX 33 41 2 -1
BITMAP
0000780000
0000780000
0000F00000
0000E00000
0001C00000
0001C00000
0000000000
0000000000
0007E00000
003FFE0000
01FFFF8000
03FFFFC000
07FFFFF000
0FFE3FF800
1FE007FC00
3FC001FC00
3F0000FE00
7E00007E00
7E00003F00
FC00003F00
FC00001F00
F800001F80
F800001F80
F800001F80
F800001F80
F800001F80
F800001F80
F800001F80
FC00001F00
FC00003F00
7E00003F00
7F00007E00
3F0000FE00
3FC001FC00
1FF007FC00
0FFFFFF800
07FFFFF000
03FFFFC000
00FFFF8000
003FFE0000
0003C00000
ENDCHAR
STARTCHAR 00D4
ENCODING 212
SWIDTH 810 0
DWIDTH 36 0
BBX 33 41 2 -1
BITMAP
0007E00000
0007F00000
000FF80000
001F780000
003E3C0000
003C3E0000
0000000000
0000000000
0007E00000
003FFE0000
01FFFF8000
03FFFFC000
07FFFFF000
0FFE3FF800
1FE007FC00
3FC001FC00
3F0000FE00
7E00007E00
7E00003F00
FC00003F00
FC00001F00
F800001F80
F800001F80
F800001F80
F800001F80
F800001F80
F800001F80
F800001F80
FC00001F00
FC00003F00
7E00003F00
7F00007E00
3F0000FE00
3FC001FC00
1FF007FC00
0FFFFFF800
07FFFFF000
03FFFFC000
00FFFF8000
003FFE0000
0003C00000
ENDCHAR
STARTCHAR 00D5
ENCODING 213
SWIDTH 810 0
DWIDTH 36 0
BBX 33 41 2 -1
BITMAP
000C000000
003FF80000
003FF80000
003FF80000
0000F00000
0000000000
0000000000
0000000000
0007E00000
003FFE0000
01FFFF8000
03FFFFC000
07FFFFF000
0FFE3FF800
1FE007FC00
3FC001FC00
3F0000FE00
7E00007E00
7E00003F00
FC00003F00
FC00001F00
F800001F80
F800001F80
F800001F80
F800001F80
F800001F80
F800001F80
F800001F80
FC00001F00
FC00003F00
7E00003F00
7F00007E00
3F0000FE00
3FC001FC00
1FF007FC00
0FFFFFF800
07FFFFF000
03FFFFC000
00FFFF8000
003FFE0000
0003C00000
ENDCHAR
STARTCHAR 00D6
ENCODING 214
SWIDTH 810 0
DWIDTH 36 0
BBX 33 41 2 -1
BITMAP
007C0F0000
00FC1F8000
00FE3F8000
00FE3F8000
00FE3F8000
00FC1F8000
00380E0000
0000000000
0007E00000
003FFE0000
01FFFF8000
03FFFFC000
07FFFFF000
0FFE3FF800
1FE007FC00
3FC001FC00
3F0000FE00
7E00007E00
7E00003F00
FC00003F00
FC00001F00
F800001F80
F800001F80
F800001F80
F800001F80
F800001F80
F800001F80
F800001F80
FC00001F00
FC00003F00
7E00003F00
7F00007E00
3F0000FE00
3FC001FC00
1FF007FC00
0FFFFFF800
07FFFFF000
03FFFFC000
00FFFF8000
003FFE0000
0003C00000
ENDCHAR
STARTCHAR 00D7
ENCODING 215
SWIDTH 517 0
DWIDTH 23 0
BBX 18 19 3 5
BITMAP
200100
700380
F807C0
FC0FC0
7E1F80
3F3F00
1FFE00
0FFC00
07F800
03F000
07F800
0FFC00
1FFE00
3F3F00
7E1F80
FC0FC0
F807C0
700380
200100
ENDCHAR
STARTCHAR 00D8
ENCODING 216
SWIDTH 787 0
DWIDTH 35 0
BBX 34 34 1 -2
BITMAP
0000000400
0003F00E00
003FFF1F00
00FFFFFE00
01FFFFFC00
07FFFFFC00
0FFF3FF800
1FF003FC00
1FC003FE00
3F8007FE00
3F000FBF00
7E001F3F00
7E003F1F80
7C003E1F80
FC007C0F80
FC00F80F80
FC01F00FC0
FC03E00FC0
FC07C00F80
FC0F800F80
FC1F800F80
7C1F001F80
7E3E001F80
7E7C003F00
3FF8007F00
3FF0007E00
1FE001FE00
0FF007FC00
0FFFFFF800
0FFFFFF000
1FFFFFE000
3EFFFF8000
3C3FFE0000
1801C00000
ENDCHAR
STARTCHAR 00D9
ENCODING 217
SWIDTH 517 0
DWIDTH 23 0
BBX 20 41 2 -1
BITMAP
078000
07C000
03C000
01E000
00E000
00F000
000000
000000
000000
FC03F0
FC03F0
FC03F0
FC03F0
FC03F0
FC03F0
FC03F0
FC03F0
FC03F0
FC03F0
FC03F0
FC03F0
FC03F0
FC03F0
FC03F0
FC03F0
FC03F0
FC03F0
FC03F0
FC03F0
FC03F0
FC03E0
FC03E0
FC03E0
FC07E0
7E0FE0
7FFFC0
3FFFC0
3FFF80
1FFF00
07FE00
00F000
ENDCHAR
STARTCHAR 00DA
ENCODING 218
SWIDTH 517 0
DWIDTH 23 0
BBX 20 41 2 -1
BITMAP
001E00
003C00
003800
007800
007000
00E000
000000
000000
000000
FC03F0
FC03F0
FC03F0
FC03F0
FC03F0
FC03F0
FC03F0
FC03F0
FC03F0
FC03F0
FC03F0
FC03F0
FC03F0
FC03F0
FC03F0
FC03F0
FC03F0
FC03F0
FC03F0
FC03F0
FC03F0
FC03E0
FC03E0
FC03E0
FC07E0
7E0FE0
7FFFC0
3FFFC0
3FFF80
1FFF00
07FE00
00F000
ENDCHAR
STARTCHAR 00DB
ENCODING 219
SWIDTH 517 0
DWIDTH 23 0
BBX 20 41 2 -1
BITMAP
01F800
03F800
07FC00
07BE00
0F1F00
1F0F00
000000
000000
000000
FC03F0
FC03F0
FC03F0
FC03F0
FC03F0
FC03F0
FC03F0
FC03F0
FC03F0
FC03F0
FC03F0
FC03F0
FC03F0
FC03F0
FC03F0
FC03F0
FC03F0
FC03F0
FC03F0
FC03F0
FC03F0
FC03E0
FC03E0
FC03E0
FC07E0
7E0FE0
7FFFC0
3FFFC0
3FFF80
1FFF00
07FE00
00F000
ENDCHAR
STARTCHAR 00DC
ENCODING 220
SWIDTH 517 0
DWIDTH 23 0
BBX 20 41 2 -1
BITMAP
1E07C0
3F0FC0
7F0FE0
7F0FE0
7F0FE0
3F0FC0
1C0380
000000
000000
FC03F0
FC03F0
FC03F0
FC03F0
FC03F0
FC03F0
FC03F0
FC03F0
FC03F0
FC03F0
FC03F0
FC03F0
FC03F0
FC03F0
FC03F0
FC03F0
FC03F0
FC03F0
FC03F0
FC03F0
FC03F0
FC03E0
FC03E0
FC03E0
FC07E0
7E0FE0
7FFFC0
3FFFC0
3FFF80
1FFF00
07FE00
00F000
ENDCHAR
STARTCHAR 00DD
ENCODING 221
SWIDTH 517 0
DWIDTH 23 0
BBX 19 40 2 0
BITMAP
003E00
003C00
007800
007000
00F000
00E000
000000
000000
000000
F803E0
F803E0
F803E0
F803E0
F803E0
F803E0
F803E0
F803E0
F803E0
F803E0
F803E0
F803E0
F803E0
F803E0
F803E0
FC07E0
FC07E0
FE0FE0
7F1FC0
7FFFC0
3FFF80
1FFF00
0FFE00
01F000
01F000
01F000
01F000
01F000
01F000
01F000
01F000
ENDCHAR
STARTCHAR 00E0
ENCODING 224
SWIDTH 562 0
DWIDTH 25 0
BBX 23 40 2 0
BITMAP
078000
03C000
03C000
01E000
00E000
007000
000000
000000
00F000
07FE00
0FFF00
1FFF80
3FFFC0
7F9FE0
7E07E0
7C07E0
FC03F0
FC03F0
FC03F0
FC03F0
FC03F0
FC03F0
FC03F0
FC03F0
FC03F0
FC03F0
FC03F0
FC03F0
FC03F0
FC03F0
FC03F0
FC03F0
FC03F0
FC03F0
FC03F0
FFFFFE
FFFFFE
FFFFFE
FFFFFE
FFFFFE
ENDCHAR
STARTCHAR 00E1
ENCODING 225
SWIDTH 562 0
DWIDTH 25 0
BBX 23 40 2 0
BITMAP
001E00
003C00
003C00
007800
007000
00E000
000000
000000
00F000
07FE00
0FFF00
1FFF80
3FFFC0
7F9FE0
7E07E0
7C07E0
FC03F0
FC03F0
FC03F0
FC03F0
FC03F0
FC03F0
FC03F0
FC03F0
FC03F0
FC03F0
FC03F0
FC03F0
FC03F0
FC03F0
FC03F0
FC03F0
FC03F0
FC03F0
FC03F0
FFFFFE
FFFFFE
FFFFFE
FFFFFE
FFFFFE
ENDCHAR
STARTCHAR 00E2
ENCODING 226
SWIDTH 562 0
DWIDTH 25 0
BBX 23 40 2 0
BITMAP
01F800
03FC00
03FC00
079E00
0F9F00
1F0F80
000000
000000
00F000
07FE00
0FFF00
1FFF80
3FFFC0
7F9FE0
7E07E0
7C07E0
FC03F0
FC03F0
FC03F0
FC03F0
FC03F0
FC03F0
FC03F0
FC03F0
FC03F0
FC03F0
FC03F0
FC03F0
FC03F0
FC03F0
FC03F0
FC03F0
FC03F0
FC03F0
FC03F0
FFFFFE
FFFFFE
FFFFFE
FFFFFE
FFFFFE
ENDCHAR
STARTCHAR 00E3
ENCODING 227
SWIDTH 562 0
DWIDTH 25 0
BBX 23 40 2 0
BITMAP
030000
0FFE00
0FFE00
0FFE00
003C00
000000
000000
000000
00F000
07FE00
0FFF00
1FFF80
3FFFC0
7F9FE0
7E07E0
7C07E0
FC03F0
FC03F0
FC03F0
FC03F0
FC03F0
FC03F0
FC03F0
FC03F0
FC03F0
FC03F0
FC03F0
FC03F0
FC03F0
FC03F0
FC03F0
FC03F0
FC03F0
FC03F0
FC03F0
FFFFFE
FFFFFE
FFFFFE
FFFFFE
FFFFFE
ENDCHAR
STARTCHAR 00E4
ENCODING 228
SWIDTH 562 0
DWIDTH 25 0
BBX 23 40 2 0
BITMAP
1E07C0
3F0FE0
7F8FE0
7F8FE0
3F0FE0
3F07C0
1E0380
000000
00F000
07FE00
0FFF00
1FFF80
3FFFC0
7F9FE0
7E07E0
7C07E0
FC03F0
FC03F0
FC03F0
FC03F0
FC03F0
FC03F0
FC03F0
FC03F0
FC03F0
FC03F0
FC03F0
FC03F0
FC03F0
FC03F0
FC03F0
FC03F0
FC03F0
FC03F0
FC03F0
FFFFFE
FFFFFE
FFFFFE
FFFFFE
FFFFFE
ENDCHAR
STARTCHAR 00E5
ENCODING 229
SWIDTH 562 0
DWIDTH 25 0
BBX 23 43 2 0
BITMAP
006000
01F800
03FC00
030C00
070E00
070C00
039C00
03FC00
01F800
000000
000000
00F000
07FE00
0FFF00
1FFF80
3FFFC0
7F9FE0
7E07E0
7C07E0
FC03F0
FC03F0
FC03F0
FC03F0
FC03F0
FC03F0
FC03F0
FC03F0
FC03F0
FC03F0
FC03F0
FC03F0
FC03F0
FC03F0
FC03F0
FC03F0
FC03F0
FC03F0
FC03F0
FFFFFE
FFFFFE
FFFFFE
FFFFFE
FFFFFE
ENDCHAR
STARTCHAR 00E7
ENCODING 231
SWIDTH 675 0
DWIDTH 30 0
BBX 28 42 2 -10
BITMAP
0007E000
007FFE00
01FFFF80
03FFFFC0
07FFFFE0
0FFE7FF0
1FE007E0
3FC003C0
3F000180
7E000000
7E000000
FC000000
FC000000
F8000000
F8000000
F8000000
F8000000
F8000000
F8000000
F8000000
FC000000
FC000000
7E000000
7F000000
3F000180
3FC003C0
1FE00FE0
0FFFFFF0
07FFFFE0
03FFFFC0
00FFFF00
003FFC00
0003C000
00070000
00078000
0001C000
0000E000
0030E000
0079E000
007FC000
003FC000
000F0000
ENDCHAR
STARTCHAR 00E8
ENCODING 232
SWIDTH 495 0
DWIDTH 22 0
BBX 21 40 1 0
BITMAP
078000
078000
03C000
01C000
01E000
00E000
000000
000000
000000
1FFF00
1FFF00
1FFF00
1FFF00
1FFF00
1F8000
1F8000
1F8000
1F8000
1F8000
1F8000
1F8000
1F8000
FFFFC0
FFFFC0
FFFFC0
FFFFC0
FFFFC0
1F8000
1F8000
1F8000
1F8000
1F8000
1F8000
1F8000
1F8000
1FFFF8
1FFFF8
1FFFF8
1FFFF8
1FFFF8
ENDCHAR
STARTCHAR 00E9
ENCODING 233
SWIDTH 495 0
DWIDTH 22 0
BBX 21 40 1 0
BITMAP
003E00
003C00
007800
007000
00F000
00E000
000000
000000
000000
1FFF00
1FFF00
1FFF00
1FFF00
1FFF00
1F8000
1F8000
1F8000
1F8000
1F8000
1F8000
1F8000
1F8000
FFFFC0
FFFFC0
FFFFC0
FFFFC0
FFFFC0
1F8000
1F8000
1F8000
1F8000
1F8000
1F8000
1F8000
1F8000
1FFFF8
1FFFF8
1FFFF8
1FFFF8
1FFFF8
ENDCHAR
STARTCHAR 00EA
ENCODING 234
SWIDTH 495 0
DWIDTH 22 0
BBX 21 40 1 0
BITMAP
01F800
03F800
07FC00
0FBE00
0F1E00
1E0F00
000000
000000
000000
1FFF00
1FFF00
1FFF00
1FFF00
1FFF00
1F8000
1F8000
1F8000
1F8000
1F8000
1F8000
1F8000
1F8000
FFFFC0
FFFFC0
FFFFC0
FFFFC0
FFFFC0
1F8000
1F8000
1F8000
1F8000
1F8000
1F8000
1F8000
1F8000
1FFFF8
1FFFF8
1FFFF8
1FFFF8
1FFFF8
ENDCHAR
STARTCHAR 00EB
ENCODING 235
SWIDTH 495 0
DWIDTH 22 0
BBX 21 40 1 0
BITMAP
3E0780
7F0FC0
7F1FE0
7F1FE0
7F0FC0
3E0FC0
1C0780
000000
000000
1FFF00
1FFF00
1FFF00
1FFF00
1FFF00
1F8000
1F8000
1F8000
1F8000
1F8000
1F8000
1F8000
1F8000
FFFFC0
FFFFC0
FFFFC0
FFFFC0
FFFFC0
1F8000
1F8000
1F8000
1F8000
1F8000
1F8000
1F8000
1F8000
1FFFF8
1FFFF8
1FFFF8
1FFFF8
1FFFF8
ENDCHAR
STARTCHAR 00EC
ENCODING 236
SWIDTH 225 0
DWIDTH 10 0
BBX 8 28 0 0
BITMAP
F8
78
3C
3C
1E
0E
00
00
00
3F
3F
3F
3F
3F
3F
3F
3F
3F
3F
3F
3F
3F
3F
3F
3F
3F
3F
3F
ENDCHAR
STARTCHAR 00ED
ENCODING 237
SWIDTH 225 0
DWIDTH 10 0
BBX 8 28 2 0
BITMAP
0F
0F
1E
3C
38
78
00
00
00
FC
FC
FC
FC
FC
FC
FC
FC
FC
FC
FC
FC
FC
FC
FC
FC
FC
FC
FC
ENDCHAR
STARTCHAR 00EE
ENCODING 238
SWIDTH 225 0
DWIDTH 10 0
BBX 13 28 -1 0
BITMAP
1F80
1FC0
3FE0
7DE0
F8F0
F0F8
0000
0000
0000
1F80
1F80
1F80
1F80
1F80
1F80
1F80
1F80
1F80
1F80
1F80
1F80
1F80
1F80
1F80
1F80
1F80
1F80
1F80
ENDCHAR
STARTCHAR 00EF
ENCODING 239
SWIDTH 225 0
DWIDTH 10 0
BBX 17 28 -3 0
BITMAP
781F00
FC1F80
FE3F80
FE3F80
FE3F80
FC1F00
380E00
000000
000000
07E000
07E000
07E000
07E000
07E000
07E000
07E000
07E000
07E000
07E000
07E000
07E000
07E000
07E000
07E000
07E000
07E000
07E000
07E000
ENDCHAR
STARTCHAR 00F1
ENCODING 241
SWIDTH 540 0
DWIDTH 24 0
BBX 21 40 1 0
BITMAP
018000
07FF00
07FF00
07FF00
001E00
000000
000000
000000
100000
3800F8
7C00F8
FF00F8
FF80F8
7FC0F8
3FE0F8
3FF8F8
3FFCF8
3FFEF8
3FFFF8
3F7FF8
3F3FF8
3F0FF8
3F07F8
3F03F8
3F01F8
3F00F8
3F00F8
3F00F8
3F00F8
3F00F8
3F00F8
3F00F8
3F00F8
3F00F8
3F00F8
3F00F8
3F00F8
3F00F8
3F00F8
3F00F8
ENDCHAR
STARTCHAR 00F2
ENCODING 242
SWIDTH 810 0
DWIDTH 36 0
BBX 33 41 2 -1
BITMAP
001F000000
000F000000
0007800000
0007800000
0003C00000
0001C00000
0000000000
0000000000
0007E00000
003FFE0000
01FFFF8000
03FFFFC000
07FFFFF000
0FFE3FF800
1FE007FC00
3FC001FC00
3F0000FE00
7E00007E00
7E00003F00
FC00003F00
FC00001F00
F800001F80
F800001F80
F800001F80
F800001F80
F800001F80
F800001F80
F800001F80
FC00001F00
FC00003F00
7E00003F00
7F00007E00
3F0000FE00
3FC001FC00
1FF007FC00
0FFFFFF800
07FFFFF000
03FFFFC000
00FFFF8000
003FFE0000
0003C00000
ENDCHAR
STARTCHAR 00F3
ENCODING 243
SWIDTH 810 0
DWIDTH 36 0
BBX 33 41 2 -1
BITMAP
0000780000
0000780000
0000F00000
0000E00000
0001C00000
0001C00000
0000000000
0000000000
0007E00000
003FFE0000
01FFFF8000
03FFFFC000
07FFFFF000
0FFE3FF800
1FE007FC00
3FC001FC00
3F0000FE00
7E00007E00
7E00003F00
FC00003F00
FC00001F00
F800001F80
F800001F80
F800001F80
F800001F80
F800001F80
F800001F80
F800001F80
FC00001F00
FC00003F00
7E00003F00
7F00007E00
3F0000FE00
3FC001FC00
1FF007FC00
0FFFFFF800
07FFFFF000
03FFFFC000
00FFFF8000
003FFE0000
0003C00000
ENDCHAR
STARTCHAR 00F4
ENCODING 244
SWIDTH 810 0
DWIDTH 36 0
BBX 33 41 2 -1
BITMAP
0007E00000
0007F00000
000FF80000
001F780000
003E3C0000
003C3E0000
0000000000
0000000000
0007E00000
003FFE0000
01FFFF8000
03FFFFC000
07FFFFF000
0FFE3FF800
1FE007FC00
3FC001FC00
3F0000FE00
7E00007E00
7E00003F00
FC00003F00
FC00001F00
F800001F80
F800001F80
F800001F80
F800001F80
F800001F80
F800001F80
F800001F80
FC00001F00
FC00003F00
7E00003F00
7F00007E00
3F0000FE00
3FC001FC00
1FF007FC00
0FFFFFF800
07FFFFF000
03FFFFC000
00FFFF8000
003FFE0000
0003C00000
ENDCHAR
STARTCHAR 00F5
ENCODING 245
SWIDTH 810 0
DWIDTH 36 0
BBX 33 41 2 -1
BITMAP
000C000000
003FF80000
003FF80000
003FF80000
0000F00000
0000000000
0000000000
0000000000
0007E00000
003FFE0000
01FFFF8000
03FFFFC000
07FFFFF000
0FFE3FF800
1FE007FC00
3FC001FC00
3F0000FE00
7E00007E00
7E00003F00
FC00003F00
FC00001F00
F800001F80
F800001F80
F800001F80
F800001F80
F800001F80
F800001F80
F800001F80
FC00001F00
FC00003F00
7E00003F00
7F00007E00
3F0000FE00
3FC001FC00
1FF007FC00
0FFFFFF800
07FFFFF000
03FFFFC000
00FFFF8000
003FFE0000
0003C00000
ENDCHAR
STARTCHAR 00F6
ENCODING 246
SWIDTH 810 0
DWIDTH 36 0
BBX 33 41 2 -1
BITMAP
007C0F0000
00FC1F8000
00FE3F8000
00FE3F8000
00FE3F8000
00FC1F8000
00380E0000
0000000000
0007E00000
003FFE0000
01FFFF8000
03FFFFC000
07FFFFF000
0FFE3FF800
1FE007FC00
3FC001FC00
3F0000FE00
7E00007E00
7E00003F00
FC00003F00
FC00001F00
F800001F80
F800001F80
F800001F80
F800001F80
F800001F80
F800001F80
F800001F80
FC00001F00
FC00003F00
7E00003F00
7F00007E00
3F0000FE00
3FC001FC00
1FF007FC00
0FFFFFF800
07FFFFF000
03FFFFC000
00FFFF8000
003FFE0000
0003C00000
ENDCHAR
STARTCHAR 00F7
ENCODING 247
SWIDTH 562 0
DWIDTH 25 0
BBX 21 21 2 4
BITMAP
007000
00F800
00FC00
00FC00
00FC00
007800
000000
000000
000000
FFFFF8
FFFFF8
FFFFF8
FFFFF8
000000
000000
007000
00F800
00FC00
00FC00
00FC00
007800
ENDCHAR
STARTCHAR 00F8
ENCODING 248
SWIDTH 787 0
DWIDTH 35 0
BBX 34 34 1 -2
BITMAP
0000000400
0003F00E00
003FFF1F00
00FFFFFE00
01FFFFFC00
07FFFFFC00
0FFF3FF800
1FF003FC00
1FC003FE00
3F8007FE00
3F000FBF00
7E001F3F00
7E003F1F80
7C003E1F80
FC007C0F80
FC00F80F80
FC01F00FC0
FC03E00FC0
FC07C00F80
FC0F800F80
FC1F800F80
7C1F001F80
7E3E001F80
7E7C003F00
3FF8007F00
3FF0007E00
1FE001FE00
0FF007FC00
0FFFFFF800
0FFFFFF000
1FFFFFE000
3EFFFF8000
3C3FFE0000
1801C00000
ENDCHAR
STARTCHAR 00F9
ENCODING 249
SWIDTH 517 0
DWIDTH 23 0
BBX 20 41 2 -1
BITMAP
078000
07C000
03C000
01E000
00E000
00F000
000000
000000
000000
FC03F0
FC03F0
FC03F0
FC03F0
FC03F0
FC03F0
FC03F0
FC03F0
FC03F0
FC03F0
FC03F0
FC03F0
FC03F0
FC03F0
FC03F0
FC03F0
FC03F0
FC03F0
FC03F0
FC03F0
FC03F0
FC03E0
FC03E0
FC03E0
FC07E0
7E0FE0
7FFFC0
3FFFC0
3FFF80
1FFF00
07FE00
00F000
ENDCHAR
STARTCHAR 00FA
ENCODING 250
SWIDTH 517 0
DWIDTH 23 0
BBX 20 41 2 -1
BITMAP
001E00
003C00
003800
007800
007000
00E000
000000
000000
000000
FC03F0
FC03F0
FC03F0
FC03F0
FC03F0
FC03F0
FC03F0
FC03F0
FC03F0
FC03F0
FC03F0
FC03F0
FC03F0
FC03F0
FC03F0
FC03F0
FC03F0
FC03F0
FC03F0
FC03F0
FC03F0
FC03E0
FC03E0
FC03E0
FC07E0
7E0FE0
7FFFC0
3FFFC0
3FFF80
1FFF00
07FE00
00F000
ENDCHAR
STARTCHAR 00FB
ENCODING 251
SWIDTH 517 0
DWIDTH 23 0
BBX 20 41 2 -1
BITMAP
01F800
03F800
07FC00
07BE00
0F1F00
1F0F00
000000
000000
000000
FC03F0
FC03F0
FC03F0
FC03F0
FC03F0
FC03F0
FC03F0
FC03F0
FC03F0
FC03F0
FC03F0
FC03F0
FC03F0
FC03F0
FC03F0
FC03F0
FC03F0
FC03F0
FC03F0
FC03F0
FC03F0
FC03E0
FC03E0
FC03E0
FC07E0
7E0FE0
7FFFC0
3FFFC0
3FFF80
1FFF00
07FE00
00F000
ENDCHAR
STARTCHAR 00FC
ENCODING 252
SWIDTH 517 0
DWIDTH 23 0
BBX 20 41 2 -1
BITMAP
1E07C0
3F0FC0
7F0FE0
7F0FE0
7F0FE0
3F0FC0
1C0380
000000
000000
FC03F0
FC03F0
FC03F0
FC03F0
FC03F0
FC03F0
FC03F0
FC03F0
FC03F0
FC03F0
FC03F0
FC03F0
FC03F0
FC03F0
FC03F0
FC03F0
FC03F0
FC03F0
FC03F0
FC03F0
FC03F0
FC03E0
FC03E0
FC03E0
FC07E0
7E0FE0
7FFFC0
3FFFC0
3FFF80
1FFF00
07FE00
00F000
ENDCHAR
STARTCHAR 00FD
ENCODING 253
SWIDTH 517 0
DWIDTH 23 0
BBX 19 40 2 0
BITMAP
003E00
003C00
007800
007000
00F000
00E000
000000
000000
000000
F803E0
F803E0
F803E0
F803E0
F803E0
F803E0
F803E0
F803E0
F803E0
F803E0
F803E0
F803E0
F803E0
F803E0
F803E0
FC07E0
FC07E0
FE0FE0
7F1FC0
7FFFC0
3FFF80
1FFF00
0FFE00
01F000
01F000
01F000
01F000
01F000
01F000
01F000
01F000
ENDCHAR
STARTCHAR 00FF
ENCODING 255
SWIDTH 517 0
DWIDTH 23 0
BBX 19 40 2 0
BITMAP
3E0780
7F0FC0
7F1FE0
7F1FE0
7F0FC0
3E0FC0
1C0780
000000
000000
F803E0
F803E0
F803E0
F803E0
F803E0
F803E0
F803E0
F803E0
F803E0
F803E0
F803E0
F803E0
F803E0
F803E0
F803E0
FC07E0
FC07E0
FE0FE0
7F1FC0
7FFFC0
3FFF80
1FFF00
0FFE00
01F000
01F000
01F000
01F000
01F000
01F000
01F000
01F000
ENDCHAR
STARTCHAR 0100
ENCODING 256
SWIDTH 562 0
DWIDTH 25 0
BBX 23 39 2 0
BITMAP
0FFF00
0FFF00
0FFF00
0FFF00
000000
000000
000000
00F000
07FE00
0FFF00
1FFF80
3FFFC0
7F9FE0
7E07E0
7C07E0
FC03F0
FC03F0
FC03F0
FC03F0
FC03F0
FC03F0
FC03F0
FC03F0
FC03F0
FC03F0
FC03F0
FC03F0
FC03F0
FC03F0
FC03F0
FC03F0
FC03F0
FC03F0
FC03F0
FFFFFE
FFFFFE
FFFFFE
FFFFFE
FFFFFE
ENDCHAR
STARTCHAR 0101
ENCODING 257
SWIDTH 562 0
DWIDTH 25 0
BBX 23 39 2 0
BITMAP
0FFF00
0FFF00
0FFF00
0FFF00
000000
000000
000000
00F000
07FE00
0FFF00
1FFF80
3FFFC0
7F9FE0
7E07E0
7C07E0
FC03F0
FC03F0
FC03F0
FC03F0
FC03F0
FC03F0
FC03F0
FC03F0
FC03F0
FC03F0
FC03F0
FC03F0
FC03F0
FC03F0
FC03F0
FC03F0
FC03F0
FC03F0
FC03F0
FFFFFE
FFFFFE
FFFFFE
FFFFFE
FFFFFE
ENDCHAR
STARTCHAR 0102
ENCODING 258
SWIDTH 562 0
DWIDTH 25 0
BBX 23 40 2 0
BITMAP
0E0700
0E0700
0F0F00
07FE00
07FC00
01F800
000000
000000
00F000
07FE00
0FFF00
1FFF80
3FFFC0
7F9FE0
7E07E0
7C07E0
FC03F0
FC03F0
FC03F0
FC03F0
FC03F0
FC03F0
FC03F0
FC03F0
FC03F0
FC03F0
FC03F0
FC03F0
FC03F0
FC03F0
FC03F0
FC03F0
FC03F0
FC03F0
FC03F0
FFFFFE
FFFFFE
FFFFFE
FFFFFE
FFFFFE
ENDCHAR
STARTCHAR 0103
ENCODING 259
SWIDTH 562 0
DWIDTH 25 0
BBX 23 40 2 0
BITMAP
0E0700
0E0700
0F0F00
07FE00
07FC00
01F800
000000
000000
00F000
07FE00
0FFF00
1FFF80
3FFFC0
7F9FE0
7E07E0
7C07E0
FC03F0
FC03F0
FC03F0
FC03F0
FC03F0
FC03F0
FC03F0
FC03F0
FC03F0
FC03F0
FC03F0
FC03F0
FC03F0
FC03F0
FC03F0
FC03F0
FC03F0
FC03F0
FC03F0
FFFFFE
FFFFFE
FFFFFE
FFFFFE
FFFFFE
ENDCHAR
STARTCHAR 0104
ENCODING 260
SWIDTH 562 0
DWIDTH 25 0
BBX 25 41 2 -9
BITMAP
00F00000
07FE0000
0FFF0000
1FFF8000
3FFFC000
7F9FE000
7E07E000
7C07E000
FC03F000
FC03F000
FC03F000
FC03F000
FC03F000
FC03F000
FC03F000
FC03F000
FC03F000
FC03F000
FC03F000
FC03F000
FC03F000
FC03F000
FC03F000
FC03F000
FC03F000
FC03F000
FC03F000
FFFFFE00
FFFFFE00
FFFFFE00
FFFFFE00
FFFFFE00
00007800
0000E000
0001C000
0001C000
0001C200
0001E700
0001FF80
0000FE00
00003800
ENDCHAR
STARTCHAR 0105
ENCODING 261
SWIDTH 562 0
DWIDTH 25 0
BBX 25 41 2 -9
BITMAP
00F00000
07FE0000
0FFF0000
1FFF8000
3FFFC000
7F9FE000
7E07E000
7C07E000
FC03F000
FC03F000
FC03F000
FC03F000
FC03F000
FC03F000
FC03F000
FC03F000
FC03F000
FC03F000
FC03F000
FC03F000
FC03F000
FC03F000
FC03F000
FC03F000
FC03F000
FC03F000
FC03F000
FFFFFE00
FFFFFE00
FFFFFE00
FFFFFE00
FFFFFE00
00007800
0000E000
0001C000
0001C000
0001C200
0001E700
0001FF80
0000FE00
00003800
ENDCHAR
STARTCHAR 0106
ENCODING 262
SWIDTH 675 0
DWIDTH 30 0
BBX 28 41 2 -1
BITMAP
00007800
0000F000
0000F000
0001E000
0001C000
00038000
00000000
00000000
0007E000
007FFE00
01FFFF80
03FFFFC0
07FFFFE0
0FFE7FF0
1FE007E0
3FC003C0
3F000180
7E000000
7E000000
FC000000
FC000000
F8000000
F8000000
F8000000
F8000000
F8000000
F8000000
F8000000
FC000000
FC000000
7E000000
7F000000
3F000180
3FC003C0
1FE00FE0
0FFFFFF0
07FFFFE0
03FFFFC0
00FFFF00
003FFC00
0003C000
ENDCHAR
STARTCHAR 0107
ENCODING 263
SWIDTH 675 0
DWIDTH 30 0
BBX 28 41 2 -1
BITMAP
00007800
0000F000
0000F000
0001E000
0001C000
00038000
00000000
00000000
0007E000
007FFE00
01FFFF80
03FFFFC0
07FFFFE0
0FFE7FF0
1FE007E0
3FC003C0
3F000180
7E000000
7E000000
FC000000
FC000000
F8000000
F8000000
F8000000
F8000000
F8000000
F8000000
F8000000
FC000000
FC000000
7E000000
7F000000
3F000180
3FC003C0
1FE00FE0
0FFFFFF0
07FFFFE0
03FFFFC0
00FFFF00
003FFC00
0003C000
ENDCHAR
STARTCHAR 010A
ENCODING 266
SWIDTH 675 0
DWIDTH 30 0
BBX 28 42 2 -1
BITMAP
0003C000
0007E000
0007F000
0007F000
0007F000
0007E000
0003C000
00000000
00000000
0007E000
007FFE00
01FFFF80
03FFFFC0
07FFFFE0
0FFE7FF0
1FE007E0
3FC003C0
3F000180
7E000000
7E000000
FC000000
FC000000
F8000000
F8000000
F8000000
F8000000
F8000000
F8000000
F8000000
FC000000
FC000000
7E000000
7F000000
3F000180
3FC003C0
1FE00FE0
0FFFFFF0
07FFFFE0
03FFFFC0
00FFFF00
003FFC00
0003C000
ENDCHAR
STARTCHAR 010B
ENCODING 267
SWIDTH 675 0
DWIDTH 30 0
BBX 28 42 2 -1
BITMAP
0003C000
0007E000
0007F000
0007F000
0007F000
0007E000
0003C000
00000000
00000000
0007E000
007FFE00
01FFFF80
03FFFFC0
07FFFFE0
0FFE7FF0
1FE007E0
3FC003C0
3F000180
7E000000
7E000000
FC000000
FC000000
F8000000
F8000000
F8000000
F8000000
F8000000
F8000000
F8000000
FC000000
FC000000
7E000000
7F000000
3F000180
3FC003C0
1FE00FE0
0FFFFFF0
07FFFFE0
03FFFFC0
00FFFF00
003FFC00
0003C000
ENDCHAR
STARTCHAR 010C
ENCODING 268
SWIDTH 675 0
DWIDTH 30 0
BBX 28 41 2 -1
BITMAP
007C3E00
003E7C00
001E7800
001FF000
000FF000
0007E000
00000000
00000000
0007E000
007FFE00
01FFFF80
03FFFFC0
07FFFFE0
0FFE7FF0
1FE007E0
3FC003C0
3F000180
7E000000
7E000000
FC000000
FC000000
F8000000
F8000000
F8000000
F8000000
F8000000
F8000000
F8000000
FC000000
FC000000
7E000000
7F000000
3F000180
3FC003C0
1FE00FE0
0FFFFFF0
07FFFFE0
03FFFFC0
00FFFF00
003FFC00
0003C000
ENDCHAR
STARTCHAR 010D
ENCODING 269
SWIDTH 675 0
DWIDTH 30 0
BBX 28 41 2 -1
BITMAP
007C3E00
003E7C00
001E7800
001FF000
000FF000
0007E000
00000000
00000000
0007E000
007FFE00
01FFFF80
03FFFFC0
07FFFFE0
0FFE7FF0
1FE007E0
3FC003C0
3F000180
7E000000
7E000000
FC000000
FC000000
F8000000
F8000000
F8000000
F8000000
F8000000
F8000000
F8000000
FC000000
FC000000
7E000000
7F000000
3F000180
3FC003C0
1FE00FE0
0FFFFFF0
07FFFFE0
03FFFFC0
00FFFF00
003FFC00
0003C000
ENDCHAR
STARTCHAR 010E
ENCODING 270
SWIDTH 652 0
DWIDTH 29 0
BBX 26 40 2 0
BITMAP
0F078000
078F0000
07DF0000
03FE0000
01FC0000
00FC0000
00000000
00000000
00000000
FFFE0000
FFFFC000
FFFFF000
FFFFF800
FFFFFC00
FC07FE00
FC00FF00
FC007F00
FC003F80
FC001F80
FC000FC0
FC000FC0
FC000FC0
FC0007C0
FC0007C0
FC0007C0
FC0007C0
FC0007C0
FC000FC0
FC000FC0
FC000FC0
FC001F80
FC003F80
FC007F00
FC00FF00
FC0FFE00
FFFFFC00
FFFFF800
FFFFF000
FFFFC000
FFFE0000
ENDCHAR
STARTCHAR 010F
ENCODING 271
SWIDTH 652 0
DWIDTH 29 0
BBX 26 40 2 0
BITMAP
0F078000
078F0000
07DF0000
03FE0000
01FC0000
00FC0000
00000000
00000000
00000000
FFFE0000
FFFFC000
FFFFF000
FFFFF800
FFFFFC00
FC07FE00
FC00FF00
FC007F00
FC003F80
FC001F80
FC000FC0
FC000FC0
FC000FC0
FC0007C0
FC0007C0
FC0007C0
FC0007C0
FC0007C0
FC000FC0
FC000FC0
FC000FC0
FC001F80
FC003F80
FC007F00
FC00FF00
FC0FFE00
FFFFFC00
FFFFF800
FFFFF000
FFFFC000
FFFE0000
ENDCHAR
STARTCHAR 0110
ENCODING 272
SWIDTH 697 0
DWIDTH 31 0
BBX 29 31 1 0
BITMAP
1FFF8000
1FFFF000
1FFFFC00
1FFFFE00
1FFFFF80
1F00FF80
1F003FC0
1F000FE0
1F0007E0
1F0003F0
1F0003F0
1F0003F0
1F0001F0
FFFE01F8
FFFE01F8
FFFE01F8
FFFE01F8
FFFE01F8
1F0001F0
1F0003F0
1F0003F0
1F0007F0
1F0007E0
1F000FE0
1F003FC0
1F01FF80
1FFFFF00
1FFFFE00
1FFFFC00
1FFFF000
1FFF8000
ENDCHAR
STARTCHAR 0111
ENCODING 273
SWIDTH 697 0
DWIDTH 31 0
BBX 29 31 1 0
BITMAP
1FFF8000
1FFFF000
1FFFFC00
1FFFFE00
1FFFFF80
1F00FF80
1F003FC0
1F000FE0
1F0007E0
1F0003F0
1F0003F0
1F0003F0
1F0001F0
FFFE01F8
FFFE01F8
FFFE01F8
FFFE01F8
FFFE01F8
1F0001F0
1F0003F0
1F0003F0
1F0007F0
1F0007E0
1F000FE0
1F003FC0
1F01FF80
1FFFFF00
1FFFFE00
1FFFFC00
1FFFF000
1FFF8000
ENDCHAR
STARTCHAR 0112
ENCODING 274
SWIDTH 495 0
DWIDTH 22 0
BBX 21 39 1 0
BITMAP
1FFF00
1FFF00
1FFF00
1FFF00
000000
000000
000000
000000
1FFF00
1FFF00
1FFF00
1FFF00
1FFF00
1F8000
1F8000
1F8000
1F8000
1F8000
1F8000
1F8000
1F8000
FFFFC0
FFFFC0
FFFFC0
FFFFC0
FFFFC0
1F8000
1F8000
1F8000
1F8000
1F8000
1F8000
1F8000
1F8000
1FFFF8
1FFFF8
1FFFF8
1FFFF8
1FFFF8
ENDCHAR
STARTCHAR 0113
ENCODING 275
SWIDTH 495 0
DWIDTH 22 0
BBX 21 39 1 0
BITMAP
1FFF00
1FFF00
1FFF00
1FFF00
000000
000000
000000
000000
1FFF00
1FFF00
1FFF00
1FFF00
1FFF00
1F8000
1F8000
1F8000
1F8000
1F8000
1F8000
1F8000
1F8000
FFFFC0
FFFFC0
FFFFC0
FFFFC0
FFFFC0
1F8000
1F8000
1F8000
1F8000
1F8000
1F8000
1F8000
1F8000
1FFFF8
1FFFF8
1FFFF8
1FFFF8
1FFFF8
ENDCHAR
STARTCHAR 0116
ENCODING 278
SWIDTH 495 0
DWIDTH 22 0
BBX 21 41 1 0
BITMAP
00F000
01F800
03F800
03F800
03F800
01F800
00F000
000000
000000
000000
1FFF00
1FFF00
1FFF00
1FFF00
1FFF00
1F8000
1F8000
1F8000
1F8000
1F8000
1F8000
1F8000
1F8000
FFFFC0
FFFFC0
FFFFC0
FFFFC0
FFFFC0
1F8000
1F8000
1F8000
1F8000
1F8000
1F8000
1F8000
1F8000
1FFFF8
1FFFF8
1FFFF8
1FFFF8
1FFFF8
ENDCHAR
STARTCHAR 0117
ENCODING 279
SWIDTH 495 0
DWIDTH 22 0
BBX 21 41 1 0
BITMAP
00F000
01F800
03F800
03F800
03F800
01F800
00F000
000000
000000
000000
1FFF00
1FFF00
1FFF00
1FFF00
1FFF00
1F8000
1F8000
1F8000
1F8000
1F8000
1F8000
1F8000
1F8000
FFFFC0
FFFFC0
FFFFC0
FFFFC0
FFFFC0
1F8000
1F8000
1F8000
1F8000
1F8000
1F8000
1F8000
1F8000
1FFFF8
1FFFF8
1FFFF8
1FFFF8
1FFFF8
ENDCHAR
STARTCHAR 0118
ENCODING 280
SWIDTH 495 0
DWIDTH 22 0
BBX 23 40 1 -9
BITMAP
1FFF00
1FFF00
1FFF00
1FFF00
1FFF00
1F8000
1F8000
1F8000
1F8000
1F8000
1F8000
1F8000
1F8000
FFFFC0
FFFFC0
FFFFC0
FFFFC0
FFFFC0
1F8000
1F8000
1F8000
1F8000
1F8000
1F8000
1F8000
1F8000
1FFFF8
1FFFF8
1FFFF8
1FFFF8
1FFFF8
0000F0
0001C0
000380
000380
000380
00038E
0003FE
0001FC
000070
ENDCHAR
STARTCHAR 0119
ENCODING 281
SWIDTH 495 0
DWIDTH 22 0
BBX 23 40 1 -9
BITMAP
1FFF00
1FFF00
1FFF00
1FFF00
1FFF00
1F8000
1F8000
1F8000
1F8000
1F8000
1F8000
1F8000
1F8000
FFFFC0
FFFFC0
FFFFC0
FFFFC0
FFFFC0
1F8000
1F8000
1F8000
1F8000
1F8000
1F8000
1F8000
1F8000
1FFFF8
1FFFF8
1FFFF8
1FFFF8
1FFFF8
0000F0
0001C0
000380
000380
000380
00038E
0003FE
0001FC
000070
ENDCHAR
STARTCHAR 011A
ENCODING 282
SWIDTH 495 0
DWIDTH 22 0
BBX 21 40 1 0
BITMAP
1E0F00
0F1E00
0FBE00
07FC00
03F800
01F800
000000
000000
000000
1FFF00
1FFF00
1FFF00
1FFF00
1FFF00
1F8000
1F8000
1F8000
1F8000
1F8000
1F8000
1F8000
1F8000
FFFFC0
FFFFC0
FFFFC0
FFFFC0
FFFFC0
1F8000
1F8000
1F8000
1F8000
1F8000
1F8000
1F8000
1F8000
1FFFF8
1FFFF8
1FFFF8
1FFFF8
1FFFF8
ENDCHAR
STARTCHAR 011B
ENCODING 283
SWIDTH 495 0
DWIDTH 22 0
BBX 21 40 1 0
BITMAP
1E0F00
0F1E00
0FBE00
07FC00
03F800
01F800
000000
000000
000000
1FFF00
1FFF00
1FFF00
1FFF00
1FFF00
1F8000
1F8000
1F8000
1F8000
1F8000
1F8000
1F8000
1F8000
FFFFC0
FFFFC0
FFFFC0
FFFFC0
FFFFC0
1F8000
1F8000
1F8000
1F8000
1F8000
1F8000
1F8000
1F8000
1FFFF8
1FFFF8
1FFFF8
1FFFF8
1FFFF8
ENDCHAR
STARTCHAR 011E
ENCODING 286
SWIDTH 832 0
DWIDTH 37 0
BBX 35 41 2 -1
BITMAP
00381C0000
00381C0000
003C3C0000
001FF80000
001FF00000
0007E00000
0000000000
0000000000
0007E00000
003FFE0000
01FFFF8000
03FFFFC000
07FFFFE000
0FFE7FF000
1FE007E000
3FC001C000
3F00008000
7E00000000
7E00000000
FC00000000
FC00000000
F800000000
F801FFFFE0
F801FFFFE0
F801FFFFE0
F801FFFFE0
F801FFFFE0
F800003F00
FC00003F00
FC00007E00
7E00007E00
7F0000FE00
3F0001FC00
3FC003FC00
1FE007F800
0FFFFFF000
07FFFFE000
03FFFFC000
00FFFF8000
003FFC0000
0003C00000
ENDCHAR
STARTCHAR 011F
ENCODING 287
SWIDTH 832 0
DWIDTH 37 0
BBX 35 41 2 -1
BITMAP
00381C0000
00381C0000
003C3C0000
001FF80000
001FF00000
0007E00000
0000000000
0000000000
0007E00000
003FFE0000
01FFFF8000
03FFFFC000
07FFFFE000
0FFE7FF000
1FE007E000
3FC001C000
3F00008000
7E00000000
7E00000000
FC00000000
FC00000000
F800000000
F801FFFFE0
F801FFFFE0
F801FFFFE0
F801FFFFE0
F801FFFFE0
F800003F00
FC00003F00
FC00007E00
7E00007E00
7F0000FE00
3F0001FC00
3FC003FC00
1FE007F800
0FFFFFF000
07FFFFE000
03FFFFC000
00FFFF8000
003FFC0000
0003C00000
ENDCHAR
STARTCHAR 0120
ENCODING 288
SWIDTH 832 0
DWIDTH 37 0
BBX 35 42 2 -1
BITMAP
0003C00000
0007E00000
0007F00000
0007F00000
0007F00000
0007E00000
0003C00000
0000000000
0000000000
0007E00000
003FFE0000
01FFFF8000
03FFFFC000
07FFFFE000
0FFE7FF000
1FE007E000
3FC001C000
3F00008000
7E00000000
7E00000000
FC00000000
FC00000000
F800000000
F801FFFFE0
F801FFFFE0
F801FFFFE0
F801FFFFE0
F801FFFFE0
F800003F00
FC00003F00
FC00007E00
7E00007E00
7F0000FE00
3F0001FC00
3FC003FC00
1FE007F800
0FFFFFF000
07FFFFE000
03FFFFC000
00FFFF8000
003FFC0000
0003C00000
ENDCHAR
STARTCHAR 0121
ENCODING 289
SWIDTH 832 0
DWIDTH 37 0
BBX 35 42 2 -1
BITMAP
0003C00000
0007E00000
0007F00000
0007F00000
0007F00000
0007E00000
0003C00000
0000000000
0000000000
0007E00000
003FFE0000
01FFFF8000
03FFFFC000
07FFFFE000
0FFE7FF000
1FE007E000
3FC001C000
3F00008000
7E00000000
7E00000000
FC00000000
FC00000000
F800000000
F801FFFFE0
F801FFFFE0
F801FFFFE0
F801FFFFE0
F801FFFFE0
F800003F00
FC00003F00
FC00007E00
7E00007E00
7F0000FE00
3F0001FC00
3FC003FC00
1FE007F800
0FFFFFF000
07FFFFE000
03FFFFC000
00FFFF8000
003FFC0000
0003C00000
ENDCHAR
STARTCHAR 0124
ENCODING 292
SWIDTH 562 0
DWIDTH 25 0
BBX 22 40 1 0
BITMAP
003F00
007F00
00FF80
01F7C0
01E3E0
03C1E0
000000
000000
000000
1F807C
1F807C
1F807C
1F807C
1F807C
1F807C
1F807C
1F807C
1F807C
1F807C
1F807C
1F807C
1F807C
FFFFFC
FFFFFC
FFFFFC
FFFFFC
FFFFFC
1F807C
1F807C
1F807C
1F807C
1F807C
1F807C
1F807C
1F807C
1F807C
1F807C
1F807C
1F807C
1F807C
ENDCHAR
STARTCHAR 0125
ENCODING 293
SWIDTH 562 0
DWIDTH 25 0
BBX 22 40 1 0
BITMAP
003F00
007F00
00FF80
01F7C0
01E3E0
03C1E0
000000
000000
000000
1F807C
1F807C
1F807C
1F807C
1F807C
1F807C
1F807C
1F807C
1F807C
1F807C
1F807C
1F807C
1F807C
FFFFFC
FFFFFC
FFFFFC
FFFFFC
FFFFFC
1F807C
1F807C
1F807C
1F807C
1F807C
1F807C
1F807C
1F807C
1F807C
1F807C
1F807C
1F807C
1F807C
ENDCHAR
STARTCHAR 0128
ENCODING 296
SWIDTH 225 0
DWIDTH 10 0
BBX 11 28 -1 0
BITMAP
3000
FFE0
FFE0
FFE0
03C0
0000
0000
0000
0000
1F80
1F80
1F80
1F80
1F80
1F80
1F80
1F80
1F80
1F80
1F80
1F80
1F80
1F80
1F80
1F80
1F80
1F80
1F80
ENDCHAR
STARTCHAR 0129
ENCODING 297
SWIDTH 225 0
DWIDTH 10 0
BBX 11 28 -1 0
BITMAP
3000
FFE0
FFE0
FFE0
03C0
0000
0000
0000
0000
1F80
1F80
1F80
1F80
1F80
1F80
1F80
1F80
1F80
1F80
1F80
1F80
1F80
1F80
1F80
1F80
1F80
1F80
1F80
ENDCHAR
STARTCHAR 012A
ENCODING 298
SWIDTH 225 0
DWIDTH 10 0
BBX 13 27 -1 0
BITMAP
FFF8
FFF8
FFF8
FFF8
0000
0000
0000
0000
1F80
1F80
1F80
1F80
1F80
1F80
1F80
1F80
1F80
1F80
1F80
1F80
1F80
1F80
1F80
1F80
1F80
1F80
1F80
ENDCHAR
STARTCHAR 012B
ENCODING 299
SWIDTH 225 0
DWIDTH 10 0
BBX 13 27 -1 0
BITMAP
FFF8
FFF8
FFF8
FFF8
0000
0000
0000
0000
1F80
1F80
1F80
1F80
1F80
1F80
1F80
1F80
1F80
1F80
1F80
1F80
1F80
1F80
1F80
1F80
1F80
1F80
1F80
ENDCHAR
STARTCHAR 012E
ENCODING 302
SWIDTH 225 0
DWIDTH 10 0
BBX 12 44 -1 -8
BITMAP
0400
0600
0600
0F00
FFF0
7FE0
1F80
1F80
1F80
1980
30C0
0000
0000
0000
0000
0000
1F80
1F80
1F80
1F80
1F80
1F80
1F80
1F80
1F80
1F80
1F80
1F80
1F80
1F80
1F80
1F80
1F80
1F80
1F80
1E00
3800
7800
7000
7000
79C0
3FE0
3FC0
0600
ENDCHAR
STARTCHAR 012F
ENCODING 303
SWIDTH 225 0
DWIDTH 10 0
BBX 12 44 -1 -8
BITMAP
0400
0600
0600
0F00
FFF0
7FE0
1F80
1F80
1F80
1980
30C0
0000
0000
0000
0000
0000
1F80
1F80
1F80
1F80
1F80
1F80
1F80
1F80
1F80
1F80
1F80
1F80
1F80
1F80
1F80
1F80
1F80
1F80
1F80
1E00
3800
7800
7000
7000
79C0
3FE0
3FC0
0600
ENDCHAR
STARTCHAR 0130
ENCODING 304
SWIDTH 225 0
DWIDTH 10 0
BBX 7 29 2 0
BITMAP
7C
FE
FE
FE
FE
7C
38
00
00
00
FC
FC
FC
FC
FC
FC
FC
FC
FC
FC
FC
FC
FC
FC
FC
FC
FC
FC
FC
ENDCHAR
STARTCHAR 0139
ENCODING 313
SWIDTH 450 0
DWIDTH 20 0
BBX 17 40 2 0
BITMAP
0F0000
0F0000
1E0000
3C0000
380000
780000
000000
000000
000000
FC0000
FC0000
FC0000
FC0000
FC0000
FC0000
FC0000
FC0000
FC0000
FC0000
FC0000
FC0000
FC0000
FC0000
FC0000
FC0000
FC0000
FC0000
FC0000
FC0000
FC0000
FC0000
FC0000
FC0000
FC0000
FC0000
FFFF80
FFFF80
FFFF80
FFFF80
FFFF80
ENDCHAR
STARTCHAR 013A
ENCODING 314
SWIDTH 450 0
DWIDTH 20 0
BBX 17 40 2 0
BITMAP
0F0000
0F0000
1E0000
3C0000
380000
780000
000000
000000
000000
FC0000
FC0000
FC0000
FC0000
FC0000
FC0000
FC0000
FC0000
FC0000
FC0000
FC0000
FC0000
FC0000
FC0000
FC0000
FC0000
FC0000
FC0000
FC0000
FC0000
FC0000
FC0000
FC0000
FC0000
FC0000
FC0000
FFFF80
FFFF80
FFFF80
FFFF80
FFFF80
ENDCHAR
STARTCHAR 013D
ENCODING 317
SWIDTH 450 0
DWIDTH 20 0
BBX 20 40 -1 0
BITMAP
F0F800
F8F000
7DE000
3FE000
3FC000
1F8000
000000
000000
000000
1F8000
1F8000
1F8000
1F8000
1F8000
1F8000
1F8000
1F8000
1F8000
1F8000
1F8000
1F8000
1F8000
1F8000
1F8000
1F8000
1F8000
1F8000
1F8000
1F8000
1F8000
1F8000
1F8000
1F8000
1F8000
1F8000
1FFFF0
1FFFF0
1FFFF0
1FFFF0
1FFFF0
ENDCHAR
STARTCHAR 013E
ENCODING 318
SWIDTH 450 0
DWIDTH 20 0
BBX 20 40 -1 0
BITMAP
F0F800
F8F000
7DE000
3FE000
3FC000
1F8000
000000
000000
000000
1F8000
1F8000
1F8000
1F8000
1F8000
1F8000
1F8000
1F8000
1F8000
1F8000
1F8000
1F8000
1F8000
1F8000
1F8000
1F8000
1F8000
1F8000
1F8000
1F8000
1F8000
1F8000
1F8000
1F8000
1F8000
1F8000
1FFFF0
1FFFF0
1FFFF0
1FFFF0
1FFFF0
ENDCHAR
STARTCHAR 0141
ENCODING 321
SWIDTH 495 0
DWIDTH 22 0
BBX 21 31 1 0
BITMAP
0F8000
0F8000
0F8000
0F8000
0F8000
0F8000
0F8000
0F8000
0F8000
0F8000
0F8E00
0FBE00
0FFE00
0FF800
0FE000
1FC000
7F8000
FF8000
FF8000
4F8000
0F8000
0F8000
0F8000
0F8000
0F8000
0F8000
0FFFF8
0FFFF8
0FFFF8
0FFFF8
0FFFF8
ENDCHAR
STARTCHAR 0142
ENCODING 322
SWIDTH 495 0
DWIDTH 22 0
BBX 21 31 1 0
BITMAP
0F8000
0F8000
0F8000
0F8000
0F8000
0F8000
0F8000
0F8000
0F8000
0F8000
0F8E00
0FBE00
0FFE00
0FF800
0FE000
1FC000
7F8000
FF8000
FF8000
4F8000
0F8000
0F8000
0F8000
0F8000
0F8000
0F8000
0FFFF8
0FFFF8
0FFFF8
0FFFF8
0FFFF8
ENDCHAR
STARTCHAR 0143
ENCODING 323
SWIDTH 540 0
DWIDTH 24 0
BBX 21 40 1 0
BITMAP
000F00
000F00
001E00
001C00
003C00
003800
000000
000000
100000
3800F8
7C00F8
FF00F8
FF80F8
7FC0F8
3FE0F8
3FF8F8
3FFCF8
3FFEF8
3FFFF8
3F7FF8
3F3FF8
3F0FF8
3F07F8
3F03F8
3F01F8
3F00F8
3F00F8
3F00F8
3F00F8
3F00F8
3F00F8
3F00F8
3F00F8
3F00F8
3F00F8
3F00F8
3F00F8
3F00F8
3F00F8
3F00F8
ENDCHAR
STARTCHAR 0144
ENCODING 324
SWIDTH 540 0
DWIDTH 24 0
BBX 21 40 1 0
BITMAP
000F00
000F00
001E00
001C00
003C00
003800
000000
000000
100000
3800F8
7C00F8
FF00F8
FF80F8
7FC0F8
3FE0F8
3FF8F8
3FFCF8
3FFEF8
3FFFF8
3F7FF8
3F3FF8
3F0FF8
3F07F8
3F03F8
3F01F8
3F00F8
3F00F8
3F00F8
3F00F8
3F00F8
3F00F8
3F00F8
3F00F8
3F00F8
3F00F8
3F00F8
3F00F8
3F00F8
3F00F8
3F00F8
ENDCHAR
STARTCHAR 0147
ENCODING 327
SWIDTH 540 0
DWIDTH 24 0
BBX 21 40 1 0
BITMAP
0783C0
07C780
03EF80
01FF00
00FE00
00FC00
000000
000000
100000
3800F8
7C00F8
FF00F8
FF80F8
7FC0F8
3FE0F8
3FF8F8
3FFCF8
3FFEF8
3FFFF8
3F7FF8
3F3FF8
3F0FF8
3F07F8
3F03F8
3F01F8
3F00F8
3F00F8
3F00F8
3F00F8
3F00F8
3F00F8
3F00F8
3F00F8
3F00F8
3F00F8
3F00F8
3F00F8
3F00F8
3F00F8
3F00F8
ENDCHAR
STARTCHAR 0148
ENCODING 328
SWIDTH 540 0
DWIDTH 24 0
BBX 21 40 1 0
BITMAP
0783C0
07C780
03EF80
01FF00
00FE00
00FC00
000000
000000
100000
3800F8
7C00F8
FF00F8
FF80F8
7FC0F8
3FE0F8
3FF8F8
3FFCF8
3FFEF8
3FFFF8
3F7FF8
3F3FF8
3F0FF8
3F07F8
3F03F8
3F01F8
3F00F8
3F00F8
3F00F8
3F00F8
3F00F8
3F00F8
3F00F8
3F00F8
3F00F8
3F00F8
3F00F8
3F00F8
3F00F8
3F00F8
3F00F8
ENDCHAR
STARTCHAR 014C
ENCODING 332
SWIDTH 810 0
DWIDTH 36 0
BBX 33 40 2 -1
BITMAP
003FFE0000
003FFE0000
003FFE0000
003FFE0000
0000000000
0000000000
0000000000
0007E00000
003FFE0000
01FFFF8000
03FFFFC000
07FFFFF000
0FFE3FF800
1FE007FC00
3FC001FC00
3F0000FE00
7E00007E00
7E00003F00
FC00003F00
FC00001F00
F800001F80
F800001F80
F800001F80
F800001F80
F800001F80
F800001F80
F800001F80
FC00001F00
FC00003F00
7E00003F00
7F00007E00
3F0000FE00
3FC001FC00
1FF007FC00
0FFFFFF800
07FFFFF000
03FFFFC000
00FFFF8000
003FFE0000
0003C00000
ENDCHAR
STARTCHAR 014D
ENCODING 333
SWIDTH 810 0
DWIDTH 36 0
BBX 33 40 2 -1
BITMAP
003FFE0000
003FFE0000
003FFE0000
003FFE0000
0000000000
0000000000
0000000000
0007E00000
003FFE0000
01FFFF8000
03FFFFC000
07FFFFF000
0FFE3FF800
1FE007FC00
3FC001FC00
3F0000FE00
7E00007E00
7E00003F00
FC00003F00
FC00001F00
F800001F80
F800001F80
F800001F80
F800001F80
F800001F80
F800001F80
F800001F80
FC00001F00
FC00003F00
7E00003F00
7F00007E00
3F0000FE00
3FC001FC00
1FF007FC00
0FFFFFF800
07FFFFF000
03FFFFC000
00FFFF8000
003FFE0000
0003C00000
ENDCHAR
STARTCHAR 0150
ENCODING 336
SWIDTH 810 0
DWIDTH 36 0
BBX 33 41 2 -1
BITMAP
0007C78000
00078F0000
000F0F0000
000E1E0000
001E1C0000
001C380000
0000000000
0000000000
0007E00000
003FFE0000
01FFFF8000
03FFFFC000
07FFFFF000
0FFE3FF800
1FE007FC00
3FC001FC00
3F0000FE00
7E00007E00
7E00003F00
FC00003F00
FC00001F00
F800001F80
F800001F80
F800001F80
F800001F80
F800001F80
F800001F80
F800001F80
FC00001F00
FC00003F00
7E00003F00
7F00007E00
3F0000FE00
3FC001FC00
1FF007FC00
0FFFFFF800
07FFFFF000
03FFFFC000
00FFFF8000
003FFE0000
0003C00000
ENDCHAR
STARTCHAR 0151
ENCODING 337
SWIDTH 810 0
DWIDTH 36 0
BBX 33 41 2 -1
BITMAP
0007C78000
00078F0000
000F0F0000
000E1E0000
001E1C0000
001C380000
0000000000
0000000000
0007E00000
003FFE0000
01FFFF8000
03FFFFC000
07FFFFF000
0FFE3FF800
1FE007FC00
3FC001FC00
3F0000FE00
7E00007E00
7E00003F00
FC00003F00
FC00001F00
F800001F80
F800001F80
F800001F80
F800001F80
F800001F80
F800001F80
F800001F80
FC00001F00
FC00003F00
7E00003F00
7F00007E00
3F0000FE00
3FC001FC00
1FF007FC00
0FFFFFF800
07FFFFF000
03FFFFC000
00FFFF8000
003FFE0000
0003C00000
ENDCHAR
STARTCHAR 0154
ENCODING 340
SWIDTH 607 0
DWIDTH 27 0
BBX 24 40 1 0
BITMAP
000780
000780
000F00
000E00
001E00
001C00
000000
000000
000000
1FFFC0
1FFFF0
1FFFFC
1FFFFE
1FFFFE
1F80FF
1F803F
1F801F
1F801F
1F801F
1F801F
1F801F
1F803F
1F80FF
FFFFFE
FFFFFC
FFFFF8
FFFFF8
FFFFF8
1F81FC
1F80FC
1F807E
1F807E
1F807E
1F803E
1F803E
1F803E
1F803E
1F803E
1F803E
1F803E
ENDCHAR
STARTCHAR 0155
ENCODING 341
SWIDTH 607 0
DWIDTH 27 0
BBX 24 40 1 0
BITMAP
000780
000780
000F00
000E00
001E00
001C00
000000
000000
000000
1FFFC0
1FFFF0
1FFFFC
1FFFFE
1FFFFE
1F80FF
1F803F
1F801F
1F801F
1F801F
1F801F
1F801F
1F803F
1F80FF
FFFFFE
FFFFFC
FFFFF8
FFFFF8
FFFFF8
1F81FC
1F80FC
1F807E
1F807E
1F807E
1F803E
1F803E
1F803E
1F803E
1F803E
1F803E
1F803E
ENDCHAR
STARTCHAR 0158
ENCODING 344
SWIDTH 607 0
DWIDTH 27 0
BBX 24 40 1 0
BITMAP
03C1E0
03E3C0
01F7C0
00FF80
007F00
007E00
000000
000000
000000
1FFFC0
1FFFF0
1FFFFC
1FFFFE
1FFFFE
1F80FF
1F803F
1F801F
1F801F
1F801F
1F801F
1F801F
1F803F
1F80FF
FFFFFE
FFFFFC
FFFFF8
FFFFF8
FFFFF8
1F81FC
1F80FC
1F807E
1F807E
1F807E
1F803E
1F803E
1F803E
1F803E
1F803E
1F803E
1F803E
ENDCHAR
STARTCHAR 0159
ENCODING 345
SWIDTH 607 0
DWIDTH 27 0
BBX 24 40 1 0
BITMAP
03C1E0
03E3C0
01F7C0
00FF80
007F00
007E00
000000
000000
000000
1FFFC0
1FFFF0
1FFFFC
1FFFFE
1FFFFE
1F80FF
1F803F
1F801F
1F801F
1F801F
1F801F
1F801F
1F803F
1F80FF
FFFFFE
FFFFFC
FFFFF8
FFFFF8
FFFFF8
1F81FC
1F80FC
1F807E
1F807E
1F807E
1F803E
1F803E
1F803E
1F803E
1F803E
1F803E
1F803E
ENDCHAR
STARTCHAR 015A
ENCODING 346
SWIDTH 495 0
DWIDTH 22 0
BBX 20 41 1 -1
BITMAP
001E00
001E00
003C00
007800
007000
00F000
000000
000000
00F800
07FF00
0FFF80
1FFFC0
3FFFC0
3FDFE0
3F07E0
3E03F0
3E03C0
3E0000
3F0000
3F8000
1FC000
1FF000
0FFC00
03FE00
01FF80
007FC0
003FE0
000FE0
0007F0
0003F0
0003F0
1C01F0
FC01F0
7E03F0
7F07F0
7FFFF0
3FFFE0
1FFFC0
0FFF80
03FF00
00F800
ENDCHAR
STARTCHAR 015B
ENCODING 347
SWIDTH 495 0
DWIDTH 22 0
BBX 20 41 1 -1
BITMAP
001E00
001E00
003C00
007800
007000
00F000
000000
000000
00F800
07FF00
0FFF80
1FFFC0
3FFFC0
3FDFE0
3F07E0
3E03F0
3E03C0
3E0000
3F0000
3F8000
1FC000
1FF000
0FFC00
03FE00
01FF80
007FC0
003FE0
000FE0
0007F0
0003F0
0003F0
1C01F0
FC01F0
7E03F0
7F07F0
7FFFF0
3FFFE0
1FFFC0
0FFF80
03FF00
00F800
ENDCHAR
STARTCHAR 015E
ENCODING 350
SWIDTH 495 0
DWIDTH 22 0
BBX 20 42 1 -10
BITMAP
00F800
07FF00
0FFF80
1FFFC0
3FFFC0
3FDFE0
3F07E0
3E03F0
3E03C0
3E0000
3F0000
3F8000
1FC000
1FF000
0FFC00
03FE00
01FF80
007FC0
003FE0
000FE0
0007F0
0003F0
0003F0
1C01F0
FC01F0
7E03F0
7F07F0
7FFFE0
3FFFE0
1FFFC0
0FFF80
03FF00
007800
007000
007800
003C00
001C00
020C00
071C00
07FC00
03F800
00F000
ENDCHAR
STARTCHAR 015F
ENCODING 351
SWIDTH 495 0
DWIDTH 22 0
BBX 20 42 1 -10
BITMAP
00F800
07FF00
0FFF80
1FFFC0
3FFFC0
3FDFE0
3F07E0
3E03F0
3E03C0
3E0000
3F0000
3F8000
1FC000
1FF000
0FFC00
03FE00
01FF80
007FC0
003FE0
000FE0
0007F0
0003F0
0003F0
1C01F0
FC01F0
7E03F0
7F07F0
7FFFE0
3FFFE0
1FFFC0
0FFF80
03FF00
007800
007000
007800
003C00
001C00
020C00
071C00
07FC00
03F800
00F000
ENDCHAR
STARTCHAR 0160
ENCODING 352
SWIDTH 495 0
DWIDTH 22 0
BBX 20 41 1 -1
BITMAP
0F0F80
0F8F00
07DE00
03FE00
03FC00
01F800
000000
000000
00F800
07FF00
0FFF80
1FFFC0
3FFFC0
3FDFE0
3F07E0
3E03F0
3E03C0
3E0000
3F0000
3F8000
1FC000
1FF000
0FFC00
03FE00
01FF80
007FC0
003FE0
000FE0
0007F0
0003F0
0003F0
1C01F0
FC01F0
7E03F0
7F07F0
7FFFF0
3FFFE0
1FFFC0
0FFF80
03FF00
00F800
ENDCHAR
STARTCHAR 0161
ENCODING 353
SWIDTH 495 0
DWIDTH 22 0
BBX 20 41 1 -1
BITMAP
0F0F80
0F8F00
07DE00
03FE00
03FC00
01F800
000000
000000
00F800
07FF00
0FFF80
1FFFC0
3FFFC0
3FDFE0
3F07E0
3E03F0
3E03C0
3E0000
3F0000
3F8000
1FC000
1FF000
0FFC00
03FE00
01FF80
007FC0
003FE0
000FE0
0007F0
0003F0
0003F0
1C01F0
FC01F0
7E03F0
7F07F0
7FFFF0
3FFFE0
1FFFC0
0FFF80
03FF00
00F800
ENDCHAR
STARTCHAR 0162
ENCODING 354
SWIDTH 517 0
DWIDTH 23 0
BBX 21 41 1 -10
BITMAP
FFFFF8
FFFFF8
FFFFF8
FFFFF8
FFFFF8
00F800
00F800
00F800
00F800
00F800
00F800
00F800
00F800
00F800
00F800
00F800
00F800
00F800
00F800
00F800
00F800
00F800
00F800
00F800
00F800
00F800
00F800
00F800
00F800
00F800
00F800
007000
006000
007800
003C00
001C00
021C00
073C00
0FFC00
03F800
00E000
ENDCHAR
STARTCHAR 0163
ENCODING 355
SWIDTH 517 0
DWIDTH 23 0
BBX 21 41 1 -10
BITMAP
FFFFF8
FFFFF8
FFFFF8
FFFFF8
FFFFF8
00F800
00F800
00F800
00F800
00F800
00F800
00F800
00F800
00F800
00F800
00F800
00F800
00F800
00F800
00F800
00F800
00F800
00F800
00F800
00F800
00F800
00F800
00F800
00F800
00F800
00F800
007000
006000
007800
003C00
001C00
021C00
073C00
0FFC00
03F800
00E000
ENDCHAR
STARTCHAR 0164
ENCODING 356
SWIDTH 517 0
DWIDTH 23 0
BBX 21 40 1 0
BITMAP
0F0780
078F00
07DF00
03FE00
01FC00
00FC00
000000
000000
000000
FFFFF8
FFFFF8
FFFFF8
FFFFF8
FFFFF8
00F800
00F800
00F800
00F800
00F800
00F800
00F800
00F800
00F800
00F800
00F800
00F800
00F800
00F800
00F800
00F800
00F800
00F800
00F800
00F800
00F800
00F800
00F800
00F800
00F800
00F800
ENDCHAR
STARTCHAR 0165
ENCODING 357
SWIDTH 517 0
DWIDTH 23 0
BBX 21 40 1 0
BITMAP
0F0780
078F00
07DF00
03FE00
01FC00
00FC00
000000
000000
000000
FFFFF8
FFFFF8
FFFFF8
FFFFF8
FFFFF8
00F800
00F800
00F800
00F800
00F800
00F800
00F800
00F800
00F800
00F800
00F800
00F800
00F800
00F800
00F800
00F800
00F800
00F800
00F800
00F800
00F800
00F800
00F800
00F800
00F800
00F800
ENDCHAR
STARTCHAR 0168
ENCODING 360
SWIDTH 517 0
DWIDTH 23 0
BBX 20 41 2 -1
BITMAP
070000
0FFC00
0FFC00
0FFC00
003C00
000000
000000
000000
000000
FC03F0
FC03F0
FC03F0
FC03F0
FC03F0
FC03F0
FC03F0
FC03F0
FC03F0
FC03F0
FC03F0
FC03F0
FC03F0
FC03F0
FC03F0
FC03F0
FC03F0
FC03F0
FC03F0
FC03F0
FC03F0
FC03E0
FC03E0
FC03E0
FC07E0
7E0FE0
7FFFC0
3FFFC0
3FFF80
1FFF00
07FE00
00F000
ENDCHAR
STARTCHAR 0169
ENCODING 361
SWIDTH 517 0
DWIDTH 23 0
BBX 20 41 2 -1
BITMAP
070000
0FFC00
0FFC00
0FFC00
003C00
000000
000000
000000
000000
FC03F0
FC03F0
FC03F0
FC03F0
FC03F0
FC03F0
FC03F0
FC03F0
FC03F0
FC03F0
FC03F0
FC03F0
FC03F0
FC03F0
FC03F0
FC03F0
FC03F0
FC03F0
FC03F0
FC03F0
FC03F0
FC03E0
FC03E0
FC03E0
FC07E0
7E0FE0
7FFFC0
3FFFC0
3FFF80
1FFF00
07FE00
00F000
ENDCHAR
STARTCHAR 016A
ENCODING 362
SWIDTH 517 0
DWIDTH 23 0
BBX 20 40 2 -1
BITMAP
1FFF00
1FFF00
1FFF00
1FFF00
000000
000000
000000
000000
FC03F0
FC03F0
FC03F0
FC03F0
FC03F0
FC03F0
FC03F0
FC03F0
FC03F0
FC03F0
FC03F0
FC03F0
FC03F0
FC03F0
FC03F0
FC03F0
FC03F0
FC03F0
FC03F0
FC03F0
FC03F0
FC03E0
FC03E0
FC03E0
FC07E0
7E0FE0
7FFFC0
3FFFC0
3FFF80
1FFF00
07FE00
00F000
ENDCHAR
STARTCHAR 016B
ENCODING 363
SWIDTH 517 0
DWIDTH 23 0
BBX 20 40 2 -1
BITMAP
1FFF00
1FFF00
1FFF00
1FFF00
000000
000000
000000
000000
FC03F0
FC03F0
FC03F0
FC03F0
FC03F0
FC03F0
FC03F0
FC03F0
FC03F0
FC03F0
FC03F0
FC03F0
FC03F0
FC03F0
FC03F0
FC03F0
FC03F0
FC03F0
FC03F0
FC03F0
FC03F0
FC03E0
FC03E0
FC03E0
FC07E0
7E0FE0
7FFFC0
3FFFC0
3FFF80
1FFF00
07FE00
00F000
ENDCHAR
STARTCHAR 016E
ENCODING 366
SWIDTH 517 0
DWIDTH 23 0
BBX 20 44 2 -1
BITMAP
006000
01F800
03FC00
071C00
070C00
070C00
079C00
03F800
01F000
000000
000000
000000
FC03F0
FC03F0
FC03F0
FC03F0
FC03F0
FC03F0
FC03F0
FC03F0
FC03F0
FC03F0
FC03F0
FC03F0
FC03F0
FC03F0
FC03F0
FC03F0
FC03F0
FC03F0
FC03F0
FC03F0
FC03F0
FC03E0
FC03E0
FC03E0
FC07E0
7E0FE0
7FFFC0
3FFFC0
3FFF80
1FFF00
07FE00
00F000
ENDCHAR
STARTCHAR 016F
ENCODING 367
SWIDTH 517 0
DWIDTH 23 0
BBX 20 44 2 -1
BITMAP
006000
01F800
03FC00
071C00
070C00
070C00
079C00
03F800
01F000
000000
000000
000000
FC03F0
FC03F0
FC03F0
FC03F0
FC03F0
FC03F0
FC03F0
FC03F0
FC03F0
FC03F0
FC03F0
FC03F0
FC03F0
FC03F0
FC03F0
FC03F0
FC03F0
FC03F0
FC03F0
FC03F0
FC03F0
FC03E0
FC03E0
FC03E0
FC07E0
7E0FE0
7FFFC0
3FFFC0
3FFF80
1FFF00
07FE00
00F000
ENDCHAR
STARTCHAR 0170
ENCODING 368
SWIDTH 517 0
DWIDTH 23 0
BBX 20 41 2 -1
BITMAP
01E3E0
03C3C0
03C780
078700
070F00
0E0E00
000000
000000
000000
FC03F0
FC03F0
FC03F0
FC03F0
FC03F0
FC03F0
FC03F0
FC03F0
FC03F0
FC03F0
FC03F0
FC03F0
FC03F0
FC03F0
FC03F0
FC03F0
FC03F0
FC03F0
FC03F0
FC03F0
FC03F0
FC03E0
FC03E0
FC03E0
FC07E0
7E0FE0
7FFFC0
3FFFC0
3FFF80
1FFF00
07FE00
00F000
ENDCHAR
STARTCHAR 0171
ENCODING 369
SWIDTH 517 0
DWIDTH 23 0
BBX 20 41 2 -1
BITMAP
01E3E0
03C3C0
03C780
078700
070F00
0E0E00
000000
000000
000000
FC03F0
FC03F0
FC03F0
FC03F0
FC03F0
FC03F0
FC03F0
FC03F0
FC03F0
FC03F0
FC03F0
FC03F0
FC03F0
FC03F0
FC03F0
FC03F0
FC03F0
FC03F0
FC03F0
FC03F0
FC03F0
FC03E0
FC03E0
FC03E0
FC07E0
7E0FE0
7FFFC0
3FFFC0
3FFF80
1FFF00
07FE00
00F000
ENDCHAR
STARTCHAR 0172
ENCODING 370
SWIDTH 517 0
DWIDTH 23 0
BBX 20 40 2 -9
BITMAP
FC03F0
FC03F0
FC03F0
FC03F0
FC03F0
FC03F0
FC03F0
FC03F0
FC03F0
FC03F0
FC03F0
FC03F0
FC03F0
FC03F0
FC03F0
FC03F0
FC03F0
FC03F0
FC03F0
FC03F0
FC03F0
FC03E0
FC03E0
FC03E0
FC07E0
7E0FE0
7FFFC0
3FFFC0
3FFF80
0FFF00
07FE00
00F000
01C000
038000
038000
038000
038E00
03FE00
01FC00
007000
ENDCHAR
STARTCHAR 0173
ENCODING 371
SWIDTH 517 0
DWIDTH 23 0
BBX 20 40 2 -9
BITMAP
FC03F0
FC03F0
FC03F0
FC03F0
FC03F0
FC03F0
FC03F0
FC03F0
FC03F0
FC03F0
FC03F0
FC03F0
FC03F0
FC03F0
FC03F0
FC03F0
FC03F0
FC03F0
FC03F0
FC03F0
FC03F0
FC03E0
FC03E0
FC03E0
FC07E0
7E0FE0
7FFFC0
3FFFC0
3FFF80
0FFF00
07FE00
00F000
01C000
038000
038000
038000
038E00
03FE00
01FC00
007000
ENDCHAR
STARTCHAR 0176
ENCODING 374
SWIDTH 517 0
DWIDTH 23 0
BBX 19 40 2 0
BITMAP
01F800
03F800
07FC00
0FBE00
0F1E00
1E0F00
000000
000000
000000
F803E0
F803E0
F803E0
F803E0
F803E0
F803E0
F803E0
F803E0
F803E0
F803E0
F803E0
F803E0
F803E0
F803E0
F803E0
FC07E0
FC07E0
FE0FE0
7F1FC0
7FFFC0
3FFF80
1FFF00
0FFE00
01F000
01F000
01F000
01F000
01F000
01F000
01F000
01F000
ENDCHAR
STARTCHAR 0177
ENCODING 375
SWIDTH 517 0
DWIDTH 23 0
BBX 19 40 2 0
BITMAP
01F800
03F800
07FC00
0FBE00
0F1E00
1E0F00
000000
000000
000000
F803E0
F803E0
F803E0
F803E0
F803E0
F803E0
F803E0
F803E0
F803E0
F803E0
F803E0
F803E0
F803E0
F803E0
F803E0
FC07E0
FC07E0
FE0FE0
7F1FC0
7FFFC0
3FFF80
1FFF00
0FFE00
01F000
01F000
01F000
01F000
01F000
01F000
01F000
01F000
ENDCHAR
STARTCHAR 0178
ENCODING 376
SWIDTH 517 0
DWIDTH 23 0
BBX 19 40 2 0
BITMAP
3E0780
7F0FC0
7F1FE0
7F1FE0
7F0FC0
3E0FC0
1C0780
000000
000000
F803E0
F803E0
F803E0
F803E0
F803E0
F803E0
F803E0
F803E0
F803E0
F803E0
F803E0
F803E0
F803E0
F803E0
F803E0
FC07E0
FC07E0
FE0FE0
7F1FC0
7FFFC0
3FFF80
1FFF00
0FFE00
01F000
01F000
01F000
01F000
01F000
01F000
01F000
01F000
ENDCHAR
STARTCHAR 0179
ENCODING 377
SWIDTH 517 0
DWIDTH 23 0
BBX 21 40 1 0
BITMAP
000F00
001E00
001C00
003C00
003800
007000
000000
000000
000000
FFFFF8
FFFFF8
FFFFF8
FFFFF8
FFFFF0
0007E0
0007E0
000FC0
000FC0
001F80
003F00
003F00
007E00
007E00
00FC00
01FC00
01F800
03F000
03F000
07E000
0FE000
0FC000
1F8000
1F8000
3F0000
3F0000
7FFFF0
FFFFF0
FFFFF0
FFFFF0
FFFFF0
ENDCHAR
STARTCHAR 017A
ENCODING 378
SWIDTH 517 0
DWIDTH 23 0
BBX 21 40 1 0
BITMAP
000F00
001E00
001C00
003C00
003800
007000
000000
000000
000000
FFFFF8
FFFFF8
FFFFF8
FFFFF8
FFFFF0
0007E0
0007E0
000FC0
000FC0
001F80
003F00
003F00
007E00
007E00
00FC00
01FC00
01F800
03F000
03F000
07E000
0FE000
0FC000
1F8000
1F8000
3F0000
3F0000
7FFFF0
FFFFF0
FFFFF0
FFFFF0
FFFFF0
ENDCHAR
STARTCHAR 017B
ENCODING 379
SWIDTH 517 0
DWIDTH 23 0
BBX 21 41 1 0
BITMAP
007800
00FC00
00FE00
01FE00
00FC00
00FC00
007800
000000
000000
000000
FFFFF8
FFFFF8
FFFFF8
FFFFF8
FFFFF0
0007E0
0007E0
000FC0
000FC0
001F80
003F00
003F00
007E00
007E00
00FC00
01FC00
01F800
03F000
03F000
07E000
0FE000
0FC000
1F8000
1F8000
3F0000
3F0000
7FFFF0
FFFFF0
FFFFF0
FFFFF0
FFFFF0
ENDCHAR
STARTCHAR 017C
ENCODING 380
SWIDTH 517 0
DWIDTH 23 0
BBX 21 41 1 0
BITMAP
007800
00FC00
00FE00
01FE00
00FC00
00FC00
007800
000000
000000
000000
FFFFF8
FFFFF8
FFFFF8
FFFFF8
FFFFF0
0007E0
0007E0
000FC0
000FC0
001F80
003F00
003F00
007E00
007E00
00FC00
01FC00
01F800
03F000
03F000
07E000
0FE000
0FC000
1F8000
1F8000
3F0000
3F0000
7FFFF0
FFFFF0
FFFFF0
FFFFF0
FFFFF0
ENDCHAR
STARTCHAR 017D
ENCODING 381
SWIDTH 517 0
DWIDTH 23 0
BBX 21 40 1 0
BITMAP
0F87C0
078F80
03CF00
03FE00
01FE00
00FC00
000000
000000
000000
FFFFF8
FFFFF8
FFFFF8
FFFFF8
FFFFF0
0007E0
0007E0
000FC0
000FC0
001F80
003F00
003F00
007E00
007E00
00FC00
01FC00
01F800
03F000
03F000
07E000
0FE000
0FC000
1F8000
1F8000
3F0000
3F0000
7FFFF0
FFFFF0
FFFFF0
FFFFF0
FFFFF0
ENDCHAR
STARTCHAR 017E
ENCODING 382
SWIDTH 517 0
DWIDTH 23 0
BBX 21 40 1 0
BITMAP
0F87C0
078F80
03CF00
03FE00
01FE00
00FC00
000000
000000
000000
FFFFF8
FFFFF8
FFFFF8
FFFFF8
FFFFF0
0007E0
0007E0
000FC0
000FC0
001F80
003F00
003F00
007E00
007E00
00FC00
01FC00
01F800
03F000
03F000
07E000
0FE000
0FC000
1F8000
1F8000
3F0000
3F0000
7FFFF0
FFFFF0
FFFFF0
FFFFF0
FFFFF0
ENDCHAR
STARTCHAR 01A0
ENCODING 416
SWIDTH 810 0
DWIDTH 36 0
BBX 33 36 2 -1
BITMAP
0000001E00
0000001E00
0000003C00
0007E03C00
003FFFF800
01FFFFF000
03FFFFE000
07FFFFF000
0FFE3FF800
1FE007FC00
3FC001FC00
3F0000FE00
7E00007E00
7E00003F00
FC00003F00
FC00001F80
F800001F80
F800001F80
F800001F80
F800001F80
F800001F80
F800001F80
F800001F80
FC00001F00
FC00003F00
7E00003F00
7F00007E00
3F0000FE00
3FC001FC00
1FF007FC00
0FFFFFF800
07FFFFF000
03FFFFC000
00FFFF8000
003FFE0000
0003C00000
ENDCHAR
STARTCHAR 01A1
ENCODING 417
SWIDTH 810 0
DWIDTH 36 0
BBX 33 36 2 -1
BITMAP
0000001E00
0000001E00
0000003C00
0007E03C00
003FFFF800
01FFFFF000
03FFFFE000
07FFFFF000
0FFE3FF800
1FE007FC00
3FC001FC00
3F0000FE00
7E00007E00
7E00003F00
FC00003F00
FC00001F80
F800001F80
F800001F80
F800001F80
F800001F80
F800001F80
F800001F80
F800001F80
FC00001F00
FC00003F00
7E00003F00
7F00007E00
3F0000FE00
3FC001FC00
1FF007FC00
0FFFFFF800
07FFFFF000
03FFFFC000
00FFFF8000
003FFE0000
0003C00000
ENDCHAR
STARTCHAR 01AF
ENCODING 431
SWIDTH 517 0
DWIDTH 23 0
BBX 23 36 2 -1
BITMAP
00000E
00000E
00000E
00001C
FC03FC
FC03F0
FC03F0
FC03F0
FC03F0
FC03F0
FC03F0
FC03F0
FC03F0
FC03F0
FC03F0
FC03F0
FC03F0
FC03F0
FC03F0
FC03F0
FC03F0
FC03F0
FC03F0
FC03F0
FC03F0
FC03E0
FC03E0
FC03E0
FC07E0
7E0FE0
7FFFC0
3FFFC0
3FFF80
1FFF00
07FE00
00F000
ENDCHAR
STARTCHAR 01B0
ENCODING 432
SWIDTH 517 0
DWIDTH 23 0
BBX 23 36 2 -1
BITMAP
00000E
00000E
00000E
00001C
FC03FC
FC03F0
FC03F0
FC03F0
FC03F0
FC03F0
FC03F0
FC03F0
FC03F0
FC03F0
FC03F0
FC03F0
FC03F0
FC03F0
FC03F0
FC03F0
FC03F0
FC03F0
FC03F0
FC03F0
FC03F0
FC03E0
FC03E0
FC03E0
FC07E0
7E0FE0
7FFFC0
3FFFC0
3FFF80
1FFF00
07FE00
00F000
ENDCHAR
STARTCHAR 01CD
ENCODING 461
SWIDTH 562 0
DWIDTH 25 0
BBX 23 40 2 0
BITMAP
1F0F80
0F9F00
079E00
03FC00
03FC00
01F800
000000
000000
00F000
07FE00
0FFF00
1FFF80
3FFFC0
7F9FE0
7E07E0
7C07E0
FC03F0
FC03F0
FC03F0
FC03F0
FC03F0
FC03F0
FC03F0
FC03F0
FC03F0
FC03F0
FC03F0
FC03F0
FC03F0
FC03F0
FC03F0
FC03F0
FC03F0
FC03F0
FC03F0
FFFFFE
FFFFFE
FFFFFE
FFFFFE
FFFFFE
ENDCHAR
STARTCHAR 01CE
ENCODING 462
SWIDTH 562 0
DWIDTH 25 0
BBX 23 40 2 0
BITMAP
1F0F80
0F9F00
079E00
03FC00
03FC00
01F800
000000
000000
00F000
07FE00
0FFF00
1FFF80
3FFFC0
7F9FE0
7E07E0
7C07E0
FC03F0
FC03F0
FC03F0
FC03F0
FC03F0
FC03F0
FC03F0
FC03F0
FC03F0
FC03F0
FC03F0
FC03F0
FC03F0
FC03F0
FC03F0
FC03F0
FC03F0
FC03F0
FC03F0
FFFFFE
FFFFFE
FFFFFE
FFFFFE
FFFFFE
ENDCHAR
STARTCHAR 01CF
ENCODING 463
SWIDTH 225 0
DWIDTH 10 0
BBX 13 28 -1 0
BITMAP
F0F8
F8F0
7DE0
3FE0
1FC0
1F80
0000
0000
0000
1F80
1F80
1F80
1F80
1F80
1F80
1F80
1F80
1F80
1F80
1F80
1F80
1F80
1F80
1F80
1F80
1F80
1F80
1F80
ENDCHAR
STARTCHAR 01D0
ENCODING 464
SWIDTH 225 0
DWIDTH 10 0
BBX 13 28 -1 0
BITMAP
F0F8
F8F0
7DE0
3FE0
1FC0
1F80
0000
0000
0000
1F80
1F80
1F80
1F80
1F80
1F80
1F80
1F80
1F80
1F80
1F80
1F80
1F80
1F80
1F80
1F80
1F80
1F80
1F80
ENDCHAR
STARTCHAR 01D1
ENCODING 465
SWIDTH 810 0
DWIDTH 36 0
BBX 33 41 2 -1
BITMAP
003C1E0000
003E3C0000
001F7C0000
000FF80000
0007F00000
0007E00000
0000000000
0000000000
0007E00000
003FFE0000
01FFFF8000
03FFFFC000
07FFFFF000
0FFE3FF800
1FE007FC00
3FC001FC00
3F0000FE00
7E00007E00
7E00003F00
FC00003F00
FC00001F00
F800001F80
F800001F80
F800001F80
F800001F80
F800001F80
F800001F80
F800001F80
FC00001F00
FC00003F00
7E00003F00
7F00007E00
3F0000FE00
3FC001FC00
1FF007FC00
0FFFFFF800
07FFFFF000
03FFFFC000
00FFFF8000
003FFE0000
0003C00000
ENDCHAR
STARTCHAR 01D2
ENCODING 466
SWIDTH 810 0
DWIDTH 36 0
BBX 33 41 2 -1
BITMAP
003C1E0000
003E3C0000
001F7C0000
000FF80000
0007F00000
0007E00000
0000000000
0000000000
0007E00000
003FFE0000
01FFFF8000
03FFFFC000
07FFFFF000
0FFE3FF800
1FE007FC00
3FC001FC00
3F0000FE00
7E00007E00
7E00003F00
FC00003F00
FC00001F00
F800001F80
F800001F80
F800001F80
F800001F80
F800001F80
F800001F80
F800001F80
FC00001F00
FC00003F00
7E00003F00
7F00007E00
3F0000FE00
3FC001FC00
1FF007FC00
0FFFFFF800
07FFFFF000
03FFFFC000
00FFFF8000
003FFE0000
0003C00000
ENDCHAR
STARTCHAR 01D3
ENCODING 467
SWIDTH 517 0
DWIDTH 23 0
BBX 20 41 2 -1
BITMAP
1F0F00
0F1F00
07BE00
07FC00
03FC00
01F800
000000
000000
000000
FC03F0
FC03F0
FC03F0
FC03F0
FC03F0
FC03F0
FC03F0
FC03F0
FC03F0
FC03F0
FC03F0
FC03F0
FC03F0
FC03F0
FC03F0
FC03F0
FC03F0
FC03F0
FC03F0
FC03F0
FC03F0
FC03E0
FC03E0
FC03E0
FC07E0
7E0FE0
7FFFC0
3FFFC0
3FFF80
1FFF00
07FE00
00F000
ENDCHAR
STARTCHAR 01D4
ENCODING 468
SWIDTH 517 0
DWIDTH 23 0
BBX 20 41 2 -1
BITMAP
1F0F00
0F1F00
07BE00
07FC00
03FC00
01F800
000000
000000
000000
FC03F0
FC03F0
FC03F0
FC03F0
FC03F0
FC03F0
FC03F0
FC03F0
FC03F0
FC03F0
FC03F0
FC03F0
FC03F0
FC03F0
FC03F0
FC03F0
FC03F0
FC03F0
FC03F0
FC03F0
FC03F0
FC03E0
FC03E0
FC03E0
FC07E0
7E0FE0
7FFFC0
3FFFC0
3FFF80
1FFF00
07FE00
00F000
ENDCHAR
STARTCHAR 02C6
ENCODING 710
SWIDTH 315 0
DWIDTH 14 0
BBX 14 6 0 34
BITMAP
0FC0
0FE0
1FF0
3EF0
7C78
F87C
ENDCHAR
STARTCHAR 02C7
ENCODING 711
SWIDTH 315 0
DWIDTH 14 0
BBX 14 6 0 34
BITMAP
F87C
7C78
3EF0
1FF0
1FE0
0FC0
ENDCHAR
STARTCHAR 02D8
ENCODING 728
SWIDTH 270 0
DWIDTH 12 0
BBX 13 6 0 34
BITMAP
E078
F078
F0F0
7FF0
3FE0
1FC0
ENDCHAR
STARTCHAR 02D9
ENCODING 729
SWIDTH 157 0
DWIDTH 7 0
BBX 7 7 0 34
BITMAP
7C
7E
FE
FE
FE
7E
38
ENDCHAR
STARTCHAR 02DA
ENCODING 730
SWIDTH 202 0
DWIDTH 9 0
BBX 9 9 0 34
BITMAP
0C00
7F00
7F80
E380
E180
E380
E380
7F00
3E00
ENDCHAR
STARTCHAR 02DB
ENCODING 731
SWIDTH 202 0
DWIDTH 9 0
BBX 10 9 0 -9
BITMAP
3E00
7000
E000
E000
E100
F380
7FC0
7F80
0E00
ENDCHAR
STARTCHAR 02DC
ENCODING 732
SWIDTH 225 0
DWIDTH 10 0
BBX 11 5 0 35
BITMAP
3000
FFE0
FFE0
FFE0
03C0
ENDCHAR
STARTCHAR 02DD
ENCODING 733
SWIDTH 315 0
DWIDTH 14 0
BBX 15 6 0 34
BITMAP
1E3E
3E3C
3C78
7878
70F0
F0E0
ENDCHAR
STARTCHAR 0300
ENCODING 768
SWIDTH 0 0
DWIDTH 0 0
BBX 7 6 -7 34
BITMAP
F0
F8
78
3C
1C
1E
ENDCHAR
STARTCHAR 0301
ENCODING 769
SWIDTH 0 0
DWIDTH 0 0
BBX 7 6 -7 34
BITMAP
1E
3C
3C
78
70
E0
ENDCHAR
STARTCHAR 0302
ENCODING 770
SWIDTH 0 0
DWIDTH 0 0
BBX 14 6 -14 34
BITMAP
0FC0
1FE0
3FE0
3DF0
78F8
F87C
ENDCHAR
STARTCHAR 0303
ENCODING 771
SWIDTH 0 0
DWIDTH 0 0
BBX 11 5 -11 35
BITMAP
3000
FFE0
FFE0
FFE0
03C0
ENDCHAR
STARTCHAR 0304
ENCODING 772
SWIDTH 0 0
DWIDTH 0 0
BBX 13 4 -13 35
BITMAP
FFF8
FFF8
FFF8
FFF8
ENDCHAR
STARTCHAR 0306
ENCODING 774
SWIDTH 0 0
DWIDTH 0 0
BBX 13 6 -13 34
BITMAP
F038
F078
7878
7FF0
3FE0
1FC0
ENDCHAR
STARTCHAR 0307
ENCODING 775
SWIDTH 0 0
DWIDTH 0 0
BBX 7 7 -7 34
BITMAP
7C
FE
FE
FE
FE
7C
38
ENDCHAR
STARTCHAR 0308
ENCODING 776
SWIDTH 0 0
DWIDTH 0 0
BBX 17 7 -17 33
BITMAP
781F00
FC3F80
FE3F80
FE3F80
FE3F80
FC1F00
380E00
ENDCHAR
STARTCHAR 0309
ENCODING 777
SWIDTH 0 0
DWIDTH 0 0
BBX 4 8 -4 34
BITMAP
F0
70
70
F0
E0
E0
E0
E0
ENDCHAR
STARTCHAR 030A
ENCODING 778
SWIDTH 0 0
DWIDTH 0 0
BBX 9 9 -9 34
BITMAP
1800
7F00
FF00
E380
C380
C380
E380
7F00
3E00
ENDCHAR
STARTCHAR 030B
ENCODING 779
SWIDTH 0 0
DWIDTH 0 0
BBX 14 6 -14 34
BITMAP
3C3C
3C78
7878
70F0
F0E0
E1C0
ENDCHAR
STARTCHAR 030C
ENCODING 780
SWIDTH 0 0
DWIDTH 0 0
BBX 14 6 -14 34
BITMAP
F87C
78F8
3CF0
3FE0
1FE0
0FC0
ENDCHAR
STARTCHAR 031B
ENCODING 795
SWIDTH 0 0
DWIDTH 0 0
BBX 6 6 -6 29
BITMAP
1C
1C
3C
38
F8
E0
ENDCHAR
STARTCHAR 0323
ENCODING 803
SWIDTH 0 0
DWIDTH 0 0
BBX 7 7 -7 -12
BITMAP
38
FC
FE
FE
FE
FC
78
ENDCHAR
STARTCHAR 0326
ENCODING 806
SWIDTH 0 0
DWIDTH 0 0
BBX 7 8 -7 -10
BITMAP
1E
3E
3C
3C
78
78
F0
F0
ENDCHAR
STARTCHAR 0327
ENCODING 807
SWIDTH 0 0
DWIDTH 0 0
BBX 10 10 -10 -10
BITMAP
0700
0E00
0F80
0380
01C0
21C0
73C0
FFC0
7F80
0E00
ENDCHAR
STARTCHAR 0328
ENCODING 808
SWIDTH 0 0
DWIDTH 0 0
BBX 10 9 -10 -9
BITMAP
3F00
7800
7000
E000
E000
F180
7FC0
3F80
1E00
ENDCHAR
STARTCHAR 0335
ENCODING 821
SWIDTH 0 0
DWIDTH 0 0
BBX 15 5 -15 7
BITMAP
FFFE
FFFE
FFFE
FFFE
FFFE
ENDCHAR
STARTCHAR 1EA0
ENCODING 7840
SWIDTH 562 0
DWIDTH 25 0
BBX 23 44 2 -12
BITMAP
00F000
07FE00
0FFF00
1FFF80
3FFFC0
7F9FE0
7E07E0
7C07E0
FC03F0
FC03F0
FC03F0
FC03F0
FC03F0
FC03F0
FC03F0
FC03F0
FC03F0
FC03F0
FC03F0
FC03F0
FC03F0
FC03F0
FC03F0
FC03F0
FC03F0
FC03F0
FC03F0
FFFFFE
FFFFFE
FFFFFE
FFFFFE
FFFFFE
000000
000000
000000
000000
000000
00F000
01F800
01FC00
03FC00
01FC00
01F800
00F000
ENDCHAR
STARTCHAR 1EA1
ENCODING 7841
SWIDTH 562 0
DWIDTH 25 0
BBX 23 44 2 -12
BITMAP
00F000
07FE00
0FFF00
1FFF80
3FFFC0
7F9FE0
7E07E0
7C07E0
FC03F0
FC03F0
FC03F0
FC03F0
FC03F0
FC03F0
FC03F0
FC03F0
FC03F0
FC03F0
FC03F0
FC03F0
FC03F0
FC03F0
FC03F0
FC03F0
FC03F0
FC03F0
FC03F0
FFFFFE
FFFFFE
FFFFFE
FFFFFE
FFFFFE
000000
000000
000000
000000
000000
00F000
01F800
01FC00
03FC00
01FC00
01F800
00F000
ENDCHAR
STARTCHAR 1EA2
ENCODING 7842
SWIDTH 562 0
DWIDTH 25 0
BBX 23 42 2 0
BITMAP
00F000
007000
007000
00F000
00E000
00E000
00E000
00E000
000000
000000
00F000
07FE00
0FFF00
1FFF80
3FFFC0
7F9FE0
7E07E0
7C07E0
FC03F0
FC03F0
FC03F0
FC03F0
FC03F0
FC03F0
FC03F0
FC03F0
FC03F0
FC03F0
FC03F0
FC03F0
FC03F0
FC03F0
FC03F0
FC03F0
FC03F0
FC03F0
FC03F0
FFFFFE
FFFFFE
FFFFFE
FFFFFE
FFFFFE
ENDCHAR
STARTCHAR 1EA3
ENCODING 7843
SWIDTH 562 0
DWIDTH 25 0
BBX 23 42 2 0
BITMAP
00F000
007000
007000
00F000
00E000
00E000
00E000
00E000
000000
000000
00F000
07FE00
0FFF00
1FFF80
3FFFC0
7F9FE0
7E07E0
7C07E0
FC03F0
FC03F0
FC03F0
FC03F0
FC03F0
FC03F0
FC03F0
FC03F0
FC03F0
FC03F0
FC03F0
FC03F0
FC03F0
FC03F0
FC03F0
FC03F0
FC03F0
FC03F0
FC03F0
FFFFFE
FFFFFE
FFFFFE
FFFFFE
FFFFFE
ENDCHAR
STARTCHAR 1EA4
ENCODING 7844
SWIDTH 562 0
DWIDTH 25 0
BBX 23 44 2 0
BITMAP
00001E
00003C
000038
000078
01F8F0
03FCE0
03FC00
079E00
0F9F00
1F0F80
000000
000000
00F000
07FE00
0FFF00
1FFF80
3FFFC0
7F9FE0
7E07E0
7C07E0
FC03F0
FC03F0
FC03F0
FC03F0
FC03F0
FC03F0
FC03F0
FC03F0
FC03F0
FC03F0
FC03F0
FC03F0
FC03F0
FC03F0
FC03F0
FC03F0
FC03F0
FC03F0
FC03F0
FFFFFE
FFFFFE
FFFFFE
FFFFFE
FFFFFE
ENDCHAR
STARTCHAR 1EA5
ENCODING 7845
SWIDTH 562 0
DWIDTH 25 0
BBX 23 44 2 0
BITMAP
00001E
00003C
000038
000078
01F8F0
03FCE0
03FC00
079E00
0F9F00
1F0F80
000000
000000
00F000
07FE00
0FFF00
1FFF80
3FFFC0
7F9FE0
7E07E0
7C07E0
FC03F0
FC03F0
FC03F0
FC03F0
FC03F0
FC03F0
FC03F0
FC03F0
FC03F0
FC03F0
FC03F0
FC03F0
FC03F0
FC03F0
FC03F0
FC03F0
FC03F0
FC03F0
FC03F0
FFFFFE
FFFFFE
FFFFFE
FFFFFE
FFFFFE
ENDCHAR
STARTCHAR 1EA6
ENCODING 7846
SWIDTH 562 0
DWIDTH 25 0
BBX 27 44 -2 0
BITMAP
F0000000
78000000
78000000
3C000000
1C1F8000
0E3FC000
003FC000
0079E000
00F9F000
01F0F800
00000000
00000000
000F0000
007FE000
00FFF000
01FFF800
03FFFC00
07F9FE00
07E07E00
07C07E00
0FC03F00
0FC03F00
0FC03F00
0FC03F00
0FC03F00
0FC03F00
0FC03F00
0FC03F00
0FC03F00
0FC03F00
0FC03F00
0FC03F00
0FC03F00
0FC03F00
0FC03F00
0FC03F00
0FC03F00
0FC03F00
0FC03F00
0FFFFFE0
0FFFFFE0
0FFFFFE0
0FFFFFE0
0FFFFFE0
ENDCHAR
STARTCHAR 1EA7
ENCODING 7847
SWIDTH 562 0
DWIDTH 25 0
BBX 27 44 -2 0
BITMAP
F0000000
78000000
78000000
3C000000
1C1F8000
0E3FC000
003FC000
0079E000
00F9F000
01F0F800
00000000
00000000
000F0000
007FE000
00FFF000
01FFF800
03FFFC00
07F9FE00
07E07E00
07C07E00
0FC03F00
0FC03F00
0FC03F00
0FC03F00
0FC03F00
0FC03F00
0FC03F00
0FC03F00
0FC03F00
0FC03F00
0FC03F00
0FC03F00
0FC03F00
0FC03F00
0FC03F00
0FC03F00
0FC03F00
0FC03F00
0FC03F00
0FFFFFE0
0FFFFFE0
0FFFFFE0
0FFFFFE0
0FFFFFE0
ENDCHAR
STARTCHAR 1EA8
ENCODING 7848
SWIDTH 562 0
DWIDTH 25 0
BBX 23 46 2 0
BITMAP
0000F0
000070
000070
0000F0
0000E0
0000E0
01F9E0
03FCE0
03FCE0
079E00
0F9F00
1F0F80
000000
000000
00F000
07FE00
0FFF00
1FFF80
3FFFC0
7F9FE0
7E07E0
7C07E0
FC03F0
FC03F0
FC03F0
FC03F0
FC03F0
FC03F0
FC03F0
FC03F0
FC03F0
FC03F0
FC03F0
FC03F0
FC03F0
FC03F0
FC03F0
FC03F0
FC03F0
FC03F0
FC03F0
FFFFFE
FFFFFE
FFFFFE
FFFFFE
FFFFFE
ENDCHAR
STARTCHAR 1EA9
ENCODING 7849
SWIDTH 562 0
DWIDTH 25 0
BBX 23 46 2 0
BITMAP
0000F0
000070
000070
0000F0
0000E0
0000E0
01F9E0
03FCE0
03FCE0
079E00
0F9F00
1F0F80
000000
000000
00F000
07FE00
0FFF00
1FFF80
3FFFC0
7F9FE0
7E07E0
7C07E0
FC03F0
FC03F0
FC03F0
FC03F0
FC03F0
FC03F0
FC03F0
FC03F0
FC03F0
FC03F0
FC03F0
FC03F0
FC03F0
FC03F0
FC03F0
FC03F0
FC03F0
FC03F0
FC03F0
FFFFFE
FFFFFE
FFFFFE
FFFFFE
FFFFFE
ENDCHAR
STARTCHAR 1EAA
ENCODING 7850
SWIDTH 562 0
DWIDTH 25 0
BBX 23 45 2 0
BITMAP
003E00
003FF0
003FF0
0037F0
000000
01F800
03FC00
03FC00
079E00
0F9F00
1F0F80
000000
000000
00F000
07FE00
0FFF00
1FFF80
3FFFC0
7F9FE0
7E07E0
7C07E0
FC03F0
FC03F0
FC03F0
FC03F0
FC03F0
FC03F0
FC03F0
FC03F0
FC03F0
FC03F0
FC03F0
FC03F0
FC03F0
FC03F0
FC03F0
FC03F0
FC03F0
FC03F0
FC03F0
FFFFFE
FFFFFE
FFFFFE
FFFFFE
FFFFFE
ENDCHAR
STARTCHAR 1EAB
ENCODING 7851
SWIDTH 562 0
DWIDTH 25 0
BBX 23 45 2 0
BITMAP
003E00
003FF0
003FF0
0037F0
000000
01F800
03FC00
03FC00
079E00
0F9F00
1F0F80
000000
000000
00F000
07FE00
0FFF00
1FFF80
3FFFC0
7F9FE0
7E07E0
7C07E0
FC03F0
FC03F0
FC03F0
FC03F0
FC03F0
FC03F0
FC03F0
FC03F0
FC03F0
FC03F0
FC03F0
FC03F0
FC03F0
FC03F0
FC03F0
FC03F0
FC03F0
FC03F0
FC03F0
FFFFFE
FFFFFE
FFFFFE
FFFFFE
FFFFFE
ENDCHAR
STARTCHAR 1EAC
ENCODING 7852
SWIDTH 562 0
DWIDTH 25 0
BBX 23 52 2 -12
BITMAP
01F800
03FC00
03FC00
079E00
0F9F00
1F0F80
000000
000000
00F000
07FE00
0FFF00
1FFF80
3FFFC0
7F9FE0
7E07E0
7C07E0
FC03F0
FC03F0
FC03F0
FC03F0
FC03F0
FC03F0
FC03F0
FC03F0
FC03F0
FC03F0
FC03F0
FC03F0
FC03F0
FC03F0
FC03F0
FC03F0
FC03F0
FC03F0
FC03F0
FFFFFE
FFFFFE
FFFFFE
FFFFFE
FFFFFE
000000
000000
000000
000000
000000
00F000
01F800
01FC00
03FC00
01FC00
01F800
00F000
ENDCHAR
STARTCHAR 1EAD
ENCODING 7853
SWIDTH 562 0
DWIDTH 25 0
BBX 23 52 2 -12
BITMAP
01F800
03FC00
03FC00
079E00
0F9F00
1F0F80
000000
000000
00F000
07FE00
0FFF00
1FFF80
3FFFC0
7F9FE0
7E07E0
7C07E0
FC03F0
FC03F0
FC03F0
FC03F0
FC03F0
FC03F0
FC03F0
FC03F0
FC03F0
FC03F0
FC03F0
FC03F0
FC03F0
FC03F0
FC03F0
FC03F0
FC03F0
FC03F0
FC03F0
FFFFFE
FFFFFE
FFFFFE
FFFFFE
FFFFFE
000000
000000
000000
000000
000000
00F000
01F800
01FC00
03FC00
01FC00
01F800
00F000
ENDCHAR
STARTCHAR 1EAE
ENCODING 7854
SWIDTH 562 0
DWIDTH 25 0
BBX 23 46 2 0
BITMAP
001F00
001E00
003C00
003800
007800
007000
0E0700
0E0700
0F0F00
07FE00
07FC00
01F800
000000
000000
00F000
07FE00
0FFF00
1FFF80
3FFFC0
7F9FE0
7E07E0
7C07E0
FC03F0
FC03F0
FC03F0
FC03F0
FC03F0
FC03F0
FC03F0
FC03F0
FC03F0
FC03F0
FC03F0
FC03F0
FC03F0
FC03F0
FC03F0
FC03F0
FC03F0
FC03F0
FC03F0
FFFFFE
FFFFFE
FFFFFE
FFFFFE
FFFFFE
ENDCHAR
STARTCHAR 1EAF
ENCODING 7855
SWIDTH 562 0
DWIDTH 25 0
BBX 23 46 2 0
BITMAP
001F00
001E00
003C00
003800
007800
007000
0E0700
0E0700
0F0F00
07FE00
07FC00
01F800
000000
000000
00F000
07FE00
0FFF00
1FFF80
3FFFC0
7F9FE0
7E07E0
7C07E0
FC03F0
FC03F0
FC03F0
FC03F0
FC03F0
FC03F0
FC03F0
FC03F0
FC03F0
FC03F0
FC03F0
FC03F0
FC03F0
FC03F0
FC03F0
FC03F0
FC03F0
FC03F0
FC03F0
FFFFFE
FFFFFE
FFFFFE
FFFFFE
FFFFFE
ENDCHAR
STARTCHAR 1EB0
ENCODING 7856
SWIDTH 562 0
DWIDTH 25 0
BBX 23 46 2 0
BITMAP
0F0000
078000
078000
03C000
01C000
00E000
0E0700
0E0700
0F0F00
07FE00
07FC00
01F800
000000
000000
00F000
07FE00
0FFF00
1FFF80
3FFFC0
7F9FE0
7E07E0
7C07E0
FC03F0
FC03F0
FC03F0
FC03F0
FC03F0
FC03F0
FC03F0
FC03F0
FC03F0
FC03F0
FC03F0
FC03F0
FC03F0
FC03F0
FC03F0
FC03F0
FC03F0
FC03F0
FC03F0
FFFFFE
FFFFFE
FFFFFE
FFFFFE
FFFFFE
ENDCHAR
STARTCHAR 1EB1
ENCODING 7857
SWIDTH 562 0
DWIDTH 25 0
BBX 23 46 2 0
BITMAP
0F0000
078000
078000
03C000
01C000
00E000
0E0700
0E0700
0F0F00
07FE00
07FC00
01F800
000000
000000
00F000
07FE00
0FFF00
1FFF80
3FFFC0
7F9FE0
7E07E0
7C07E0
FC03F0
FC03F0
FC03F0
FC03F0
FC03F0
FC03F0
FC03F0
FC03F0
FC03F0
FC03F0
FC03F0
FC03F0
FC03F0
FC03F0
FC03F0
FC03F0
FC03F0
FC03F0
FC03F0
FFFFFE
FFFFFE
FFFFFE
FFFFFE
FFFFFE
ENDCHAR
STARTCHAR 1EB2
ENCODING 7858
SWIDTH 562 0
DWIDTH 25 0
BBX 23 47 2 0
BITMAP
007000
007000
007000
007000
00F000
00E000
00E000
0EF700
0E0700
0F0F00
07FE00
07FC00
01F800
000000
000000
00F000
07FE00
0FFF00
1FFF80
3FFFC0
7F9FE0
7E07E0
7C07E0
FC03F0
FC03F0
FC03F0
FC03F0
FC03F0
FC03F0
FC03F0
FC03F0
FC03F0
FC03F0
FC03F0
FC03F0
FC03F0
FC03F0
FC03F0
FC03F0
FC03F0
FC03F0
FC03F0
FFFFFE
FFFFFE
FFFFFE
FFFFFE
FFFFFE
ENDCHAR
STARTCHAR 1EB3
ENCODING 7859
SWIDTH 562 0
DWIDTH 25 0
BBX 23 47 2 0
BITMAP
007000
007000
007000
007000
00F000
00E000
00E000
0EF700
0E0700
0F0F00
07FE00
07FC00
01F800
000000
000000
00F000
07FE00
0FFF00
1FFF80
3FFFC0
7F9FE0
7E07E0
7C07E0
FC03F0
FC03F0
FC03F0
FC03F0
FC03F0
FC03F0
FC03F0
FC03F0
FC03F0
FC03F0
FC03F0
FC03F0
FC03F0
FC03F0
FC03F0
FC03F0
FC03F0
FC03F0
FC03F0
FFFFFE
FFFFFE
FFFFFE
FFFFFE
FFFFFE
ENDCHAR
STARTCHAR 1EB4
ENCODING 7860
SWIDTH 562 0
DWIDTH 25 0
BBX 23 45 2 0
BITMAP
07E200
07FE00
07FE00
003E00
000000
0E0700
0E0700
0F0F00
07FE00
07FC00
01F800
000000
000000
00F000
07FE00
0FFF00
1FFF80
3FFFC0
7F9FE0
7E07E0
7C07E0
FC03F0
FC03F0
FC03F0
FC03F0
FC03F0
FC03F0
FC03F0
FC03F0
FC03F0
FC03F0
FC03F0
FC03F0
FC03F0
FC03F0
FC03F0
FC03F0
FC03F0
FC03F0
FC03F0
FFFFFE
FFFFFE
FFFFFE
FFFFFE
FFFFFE
ENDCHAR
STARTCHAR 1EB5
ENCODING 7861
SWIDTH 562 0
DWIDTH 25 0
BBX 23 45 2 0
BITMAP
07E200
07FE00
07FE00
003E00
000000
0E0700
0E0700
0F0F00
07FE00
07FC00
01F800
000000
000000
00F000
07FE00
0FFF00
1FFF80
3FFFC0
7F9FE0
7E07E0
7C07E0
FC03F0
FC03F0
FC03F0
FC03F0
FC03F0
FC03F0
FC03F0
FC03F0
FC03F0
FC03F0
FC03F0
FC03F0
FC03F0
FC03F0
FC03F0
FC03F0
FC03F0
FC03F0
FC03F0
FFFFFE
FFFFFE
FFFFFE
FFFFFE
FFFFFE
ENDCHAR
STARTCHAR 1EB6
ENCODING 7862
SWIDTH 562 0
DWIDTH 25 0
BBX 23 52 2 -12
BITMAP
0E0700
0E0700
0F0F00
07FE00
07FC00
01F800
000000
000000
00F000
07FE00
0FFF00
1FFF80
3FFFC0
7F9FE0
7E07E0
7C07E0
FC03F0
FC03F0
FC03F0
FC03F0
FC03F0
FC03F0
FC03F0
FC03F0
FC03F0
FC03F0
FC03F0
FC03F0
FC03F0
FC03F0
FC03F0
FC03F0
FC03F0
FC03F0
FC03F0
FFFFFE
FFFFFE
FFFFFE
FFFFFE
FFFFFE
000000
000000
000000
000000
000000
00F000
01F800
01FC00
03FC00
01FC00
01F800
00F000
ENDCHAR
STARTCHAR 1EB7
ENCODING 7863
SWIDTH 562 0
DWIDTH 25 0
BBX 23 52 2 -12
BITMAP
0E0700
0E0700
0F0F00
07FE00
07FC00
01F800
000000
000000
00F000
07FE00
0FFF00
1FFF80
3FFFC0
7F9FE0
7E07E0
7C07E0
FC03F0
FC03F0
FC03F0
FC03F0
FC03F0
FC03F0
FC03F0
FC03F0
FC03F0
FC03F0
FC03F0
FC03F0
FC03F0
FC03F0
FC03F0
FC03F0
FC03F0
FC03F0
FC03F0
FFFFFE
FFFFFE
FFFFFE
FFFFFE
FFFFFE
000000
000000
000000
000000
000000
00F000
01F800
01FC00
03FC00
01FC00
01F800
00F000
ENDCHAR
STARTCHAR 1EB8
ENCODING 7864
SWIDTH 495 0
DWIDTH 22 0
BBX 21 43 1 -12
BITMAP
1FFF00
1FFF00
1FFF00
1FFF00
1FFF00
1F8000
1F8000
1F8000
1F8000
1F8000
1F8000
1F8000
1F8000
FFFFC0
FFFFC0
FFFFC0
FFFFC0
FFFFC0
1F8000
1F8000
1F8000
1F8000
1F8000
1F8000
1F8000
1F8000
1FFFF8
1FFFF8
1FFFF8
1FFFF8
1FFFF8
000000
000000
000000
000000
000000
001C00
003E00
007F00
007F00
007F00
007F00
003E00
ENDCHAR
STARTCHAR 1EB9
ENCODING 7865
SWIDTH 495 0
DWIDTH 22 0
BBX 21 43 1 -12
BITMAP
1FFF00
1FFF00
1FFF00
1FFF00
1FFF00
1F8000
1F8000
1F8000
1F8000
1F8000
1F8000
1F8000
1F8000
FFFFC0
FFFFC0
FFFFC0
FFFFC0
FFFFC0
1F8000
1F8000
1F8000
1F8000
1F8000
1F8000
1F8000
1F8000
1FFFF8
1FFFF8
1FFFF8
1FFFF8
1FFFF8
000000
000000
000000
000000
000000
001C00
003E00
007F00
007F00
007F00
007F00
003E00
ENDCHAR
STARTCHAR 1EBA
ENCODING 7866
SWIDTH 495 0
DWIDTH 22 0
BBX 21 42 1 0
BITMAP
00E000
00F000
00F000
00E000
01E000
01E000
01E000
01E000
000000
000000
000000
1FFF00
1FFF00
1FFF00
1FFF00
1FFF00
1F8000
1F8000
1F8000
1F8000
1F8000
1F8000
1F8000
1F8000
FFFFC0
FFFFC0
FFFFC0
FFFFC0
FFFFC0
1F8000
1F8000
1F8000
1F8000
1F8000
1F8000
1F8000
1F8000
1FFFF8
1FFFF8
1FFFF8
1FFFF8
1FFFF8
ENDCHAR
STARTCHAR 1EBB
ENCODING 7867
SWIDTH 495 0
DWIDTH 22 0
BBX 21 42 1 0
BITMAP
00E000
00F000
00F000
00E000
01E000
01E000
01E000
01E000
000000
000000
000000
1FFF00
1FFF00
1FFF00
1FFF00
1FFF00
1F8000
1F8000
1F8000
1F8000
1F8000
1F8000
1F8000
1F8000
FFFFC0
FFFFC0
FFFFC0
FFFFC0
FFFFC0
1F8000
1F8000
1F8000
1F8000
1F8000
1F8000
1F8000
1F8000
1FFFF8
1FFFF8
1FFFF8
1FFFF8
1FFFF8
ENDCHAR
STARTCHAR 1EBC
ENCODING 7868
SWIDTH 495 0
DWIDTH 22 0
BBX 21 40 1 0
BITMAP
070000
0FFC00
0FFC00
0FFC00
007800
000000
000000
000000
000000
1FFF00
1FFF00
1FFF00
1FFF00
1FFF00
1F8000
1F8000
1F8000
1F8000
1F8000
1F8000
1F8000
1F8000
FFFFC0
FFFFC0
FFFFC0
FFFFC0
FFFFC0
1F8000
1F8000
1F8000
1F8000
1F8000
1F8000
1F8000
1F8000
1FFFF8
1FFFF8
1FFFF8
1FFFF8
1FFFF8
ENDCHAR
STARTCHAR 1EBD
ENCODING 7869
SWIDTH 495 0
DWIDTH 22 0
BBX 21 40 1 0
BITMAP
070000
0FFC00
0FFC00
0FFC00
007800
000000
000000
000000
000000
1FFF00
1FFF00
1FFF00
1FFF00
1FFF00
1F8000
1F8000
1F8000
1F8000
1F8000
1F8000
1F8000
1F8000
FFFFC0
FFFFC0
FFFFC0
FFFFC0
FFFFC0
1F8000
1F8000
1F8000
1F8000
1F8000
1F8000
1F8000
1F8000
1FFFF8
1FFFF8
1FFFF8
1FFFF8
1FFFF8
ENDCHAR
STARTCHAR 1EBE
ENCODING 7870
SWIDTH 495 0
DWIDTH 22 0
BBX 22 44 1 0
BITMAP
00003C
00003C
000078
000070
01F8E0
03F8E0
07FC00
0FBE00
0F1E00
1E0F00
000000
000000
000000
1FFF00
1FFF00
1FFF00
1FFF00
1FFF00
1F8000
1F8000
1F8000
1F8000
1F8000
1F8000
1F8000
1F8000
FFFFC0
FFFFC0
FFFFC0
FFFFC0
FFFFC0
1F8000
1F8000
1F8000
1F8000
1F8000
1F8000
1F8000
1F8000
1FFFF8
1FFFF8
1FFFF8
1FFFF8
1FFFF8
ENDCHAR
STARTCHAR 1EBF
ENCODING 7871
SWIDTH 495 0
DWIDTH 22 0
BBX 22 44 1 0
BITMAP
00003C
00003C
000078
000070
01F8E0
03F8E0
07FC00
0FBE00
0F1E00
1E0F00
000000
000000
000000
1FFF00
1FFF00
1FFF00
1FFF00
1FFF00
1F8000
1F8000
1F8000
1F8000
1F8000
1F8000
1F8000
1F8000
FFFFC0
FFFFC0
FFFFC0
FFFFC0
FFFFC0
1F8000
1F8000
1F8000
1F8000
1F8000
1F8000
1F8000
1F8000
1FFFF8
1FFFF8
1FFFF8
1FFFF8
1FFFF8
ENDCHAR
STARTCHAR 1EC0
ENCODING 7872
SWIDTH 495 0
DWIDTH 22 0
BBX 25 44 -3 0
BITMAP
F0000000
F0000000
78000000
38000000
3C1F0000
1C3F8000
007FC000
00FBE000
00F1E000
01E0F000
00000000
00000000
00000000
01FFF000
01FFF000
01FFF000
01FFF000
01FFF000
01F80000
01F80000
01F80000
01F80000
01F80000
01F80000
01F80000
01F80000
0FFFFC00
0FFFFC00
0FFFFC00
0FFFFC00
0FFFFC00
01F80000
01F80000
01F80000
01F80000
01F80000
01F80000
01F80000
01F80000
01FFFF80
01FFFF80
01FFFF80
01FFFF80
01FFFF80
ENDCHAR
STARTCHAR 1EC1
ENCODING 7873
SWIDTH 495 0
DWIDTH 22 0
BBX 25 44 -3 0
BITMAP
F0000000
F0000000
78000000
38000000
3C1F0000
1C3F8000
007FC000
00FBE000
00F1E000
01E0F000
00000000
00000000
00000000
01FFF000
01FFF000
01FFF000
01FFF000
01FFF000
01F80000
01F80000
01F80000
01F80000
01F80000
01F80000
01F80000
01F80000
0FFFFC00
0FFFFC00
0FFFFC00
0FFFFC00
0FFFFC00
01F80000
01F80000
01F80000
01F80000
01F80000
01F80000
01F80000
01F80000
01FFFF80
01FFFF80
01FFFF80
01FFFF80
01FFFF80
ENDCHAR
STARTCHAR 1EC2
ENCODING 7874
SWIDTH 495 0
DWIDTH 22 0
BBX 21 46 1 0
BITMAP
0000E0
0000E0
0000E0
0000E0
0001E0
0001C0
01F9C0
03F9E0
07FCE0
0FBE00
0F1E00
1E0F00
000000
000000
000000
1FFF00
1FFF00
1FFF00
1FFF00
1FFF00
1F8000
1F8000
1F8000
1F8000
1F8000
1F8000
1F8000
1F8000
FFFFC0
FFFFC0
FFFFC0
FFFFC0
FFFFC0
1F8000
1F8000
1F8000
1F8000
1F8000
1F8000
1F8000
1F8000
1FFFF8
1FFFF8
1FFFF8
1FFFF8
1FFFF8
ENDCHAR
STARTCHAR 1EC3
ENCODING 7875
SWIDTH 495 0
DWIDTH 22 0
BBX 21 46 1 0
BITMAP
0000E0
0000E0
0000E0
0000E0
0001E0
0001C0
01F9C0
03F9E0
07FCE0
0FBE00
0F1E00
1E0F00
000000
000000
000000
1FFF00
1FFF00
1FFF00
1FFF00
1FFF00
1F8000
1F8000
1F8000
1F8000
1F8000
1F8000
1F8000
1F8000
FFFFC0
FFFFC0
FFFFC0
FFFFC0
FFFFC0
1F8000
1F8000
1F8000
1F8000
1F8000
1F8000
1F8000
1F8000
1FFFF8
1FFFF8
1FFFF8
1FFFF8
1FFFF8
ENDCHAR
STARTCHAR 1EC4
ENCODING 7876
SWIDTH 495 0
DWIDTH 22 0
BBX 21 45 1 0
BITMAP
007C00
007FF0
007FF0
0067F0
000000
01F800
03F800
07FC00
0FBE00
0F1E00
1E0F00
000000
000000
000000
1FFF00
1FFF00
1FFF00
1FFF00
1FFF00
1F8000
1F8000
1F8000
1F8000
1F8000
1F8000
1F8000
1F8000
FFFFC0
FFFFC0
FFFFC0
FFFFC0
FFFFC0
1F8000
1F8000
1F8000
1F8000
1F8000
1F8000
1F8000
1F8000
1FFFF8
1FFFF8
1FFFF8
1FFFF8
1FFFF8
ENDCHAR
STARTCHAR 1EC5
ENCODING 7877
SWIDTH 495 0
DWIDTH 22 0
BBX 21 45 1 0
BITMAP
007C00
007FF0
007FF0
0067F0
000000
01F800
03F800
07FC00
0FBE00
0F1E00
1E0F00
000000
000000
000000
1FFF00
1FFF00
1FFF00
1FFF00
1FFF00
1F8000
1F8000
1F8000
1F8000
1F8000
1F8000
1F8000
1F8000
FFFFC0
FFFFC0
FFFFC0
FFFFC0
FFFFC0
1F8000
1F8000
1F8000
1F8000
1F8000
1F8000
1F8000
1F8000
1FFFF8
1FFFF8
1FFFF8
1FFFF8
1FFFF8
ENDCHAR
STARTCHAR 1EC6
ENCODING 7878
SWIDTH 495 0
DWIDTH 22 0
BBX 21 52 1 -12
BITMAP
01F800
03F800
07FC00
0FBE00
0F1E00
1E0F00
000000
000000
000000
1FFF00
1FFF00
1FFF00
1FFF00
1FFF00
1F8000
1F8000
1F8000
1F8000
1F8000
1F8000
1F8000
1F8000
FFFFC0
FFFFC0
FFFFC0
FFFFC0
FFFFC0
1F8000
1F8000
1F8000
1F8000
1F8000
1F8000
1F8000
1F8000
1FFFF8
1FFFF8
1FFFF8
1FFFF8
1FFFF8
000000
000000
000000
000000
000000
001C00
003E00
007F00
007F00
007F00
007F00
003E00
ENDCHAR
STARTCHAR 1EC7
ENCODING 7879
SWIDTH 495 0
DWIDTH 22 0
BBX 21 52 1 -12
BITMAP
01F800
03F800
07FC00
0FBE00
0F1E00
1E0F00
000000
000000
000000
1FFF00
1FFF00
1FFF00
1FFF00
1FFF00
1F8000
1F8000
1F8000
1F8000
1F8000
1F8000
1F8000
1F8000
FFFFC0
FFFFC0
FFFFC0
FFFFC0
FFFFC0
1F8000
1F8000
1F8000
1F8000
1F8000
1F8000
1F8000
1F8000
1FFFF8
1FFFF8
1FFFF8
1FFFF8
1FFFF8
000000
000000
000000
000000
000000
001C00
003E00
007F00
007F00
007F00
007F00
003E00
ENDCHAR
STARTCHAR 1EC8
ENCODING 7880
SWIDTH 225 0
DWIDTH 10 0
BBX 6 30 2 0
BITMAP
38
38
38
38
70
70
70
78
00
00
00
FC
FC
FC
FC
FC
FC
FC
FC
FC
FC
FC
FC
FC
FC
FC
FC
FC
FC
FC
ENDCHAR
STARTCHAR 1EC9
ENCODING 7881
SWIDTH 225 0
DWIDTH 10 0
BBX 6 30 2 0
BITMAP
38
38
38
38
70
70
70
78
00
00
00
FC
FC
FC
FC
FC
FC
FC
FC
FC
FC
FC
FC
FC
FC
FC
FC
FC
FC
FC
ENDCHAR
STARTCHAR 1ECA
ENCODING 7882
SWIDTH 225 0
DWIDTH 10 0
BBX 12 47 -1 -11
BITMAP
0400
0600
0600
0F00
FFF0
7FE0
1F80
1F80
1F80
1980
30C0
0000
0000
0000
0000
0000
1F80
1F80
1F80
1F80
1F80
1F80
1F80
1F80
1F80
1F80
1F80
1F80
1F80
1F80
1F80
1F80
1F80
1F80
1F80
0000
0000
0000
0000
0000
0F00
1F80
1F80
3FC0
1F80
1F80
0F00
ENDCHAR
STARTCHAR 1ECB
ENCODING 7883
SWIDTH 225 0
DWIDTH 10 0
BBX 12 47 -1 -11
BITMAP
0400
0600
0600
0F00
FFF0
7FE0
1F80
1F80
1F80
1980
30C0
0000
0000
0000
0000
0000
1F80
1F80
1F80
1F80
1F80
1F80
1F80
1F80
1F80
1F80
1F80
1F80
1F80
1F80
1F80
1F80
1F80
1F80
1F80
0000
0000
0000
0000
0000
0F00
1F80
1F80
3FC0
1F80
1F80
0F00
ENDCHAR
STARTCHAR 1ECC
ENCODING 7884
SWIDTH 810 0
DWIDTH 36 0
BBX 33 44 2 -12
BITMAP
0007E00000
003FFE0000
01FFFF8000
03FFFFC000
07FFFFF000
0FFE3FF800
1FE007FC00
3FC001FC00
3F0000FE00
7E00007E00
7E00003F00
FC00003F00
FC00001F00
F800001F80
F800001F80
F800001F80
F800001F80
F800001F80
F800001F80
F800001F80
FC00001F00
FC00003F00
7E00003F00
7F00007E00
3F0000FE00
3FC001FC00
1FF007FC00
0FFFFFF800
07FFFFF000
03FFFFC000
00FFFF8000
003FFE0000
0003C00000
0000000000
0000000000
0000000000
0000000000
0003C00000
0007E00000
0007F00000
0007F00000
0007F00000
0007E00000
0003C00000
ENDCHAR
STARTCHAR 1ECD
ENCODING 7885
SWIDTH 810 0
DWIDTH 36 0
BBX 33 44 2 -12
BITMAP
0007E00000
003FFE0000
01FFFF8000
03FFFFC000
07FFFFF000
0FFE3FF800
1FE007FC00
3FC001FC00
3F0000FE00
7E00007E00
7E00003F00
FC00003F00
FC00001F00
F800001F80
F800001F80
F800001F80
F800001F80
F800001F80
F800001F80
F800001F80
FC00001F00
FC00003F00
7E00003F00
7F00007E00
3F0000FE00
3FC001FC00
1FF007FC00
0FFFFFF800
07FFFFF000
03FFFFC000
00FFFF8000
003FFE0000
0003C00000
0000000000
0000000000
0000000000
0000000000
0003C00000
0007E00000
0007F00000
0007F00000
0007F00000
0007E00000
0003C00000
ENDCHAR
STARTCHAR 1ECE
ENCODING 7886
SWIDTH 810 0
DWIDTH 36 0
BBX 33 43 2 -1
BITMAP
0001C00000
0001C00000
0001C00000
0001C00000
0003C00000
0003800000
0003800000
0003C00000
0000000000
0000000000
0007E00000
003FFE0000
01FFFF8000
03FFFFC000
07FFFFF000
0FFE3FF800
1FE007FC00
3FC001FC00
3F0000FE00
7E00007E00
7E00003F00
FC00003F00
FC00001F00
F800001F80
F800001F80
F800001F80
F800001F80
F800001F80
F800001F80
F800001F80
FC00001F00
FC00003F00
7E00003F00
7F00007E00
3F0000FE00
3FC001FC00
1FF007FC00
0FFFFFF800
07FFFFF000
03FFFFC000
00FFFF8000
003FFE0000
0003C00000
ENDCHAR
STARTCHAR 1ECF
ENCODING 7887
SWIDTH 810 0
DWIDTH 36 0
BBX 33 43 2 -1
BITMAP
0001C00000
0001C00000
0001C00000
0001C00000
0003C00000
0003800000
0003800000
0003C00000
0000000000
0000000000
0007E00000
003FFE0000
01FFFF8000
03FFFFC000
07FFFFF000
0FFE3FF800
1FE007FC00
3FC001FC00
3F0000FE00
7E00007E00
7E00003F00
FC00003F00
FC00001F00
F800001F80
F800001F80
F800001F80
F800001F80
F800001F80
F800001F80
F800001F80
FC00001F00
FC00003F00
7E00003F00
7F00007E00
3F0000FE00
3FC001FC00
1FF007FC00
0FFFFFF800
07FFFFF000
03FFFFC000
00FFFF8000
003FFE0000
0003C00000
ENDCHAR
STARTCHAR 1ED0
ENCODING 7888
SWIDTH 810 0
DWIDTH 36 0
BBX 33 45 2 -1
BITMAP
0000007800
000000F000
000000F000
000001E000
0007E1C000
0007F38000
000FF80000
001F780000
003E3C0000
003C3E0000
0000000000
0000000000
0007E00000
003FFE0000
01FFFF8000
03FFFFC000
07FFFFF000
0FFE3FF800
1FE007FC00
3FC001FC00
3F0000FE00
7E00007E00
7E00003F00
FC00003F00
FC00001F00
F800001F80
F800001F80
F800001F80
F800001F80
F800001F80
F800001F80
F800001F80
FC00001F00
FC00003F00
7E00003F00
7F00007E00
3F0000FE00
3FC001FC00
1FF007FC00
0FFFFFF800
07FFFFF000
03FFFFC000
00FFFF8000
003FFE0000
0003C00000
ENDCHAR
STARTCHAR 1ED1
ENCODING 7889
SWIDTH 810 0
DWIDTH 36 0
BBX 33 45 2 -1
BITMAP
0000007800
000000F000
000000F000
000001E000
0007E1C000
0007F38000
000FF80000
001F780000
003E3C0000
003C3E0000
0000000000
0000000000
0007E00000
003FFE0000
01FFFF8000
03FFFFC000
07FFFFF000
0FFE3FF800
1FE007FC00
3FC001FC00
3F0000FE00
7E00007E00
7E00003F00
FC00003F00
FC00001F00
F800001F80
F800001F80
F800001F80
F800001F80
F800001F80
F800001F80
F800001F80
FC00001F00
FC00003F00
7E00003F00
7F00007E00
3F0000FE00
3FC001FC00
1FF007FC00
0FFFFFF800
07FFFFF000
03FFFFC000
00FFFF8000
003FFE0000
0003C00000
ENDCHAR
STARTCHAR 1ED2
ENCODING 7890
SWIDTH 810 0
DWIDTH 36 0
BBX 33 45 2 -1
BITMAP
3E00000000
1E00000000
0F00000000
0700000000
0787E00000
0387F00000
000FF80000
001F780000
003E3C0000
003C3E0000
0000000000
0000000000
0007E00000
003FFE0000
01FFFF8000
03FFFFC000
07FFFFF000
0FFE3FF800
1FE007FC00
3FC001FC00
3F0000FE00
7E00007E00
7E00003F00
FC00003F00
FC00001F00
F800001F80
F800001F80
F800001F80
F800001F80
F800001F80
F800001F80
F800001F80
FC00001F00
FC00003F00
7E00003F00
7F00007E00
3F0000FE00
3FC001FC00
1FF007FC00
0FFFFFF800
07FFFFF000
03FFFFC000
00FFFF8000
003FFE0000
0003C00000
ENDCHAR
STARTCHAR 1ED3
ENCODING 7891
SWIDTH 810 0
DWIDTH 36 0
BBX 33 45 2 -1
BITMAP
3E00000000
1E00000000
0F00000000
0700000000
0787E00000
0387F00000
000FF80000
001F780000
003E3C0000
003C3E0000
0000000000
0000000000
0007E00000
003FFE0000
01FFFF8000
03FFFFC000
07FFFFF000
0FFE3FF800
1FE007FC00
3FC001FC00
3F0000FE00
7E00007E00
7E00003F00
FC00003F00
FC00001F00
F800001F80
F800001F80
F800001F80
F800001F80
F800001F80
F800001F80
F800001F80
FC00001F00
FC00003F00
7E00003F00
7F00007E00
3F0000FE00
3FC001FC00
1FF007FC00
0FFFFFF800
07FFFFF000
03FFFFC000
00FFFF8000
003FFE0000
0003C00000
ENDCHAR
STARTCHAR 1ED4
ENCODING 7892
SWIDTH 810 0
DWIDTH 36 0
BBX 33 47 2 -1
BITMAP
000001C000
000001C000
000001C000
000001C000
000003C000
0000038000
0007E38000
0007F38000
000FFBC000
001F780000
003E3C0000
003C3E0000
0000000000
0000000000
0007E00000
003FFE0000
01FFFF8000
03FFFFC000
07FFFFF000
0FFE3FF800
1FE007FC00
3FC001FC00
3F0000FE00
7E00007E00
7E00003F00
FC00003F00
FC00001F00
F800001F80
F800001F80
F800001F80
F800001F80
F800001F80
F800001F80
F800001F80
FC00001F00
FC00003F00
7E00003F00
7F00007E00
3F0000FE00
3FC001FC00
1FF007FC00
0FFFFFF800
07FFFFF000
03FFFFC000
00FFFF8000
003FFE0000
0003C00000
ENDCHAR
STARTCHAR 1ED5
ENCODING 7893
SWIDTH 810 0
DWIDTH 36 0
BBX 33 47 2 -1
BITMAP
000001C000
000001C000
000001C000
000001C000
000003C000
0000038000
0007E38000
0007F38000
000FFBC000
001F780000
003E3C0000
003C3E0000
0000000000
0000000000
0007E00000
003FFE0000
01FFFF8000
03FFFFC000
07FFFFF000
0FFE3FF800
1FE007FC00
3FC001FC00
3F0000FE00
7E00007E00
7E00003F00
FC00003F00
FC00001F00
F800001F80
F800001F80
F800001F80
F800001F80
F800001F80
F800001F80
F800001F80
FC00001F00
FC00003F00
7E00003F00
7F00007E00
3F0000FE00
3FC001FC00
1FF007FC00
0FFFFFF800
07FFFFF000
03FFFFC000
00FFFF8000
003FFE0000
0003C00000
ENDCHAR
STARTCHAR 1ED6
ENCODING 7894
SWIDTH 810 0
DWIDTH 36 0
BBX 33 46 2 -1
BITMAP
0000F80000
0000FFC000
0000FFC000
0000DFC000
0000000000
0007E00000
0007F00000
000FF80000
001F780000
003E3C0000
003C3E0000
0000000000
0000000000
0007E00000
003FFE0000
01FFFF8000
03FFFFC000
07FFFFF000
0FFE3FF800
1FE007FC00
3FC001FC00
3F0000FE00
7E00007E00
7E00003F00
FC00003F00
FC00001F00
F800001F80
F800001F80
F800001F80
F800001F80
F800001F80
F800001F80
F800001F80
FC00001F00
FC00003F00
7E00003F00
7F00007E00
3F0000FE00
3FC001FC00
1FF007FC00
0FFFFFF800
07FFFFF000
03FFFFC000
00FFFF8000
003FFE0000
0003C00000
ENDCHAR
STARTCHAR 1ED7
ENCODING 7895
SWIDTH 810 0
DWIDTH 36 0
BBX 33 46 2 -1
BITMAP
0000F80000
0000FFC000
0000FFC000
0000DFC000
0000000000
0007E00000
0007F00000
000FF80000
001F780000
003E3C0000
003C3E0000
0000000000
0000000000
0007E00000
003FFE0000
01FFFF8000
03FFFFC000
07FFFFF000
0FFE3FF800
1FE007FC00
3FC001FC00
3F0000FE00
7E00007E00
7E00003F00
FC00003F00
FC00001F00
F800001F80
F800001F80
F800001F80
F800001F80
F800001F80
F800001F80
F800001F80
FC00001F00
FC00003F00
7E00003F00
7F00007E00
3F0000FE00
3FC001FC00
1FF007FC00
0FFFFFF800
07FFFFF000
03FFFFC000
00FFFF8000
003FFE0000
0003C00000
ENDCHAR
STARTCHAR 1ED8
ENCODING 7896
SWIDTH 810 0
DWIDTH 36 0
BBX 33 52 2 -12
BITMAP
0007E00000
0007F00000
000FF80000
001F780000
003E3C0000
003C3E0000
0000000000
0000000000
0007E00000
003FFE0000
01FFFF8000
03FFFFC000
07FFFFF000
0FFE3FF800
1FE007FC00
3FC001FC00
3F0000FE00
7E00007E00
7E00003F00
FC00003F00
FC00001F00
F800001F80
F800001F80
F800001F80
F800001F80
F800001F80
F800001F80
F800001F80
FC00001F00
FC00003F00
7E00003F00
7F00007E00
3F0000FE00
3FC001FC00
1FF007FC00
0FFFFFF800
07FFFFF000
03FFFFC000
00FFFF8000
003FFE0000
0003C00000
0000000000
0000000000
0000000000
0000000000
0003C00000
0007E00000
0007F00000
0007F00000
0007F00000
0007E00000
0003C00000
ENDCHAR
STARTCHAR 1ED9
ENCODING 7897
SWIDTH 810 0
DWIDTH 36 0
BBX 33 52 2 -12
BITMAP
0007E00000
0007F00000
000FF80000
001F780000
003E3C0000
003C3E0000
0000000000
0000000000
0007E00000
003FFE0000
01FFFF8000
03FFFFC000
07FFFFF000
0FFE3FF800
1FE007FC00
3FC001FC00
3F0000FE00
7E00007E00
7E00003F00
FC00003F00
FC00001F00
F800001F80
F800001F80
F800001F80
F800001F80
F800001F80
F800001F80
F800001F80
FC00001F00
FC00003F00
7E00003F00
7F00007E00
3F0000FE00
3FC001FC00
1FF007FC00
0FFFFFF800
07FFFFF000
03FFFFC000
00FFFF8000
003FFE0000
0003C00000
0000000000
0000000000
0000000000
0000000000
0003C00000
0007E00000
0007F00000
0007F00000
0007F00000
0007E00000
0003C00000
ENDCHAR
STARTCHAR 1EDA
ENCODING 7898
SWIDTH 810 0
DWIDTH 36 0
BBX 33 41 2 -1
BITMAP
0000780000
0000780000
0000F00000
0000E00000
0001C00000
0001C01E00
0000001E00
0000003C00
0007E03C00
003FFFF800
01FFFFF000
03FFFFE000
07FFFFF000
0FFE3FF800
1FE007FC00
3FC001FC00
3F0000FE00
7E00007E00
7E00003F00
FC00003F00
FC00001F80
F800001F80
F800001F80
F800001F80
F800001F80
F800001F80
F800001F80
F800001F80
FC00001F00
FC00003F00
7E00003F00
7F00007E00
3F0000FE00
3FC001FC00
1FF007FC00
0FFFFFF800
07FFFFF000
03FFFFC000
00FFFF8000
003FFE0000
0003C00000
ENDCHAR
STARTCHAR 1EDB
ENCODING 7899
SWIDTH 810 0
DWIDTH 36 0
BBX 33 41 2 -1
BITMAP
0000780000
0000780000
0000F00000
0000E00000
0001C00000
0001C01E00
0000001E00
0000003C00
0007E03C00
003FFFF800
01FFFFF000
03FFFFE000
07FFFFF000
0FFE3FF800
1FE007FC00
3FC001FC00
3F0000FE00
7E00007E00
7E00003F00
FC00003F00
FC00001F80
F800001F80
F800001F80
F800001F80
F800001F80
F800001F80
F800001F80
F800001F80
FC00001F00
FC00003F00
7E00003F00
7F00007E00
3F0000FE00
3FC001FC00
1FF007FC00
0FFFFFF800
07FFFFF000
03FFFFC000
00FFFF8000
003FFE0000
0003C00000
ENDCHAR
STARTCHAR 1EDC
ENCODING 7900
SWIDTH 810 0
DWIDTH 36 0
BBX 33 41 2 -1
BITMAP
001F000000
000F000000
0007800000
0007800000
0003C00000
0001C01E00
0000001E00
0000003C00
0007E03C00
003FFFF800
01FFFFF000
03FFFFE000
07FFFFF000
0FFE3FF800
1FE007FC00
3FC001FC00
3F0000FE00
7E00007E00
7E00003F00
FC00003F00
FC00001F80
F800001F80
F800001F80
F800001F80
F800001F80
F800001F80
F800001F80
F800001F80
FC00001F00
FC00003F00
7E00003F00
7F00007E00
3F0000FE00
3FC001FC00
1FF007FC00
0FFFFFF800
07FFFFF000
03FFFFC000
00FFFF8000
003FFE0000
0003C00000
ENDCHAR
STARTCHAR 1EDD
ENCODING 7901
SWIDTH 810 0
DWIDTH 36 0
BBX 33 41 2 -1
BITMAP
001F000000
000F000000
0007800000
0007800000
0003C00000
0001C01E00
0000001E00
0000003C00
0007E03C00
003FFFF800
01FFFFF000
03FFFFE000
07FFFFF000
0FFE3FF800
1FE007FC00
3FC001FC00
3F0000FE00
7E00007E00
7E00003F00
FC00003F00
FC00001F80
F800001F80
F800001F80
F800001F80
F800001F80
F800001F80
F800001F80
F800001F80
FC00001F00
FC00003F00
7E00003F00
7F00007E00
3F0000FE00
3FC001FC00
1FF007FC00
0FFFFFF800
07FFFFF000
03FFFFC000
00FFFF8000
003FFE0000
0003C00000
ENDCHAR
STARTCHAR 1EDE
ENCODING 7902
SWIDTH 810 0
DWIDTH 36 0
BBX 33 43 2 -1
BITMAP
0001C00000
0001C00000
0001C00000
0001C00000
0003C00000
0003800000
0003800000
0003C01E00
0000001E00
0000003C00
0007E03C00
003FFFF800
01FFFFF000
03FFFFE000
07FFFFF000
0FFE3FF800
1FE007FC00
3FC001FC00
3F0000FE00
7E00007E00
7E00003F00
FC00003F00
FC00001F80
F800001F80
F800001F80
F800001F80
F800001F80
F800001F80
F800001F80
F800001F80
FC00001F00
FC00003F00
7E00003F00
7F00007E00
3F0000FE00
3FC001FC00
1FF007FC00
0FFFFFF800
07FFFFF000
03FFFFC000
00FFFF8000
003FFE0000
0003C00000
ENDCHAR
STARTCHAR 1EDF
ENCODING 7903
SWIDTH 810 0
DWIDTH 36 0
BBX 33 43 2 -1
BITMAP
0001C00000
0001C00000
0001C00000
0001C00000
0003C00000
0003800000
0003800000
0003C01E00
0000001E00
0000003C00
0007E03C00
003FFFF800
01FFFFF000
03FFFFE000
07FFFFF000
0FFE3FF800
1FE007FC00
3FC001FC00
3F0000FE00
7E00007E00
7E00003F00
FC00003F00
FC00001F80
F800001F80
F800001F80
F800001F80
F800001F80
F800001F80
F800001F80
F800001F80
FC00001F00
FC00003F00
7E00003F00
7F00007E00
3F0000FE00
3FC001FC00
1FF007FC00
0FFFFFF800
07FFFFF000
03FFFFC000
00FFFF8000
003FFE0000
0003C00000
ENDCHAR
STARTCHAR 1EE0
ENCODING 7904
SWIDTH 810 0
DWIDTH 36 0
BBX 33 41 2 -1
BITMAP
000C000000
003FF80000
003FF80000
003FF80000
0000F00000
0000001E00
0000001E00
0000003C00
0007E03C00
003FFFF800
01FFFFF000
03FFFFE000
07FFFFF000
0FFE3FF800
1FE007FC00
3FC001FC00
3F0000FE00
7E00007E00
7E00003F00
FC00003F00
FC00001F80
F800001F80
F800001F80
F800001F80
F800001F80
F800001F80
F800001F80
F800001F80
FC00001F00
FC00003F00
7E00003F00
7F00007E00
3F0000FE00
3FC001FC00
1FF007FC00
0FFFFFF800
07FFFFF000
03FFFFC000
00FFFF8000
003FFE0000
0003C00000
ENDCHAR
STARTCHAR 1EE1
ENCODING 7905
SWIDTH 810 0
DWIDTH 36 0
BBX 33 41 2 -1
BITMAP
000C000000
003FF80000
003FF80000
003FF80000
0000F00000
0000001E00
0000001E00
0000003C00
0007E03C00
003FFFF800
01FFFFF000
03FFFFE000
07FFFFF000
0FFE3FF800
1FE007FC00
3FC001FC00
3F0000FE00
7E00007E00
7E00003F00
FC00003F00
FC00001F80
F800001F80
F800001F80
F800001F80
F800001F80
F800001F80
F800001F80
F800001F80
FC00001F00
FC00003F00
7E00003F00
7F00007E00
3F0000FE00
3FC001FC00
1FF007FC00
0FFFFFF800
07FFFFF000
03FFFFC000
00FFFF8000
003FFE0000
0003C00000
ENDCHAR
STARTCHAR 1EE2
ENCODING 7906
SWIDTH 810 0
DWIDTH 36 0
BBX 33 47 2 -12
BITMAP
0000001E00
0000001E00
0000003C00
0007E03C00
003FFFF800
01FFFFF000
03FFFFE000
07FFFFF000
0FFE3FF800
1FE007FC00
3FC001FC00
3F0000FE00
7E00007E00
7E00003F00
FC00003F00
FC00001F80
F800001F80
F800001F80
F800001F80
F800001F80
F800001F80
F800001F80
F800001F80
FC00001F00
FC00003F00
7E00003F00
7F00007E00
3F0000FE00
3FC001FC00
1FF007FC00
0FFFFFF800
07FFFFF000
03FFFFC000
00FFFF8000
003FFE0000
0003C00000
0000000000
0000000000
0000000000
0000000000
0003C00000
0007E00000
0007F00000
0007F00000
0007F00000
0007E00000
0003C00000
ENDCHAR
STARTCHAR 1EE3
ENCODING 7907
SWIDTH 810 0
DWIDTH 36 0
BBX 33 47 2 -12
BITMAP
0000001E00
0000001E00
0000003C00
0007E03C00
003FFFF800
01FFFFF000
03FFFFE000
07FFFFF000
0FFE3FF800
1FE007FC00
3FC001FC00
3F0000FE00
7E00007E00
7E00003F00
FC00003F00
FC00001F80
F800001F80
F800001F80
F800001F80
F800001F80
F800001F80
F800001F80
F800001F80
FC00001F00
FC00003F00
7E00003F00
7F00007E00
3F0000FE00
3FC001FC00
1FF007FC00
0FFFFFF800
07FFFFF000
03FFFFC000
00FFFF8000
003FFE0000
0003C00000
0000000000
0000000000
0000000000
0000000000
0003C00000
0007E00000
0007F00000
0007F00000
0007F00000
0007E00000
0003C00000
ENDCHAR
STARTCHAR 1EE4
ENCODING 7908
SWIDTH 517 0
DWIDTH 23 0
BBX 20 43 2 -12
BITMAP
FC03F0
FC03F0
FC03F0
FC03F0
FC03F0
FC03F0
FC03F0
FC03F0
FC03F0
FC03F0
FC03F0
FC03F0
FC03F0
FC03F0
FC03F0
FC03F0
FC03F0
FC03F0
FC03F0
FC03F0
FC03F0
FC03E0
FC03E0
FC03E0
FC07E0
7E0FE0
7FFFC0
3FFFC0
3FFF80
1FFF00
07FE00
00F000
000000
000000
000000
000000
00F000
01F800
03F800
03F800
03F800
01F800
00F000
ENDCHAR
STARTCHAR 1EE5
ENCODING 7909
SWIDTH 517 0
DWIDTH 23 0
BBX 20 43 2 -12
BITMAP
FC03F0
FC03F0
FC03F0
FC03F0
FC03F0
FC03F0
FC03F0
FC03F0
FC03F0
FC03F0
FC03F0
FC03F0
FC03F0
FC03F0
FC03F0
FC03F0
FC03F0
FC03F0
FC03F0
FC03F0
FC03F0
FC03E0
FC03E0
FC03E0
FC07E0
7E0FE0
7FFFC0
3FFFC0
3FFF80
1FFF00
07FE00
00F000
000000
000000
000000
000000
00F000
01F800
03F800
03F800
03F800
01F800
00F000
ENDCHAR
STARTCHAR 1EE6
ENCODING 7910
SWIDTH 517 0
DWIDTH 23 0
BBX 20 43 2 -1
BITMAP
00F000
00F000
00F000
00E000
00E000
01E000
01E000
00E000
000000
000000
000000
FC03F0
FC03F0
FC03F0
FC03F0
FC03F0
FC03F0
FC03F0
FC03F0
FC03F0
FC03F0
FC03F0
FC03F0
FC03F0
FC03F0
FC03F0
FC03F0
FC03F0
FC03F0
FC03F0
FC03F0
FC03F0
FC03E0
FC03E0
FC03E0
FC07E0
7E0FE0
7FFFC0
3FFFC0
3FFF80
1FFF00
07FE00
00F000
ENDCHAR
STARTCHAR 1EE7
ENCODING 7911
SWIDTH 517 0
DWIDTH 23 0
BBX 20 43 2 -1
BITMAP
00F000
00F000
00F000
00E000
00E000
01E000
01E000
00E000
000000
000000
000000
FC03F0
FC03F0
FC03F0
FC03F0
FC03F0
FC03F0
FC03F0
FC03F0
FC03F0
FC03F0
FC03F0
FC03F0
FC03F0
FC03F0
FC03F0
FC03F0
FC03F0
FC03F0
FC03F0
FC03F0
FC03F0
FC03E0
FC03E0
FC03E0
FC07E0
7E0FE0
7FFFC0
3FFFC0
3FFF80
1FFF00
07FE00
00F000
ENDCHAR
STARTCHAR 1EE8
ENCODING 7912
SWIDTH 517 0
DWIDTH 23 0
BBX 23 41 2 -1
BITMAP
001E00
003C00
003800
007800
007000
00E00E
00000E
00000E
00001C
FC03FC
FC03F0
FC03F0
FC03F0
FC03F0
FC03F0
FC03F0
FC03F0
FC03F0
FC03F0
FC03F0
FC03F0
FC03F0
FC03F0
FC03F0
FC03F0
FC03F0
FC03F0
FC03F0
FC03F0
FC03F0
FC03E0
FC03E0
FC03E0
FC07E0
7E0FE0
7FFFC0
3FFFC0
3FFF80
1FFF00
07FE00
00F000
ENDCHAR
STARTCHAR 1EE9
ENCODING 7913
SWIDTH 517 0
DWIDTH 23 0
BBX 23 41 2 -1
BITMAP
001E00
003C00
003800
007800
007000
00E00E
00000E
00000E
00001C
FC03FC
FC03F0
FC03F0
FC03F0
FC03F0
FC03F0
FC03F0
FC03F0
FC03F0
FC03F0
FC03F0
FC03F0
FC03F0
FC03F0
FC03F0
FC03F0
FC03F0
FC03F0
FC03F0
FC03F0
FC03F0
FC03E0
FC03E0
FC03E0
FC07E0
7E0FE0
7FFFC0
3FFFC0
3FFF80
1FFF00
07FE00
00F000
ENDCHAR
STARTCHAR 1EEA
ENCODING 7914
SWIDTH 517 0
DWIDTH 23 0
BBX 23 41 2 -1
BITMAP
078000
07C000
03C000
01E000
00E000
00F00E
00000E
00000E
00001C
FC03FC
FC03F0
FC03F0
FC03F0
FC03F0
FC03F0
FC03F0
FC03F0
FC03F0
FC03F0
FC03F0
FC03F0
FC03F0
FC03F0
FC03F0
FC03F0
FC03F0
FC03F0
FC03F0
FC03F0
FC03F0
FC03E0
FC03E0
FC03E0
FC07E0
7E0FE0
7FFFC0
3FFFC0
3FFF80
1FFF00
07FE00
00F000
ENDCHAR
STARTCHAR 1EEB
ENCODING 7915
SWIDTH 517 0
DWIDTH 23 0
BBX 23 41 2 -1
BITMAP
078000
07C000
03C000
01E000
00E000
00F00E
00000E
00000E
00001C
FC03FC
FC03F0
FC03F0
FC03F0
FC03F0
FC03F0
FC03F0
FC03F0
FC03F0
FC03F0
FC03F0
FC03F0
FC03F0
FC03F0
FC03F0
FC03F0
FC03F0
FC03F0
FC03F0
FC03F0
FC03F0
FC03E0
FC03E0
FC03E0
FC07E0
7E0FE0
7FFFC0
3FFFC0
3FFF80
1FFF00
07FE00
00F000
ENDCHAR
STARTCHAR 1EEC
ENCODING 7916
SWIDTH 517 0
DWIDTH 23 0
BBX 23 43 2 -1
BITMAP
00F000
00F000
00F000
00E000
00E000
01E000
01E000
00E00E
00000E
00000E
00001C
FC03FC
FC03F0
FC03F0
FC03F0
FC03F0
FC03F0
FC03F0
FC03F0
FC03F0
FC03F0
FC03F0
FC03F0
FC03F0
FC03F0
FC03F0
FC03F0
FC03F0
FC03F0
FC03F0
FC03F0
FC03F0
FC03E0
FC03E0
FC03E0
FC07E0
7E0FE0
7FFFC0
3FFFC0
3FFF80
1FFF00
07FE00
00F000
ENDCHAR
STARTCHAR 1EED
ENCODING 7917
SWIDTH 517 0
DWIDTH 23 0
BBX 23 43 2 -1
BITMAP
00F000
00F000
00F000
00E000
00E000
01E000
01E000
00E00E
00000E
00000E
00001C
FC03FC
FC03F0
FC03F0
FC03F0
FC03F0
FC03F0
FC03F0
FC03F0
FC03F0
FC03F0
FC03F0
FC03F0
FC03F0
FC03F0
FC03F0
FC03F0
FC03F0
FC03F0
FC03F0
FC03F0
FC03F0
FC03E0
FC03E0
FC03E0
FC07E0
7E0FE0
7FFFC0
3FFFC0
3FFF80
1FFF00
07FE00
00F000
ENDCHAR
STARTCHAR 1EEE
ENCODING 7918
SWIDTH 517 0
DWIDTH 23 0
BBX 23 41 2 -1
BITMAP
070000
0FFC00
0FFC00
0FFC00
003C00
00000E
00000E
00000E
00001C
FC03FC
FC03F0
FC03F0
FC03F0
FC03F0
FC03F0
FC03F0
FC03F0
FC03F0
FC03F0
FC03F0
FC03F0
FC03F0
FC03F0
FC03F0
FC03F0
FC03F0
FC03F0
FC03F0
FC03F0
FC03F0
FC03E0
FC03E0
FC03E0
FC07E0
7E0FE0
7FFFC0
3FFFC0
3FFF80
1FFF00
07FE00
00F000
ENDCHAR
STARTCHAR 1EEF
ENCODING 7919
SWIDTH 517 0
DWIDTH 23 0
BBX 23 41 2 -1
BITMAP
070000
0FFC00
0FFC00
0FFC00
003C00
00000E
00000E
00000E
00001C
FC03FC
FC03F0
FC03F0
FC03F0
FC03F0
FC03F0
FC03F0
FC03F0
FC03F0
FC03F0
FC03F0
FC03F0
FC03F0
FC03F0
FC03F0
FC03F0
FC03F0
FC03F0
FC03F0
FC03F0
FC03F0
FC03E0
FC03E0
FC03E0
FC07E0
7E0FE0
7FFFC0
3FFFC0
3FFF80
1FFF00
07FE00
00F000
ENDCHAR
STARTCHAR 1EF0
ENCODING 7920
SWIDTH 517 0
DWIDTH 23 0
BBX 23 47 2 -12
BITMAP
00000E
00000E
00000E
00001C
FC03FC
FC03F0
FC03F0
FC03F0
FC03F0
FC03F0
FC03F0
FC03F0
FC03F0
FC03F0
FC03F0
FC03F0
FC03F0
FC03F0
FC03F0
FC03F0
FC03F0
FC03F0
FC03F0
FC03F0
FC03F0
FC03E0
FC03E0
FC03E0
FC07E0
7E0FE0
7FFFC0
3FFFC0
3FFF80
1FFF00
07FE00
00F000
000000
000000
000000
000000
00F000
01F800
03F800
03F800
03F800
01F800
00F000
ENDCHAR
STARTCHAR 1EF1
ENCODING 7921
SWIDTH 517 0
DWIDTH 23 0
BBX 23 47 2 -12
BITMAP
00000E
00000E
00000E
00001C
FC03FC
FC03F0
FC03F0
FC03F0
FC03F0
FC03F0
FC03F0
FC03F0
FC03F0
FC03F0
FC03F0
FC03F0
FC03F0
FC03F0
FC03F0
FC03F0
FC03F0
FC03F0
FC03F0
FC03F0
FC03F0
FC03E0
FC03E0
FC03E0
FC07E0
7E0FE0
7FFFC0
3FFFC0
3FFF80
1FFF00
07FE00
00F000
000000
000000
000000
000000
00F000
01F800
03F800
03F800
03F800
01F800
00F000
ENDCHAR
STARTCHAR 1EF2
ENCODING 7922
SWIDTH 517 0
DWIDTH 23 0
BBX 19 40 2 0
BITMAP
078000
078000
03C000
01C000
01E000
00E000
000000
000000
000000
F803E0
F803E0
F803E0
F803E0
F803E0
F803E0
F803E0
F803E0
F803E0
F803E0
F803E0
F803E0
F803E0
F803E0
F803E0
FC07E0
FC07E0
FE0FE0
7F1FC0
7FFFC0
3FFF80
1FFF00
0FFE00
01F000
01F000
01F000
01F000
01F000
01F000
01F000
01F000
ENDCHAR
STARTCHAR 1EF3
ENCODING 7923
SWIDTH 517 0
DWIDTH 23 0
BBX 19 40 2 0
BITMAP
078000
078000
03C000
01C000
01E000
00E000
000000
000000
000000
F803E0
F803E0
F803E0
F803E0
F803E0
F803E0
F803E0
F803E0
F803E0
F803E0
F803E0
F803E0
F803E0
F803E0
F803E0
FC07E0
FC07E0
FE0FE0
7F1FC0
7FFFC0
3FFF80
1FFF00
0FFE00
01F000
01F000
01F000
01F000
01F000
01F000
01F000
01F000
ENDCHAR
STARTCHAR 1EF4
ENCODING 7924
SWIDTH 517 0
DWIDTH 23 0
BBX 19 43 2 -12
BITMAP
F803E0
F803E0
F803E0
F803E0
F803E0
F803E0
F803E0
F803E0
F803E0
F803E0
F803E0
F803E0
F803E0
F803E0
F803E0
FC07E0
FC07E0
FE0FE0
7F1FC0
7FFFC0
3FFF80
1FFF00
0FFE00
01F000
01F000
01F000
01F000
01F000
01F000
01F000
01F000
000000
000000
000000
000000
000000
00E000
01F000
03F800
03F800
03F800
03F800
01F000
ENDCHAR
STARTCHAR 1EF5
ENCODING 7925
SWIDTH 517 0
DWIDTH 23 0
BBX 19 43 2 -12
BITMAP
F803E0
F803E0
F803E0
F803E0
F803E0
F803E0
F803E0
F803E0
F803E0
F803E0
F803E0
F803E0
F803E0
F803E0
F803E0
FC07E0
FC07E0
FE0FE0
7F1FC0
7FFFC0
3FFF80
1FFF00
0FFE00
01F000
01F000
01F000
01F000
01F000
01F000
01F000
01F000
000000
000000
000000
000000
000000
00E000
01F000
03F800
03F800
03F800
03F800
01F000
ENDCHAR
STARTCHAR 1EF6
ENCODING 7926
SWIDTH 517 0
DWIDTH 23 0
BBX 19 42 2 0
BITMAP
00E000
00F000
00F000
00E000
01E000
01E000
01E000
01E000
000000
000000
000000
F803E0
F803E0
F803E0
F803E0
F803E0
F803E0
F803E0
F803E0
F803E0
F803E0
F803E0
F803E0
F803E0
F803E0
F803E0
FC07E0
FC07E0
FE0FE0
7F1FC0
7FFFC0
3FFF80
1FFF00
0FFE00
01F000
01F000
01F000
01F000
01F000
01F000
01F000
01F000
ENDCHAR
STARTCHAR 1EF7
ENCODING 7927
SWIDTH 517 0
DWIDTH 23 0
BBX 19 42 2 0
BITMAP
00E000
00F000
00F000
00E000
01E000
01E000
01E000
01E000
000000
000000
000000
F803E0
F803E0
F803E0
F803E0
F803E0
F803E0
F803E0
F803E0
F803E0
F803E0
F803E0
F803E0
F803E0
F803E0
F803E0
FC07E0
FC07E0
FE0FE0
7F1FC0
7FFFC0
3FFF80
1FFF00
0FFE00
01F000
01F000
01F000
01F000
01F000
01F000
01F000
01F000
ENDCHAR
STARTCHAR 1EF8
ENCODING 7928
SWIDTH 517 0
DWIDTH 23 0
BBX 19 40 2 0
BITMAP
070000
0FFC00
0FFC00
0FFC00
003800
000000
000000
000000
000000
F803E0
F803E0
F803E0
F803E0
F803E0
F803E0
F803E0
F803E0
F803E0
F803E0
F803E0
F803E0
F803E0
F803E0
F803E0
FC07E0
FC07E0
FE0FE0
7F1FC0
7FFFC0
3FFF80
1FFF00
0FFE00
01F000
01F000
01F000
01F000
01F000
01F000
01F000
01F000
ENDCHAR
STARTCHAR 1EF9
ENCODING 7929
SWIDTH 517 0
DWIDTH 23 0
BBX 19 40 2 0
BITMAP
070000
0FFC00
0FFC00
0FFC00
003800
000000
000000
000000
000000
F803E0
F803E0
F803E0
F803E0
F803E0
F803E0
F803E0
F803E0
F803E0
F803E0
F803E0
F803E0
F803E0
F803E0
F803E0
FC07E0
FC07E0
FE0FE0
7F1FC0
7FFFC0
3FFF80
1FFF00
0FFE00
01F000
01F000
01F000
01F000
01F000
01F000
01F000
01F000
ENDCHAR
STARTCHAR 2013
ENCODING 8211
SWIDTH 562 0
DWIDTH 25 0
BBX 21 4 2 9
BITMAP
FFFFF8
FFFFF8
FFFFF8
FFFFF8
ENDCHAR
STARTCHAR 2014
ENCODING 8212
SWIDTH 810 0
DWIDTH 36 0
BBX 32 4 2 9
BITMAP
FFFFFFFF
FFFFFFFF
FFFFFFFF
FFFFFFFF
ENDCHAR
STARTCHAR 2018
ENCODING 8216
SWIDTH 247 0
DWIDTH 11 0
BBX 6 8 3 23
BITMAP
3C
3C
38
78
78
78
F8
F0
ENDCHAR
STARTCHAR 2019
ENCODING 8217
SWIDTH 247 0
DWIDTH 11 0
BBX 6 8 3 23
BITMAP
7C
78
78
F8
F0
F0
E0
E0
ENDCHAR
STARTCHAR 201A
ENCODING 8218
SWIDTH 247 0
DWIDTH 11 0
BBX 6 8 3 -5
BITMAP
7C
78
78
F0
F0
F0
E0
E0
ENDCHAR
STARTCHAR 201C
ENCODING 8220
SWIDTH 427 0
DWIDTH 19 0
BBX 14 8 3 23
BITMAP
1C3C
3C3C
3C38
3878
7878
7878
F8F8
F8F0
ENDCHAR
STARTCHAR 201D
ENCODING 8221
SWIDTH 427 0
DWIDTH 19 0
BBX 13 8 3 23
BITMAP
7C78
7878
78F8
F8F0
F0F0
F0F0
E0E0
E1E0
ENDCHAR
STARTCHAR 201E
ENCODING 8222
SWIDTH 427 0
DWIDTH 19 0
BBX 14 8 3 -5
BITMAP
7C3C
787C
7878
F078
F078
F070
E0F0
E0F0
ENDCHAR
STARTCHAR 2020
ENCODING 8224
SWIDTH 427 0
DWIDTH 19 0
BBX 15 22 2 10
BITMAP
03C0
03C0
03C0
03C0
FFFE
FFFE
FFFE
FFFE
03C0
03C0
03C0
03C0
03C0
03C0
03C0
03C0
03C0
03C0
03C0
03C0
03C0
03C0
ENDCHAR
STARTCHAR 2021
ENCODING 8225
SWIDTH 427 0
DWIDTH 19 0
BBX 15 22 2 10
BITMAP
03C0
03C0
03C0
03C0
FFFE
FFFE
FFFE
FFFE
03C0
03C0
03C0
03C0
03C0
03C0
FFFE
FFFE
FFFE
FFFE
03C0
03C0
03C0
03C0
ENDCHAR
STARTCHAR 2022
ENCODING 8226
SWIDTH 315 0
DWIDTH 14 0
BBX 10 9 2 8
BITMAP
3F00
7F80
7FC0
7FC0
FFC0
7FC0
7FC0
7F80
1F00
ENDCHAR
STARTCHAR 2026
ENCODING 8230
SWIDTH 697 0
DWIDTH 31 0
BBX 27 7 2 -1
BITMAP
3E1F07C0
7E1F87E0
FF3FCFE0
FF3FCFE0
7E1F87E0
7E1F87C0
18060180
ENDCHAR
STARTCHAR 2030
ENCODING 8240
SWIDTH 1327 0
DWIDTH 59 0
BBX 55 32 2 0
BITMAP
03E00000000000
0FF8001E000000
1FFC003C000000
3FFE007C000000
7E3F0078000000
7C1F00F0000000
780F01F0000000
F80F01E0000000
F80F03C0000000
780F0780000000
7C1F0F80000000
7FFE0F00000000
3FFE1E00000000
1FFC3E00000000
0FF83C00000000
00807800000000
0000F800000000
0000F03E000780
0001E0FF801FF0
0003C1FFC07FF8
0007C3FFE07FFC
000787E3F0FC7C
000F07C1F0F83E
001F0780F1F03E
001E0780F1F01E
003C0780F1F01E
007C0780F1F03E
007807C1F0F83E
00F007FFF0FFFC
01E003FFE07FFC
03E001FFC03FF8
03C000FF801FE0
ENDCHAR
STARTCHAR 2039
ENCODING 8249
SWIDTH 382 0
DWIDTH 17 0
BBX 13 19 2 4
BITMAP
01F0
03F0
03E0
07C0
0F80
1F80
1F00
3E00
7C00
FC00
7C00
3E00
1F00
0F80
0F80
07C0
03E0
01F0
01F8
ENDCHAR
STARTCHAR 203A
ENCODING 8250
SWIDTH 382 0
DWIDTH 17 0
BBX 12 19 3 4
BITMAP
F800
7C00
3E00
3F00
1F00
0F80
07C0
07E0
03E0
01F0
03E0
07C0
07C0
0F80
1F00
3E00
3E00
7C00
F800
ENDCHAR
STARTCHAR 2044
ENCODING 8260
SWIDTH 675 0
DWIDTH 30 0
BBX 25 31 3 0
BITMAP
00000780
00000F00
00001F00
00003E00
00003C00
00007800
0000F800
0000F000
0001E000
0003E000
0003C000
00078000
000F8000
001F0000
001E0000
003C0000
007C0000
00780000
00F00000
01F00000
01E00000
03C00000
07C00000
0F800000
0F000000
1E000000
3E000000
3C000000
78000000
F8000000
F0000000
ENDCHAR
STARTCHAR 20AC
ENCODING 8364
SWIDTH 630 0
DWIDTH 28 0
BBX 24 33 2 -1
BITMAP
00003C
0003FF
000FFF
001FFF
003FFF
00FFFF
00FF00
01FC00
03F800
03F000
07E000
07E000
FFFFF8
FFFFF8
FFFFF8
0FC000
0FC000
0FC000
FFFFF8
FFFFF8
FFFFF8
07E000
07F000
03F000
03F800
01FC00
00FF00
007FFF
003FFF
001FFF
000FFF
0001FF
00000A
ENDCHAR
STARTCHAR 2122
ENCODING 8482
SWIDTH 832 0
DWIDTH 37 0
BBX 33 17 2 15
BITMAP
FFF0040000
FFFC060780
FFFE078780
FFFF87C780
0F0FE7F780
0F07F7FF80
0F07FFFF80
0F07FFBF80
0F07BF9F80
0F079F8780
0F07878780
0F07878780
0F07878780
0F07878780
0F07878780
0F07878780
0F07878780
ENDCHAR
STARTCHAR 2190
ENCODING 8592
SWIDTH 810 0
DWIDTH 36 0
BBX 31 22 3 5
BITMAP
00300000
00780000
00F80000
01F80000
03F00000
07E00000
0FC00000
1F800000
3F000000
7FFFFFFE
FFFFFFFE
FFFFFFFE
7FFFFFFE
3F000000
1F800000
0FC00000
07E00000
03F00000
01F80000
00F80000
00700000
00200000
ENDCHAR
STARTCHAR 2191
ENCODING 8593
SWIDTH 607 0
DWIDTH 27 0
BBX 22 32 3 0
BITMAP
002000
007000
00F800
01FC00
03FE00
07FF00
0FFF80
1FFFC0
3FFFE0
7EFBF0
FCF9F8
F8F8FC
70F878
20F830
00F800
00F800
00F800
00F800
00F800
00F800
00F800
00F800
00F800
00F800
00F800
00F800
00F800
00F800
00F800
00F800
00F800
00F800
ENDCHAR
STARTCHAR 2192
ENCODING 8594
SWIDTH 810 0
DWIDTH 36 0
BBX 32 22 2 5
BITMAP
00000C00
00001E00
00003F00
00001F80
00000FC0
000007E0
000003F0
000001F8
000000FC
FFFFFFFE
FFFFFFFF
FFFFFFFF
FFFFFFFE
000000FC
000001F8
000003F0
000007E0
00000FC0
00001F80
00003F00
00001E00
00000C00
ENDCHAR
STARTCHAR 2193
ENCODING 8595
SWIDTH 607 0
DWIDTH 27 0
BBX 22 32 3 -1
BITMAP
00F800
00F800
00F800
00F800
00F800
00F800
00F800
00F800
00F800
00F800
00F800
00F800
00F800
00F800
00F800
00F800
00F800
00F800
20F830
70F878
F8F8FC
FCF9F8
7EFBF0
3FFFE0
1FFFC0
0FFF80
07FF00
03FE00
01FC00
00F800
007000
002000
ENDCHAR
STARTCHAR 2194
ENCODING 8596
SWIDTH 922 0
DWIDTH 41 0
BBX 35 22 3 5
BITMAP
0030008000
007801C000
00F803E000
01F801F000
03F000F800
07E0007C00
0FC0003E00
1F80001F00
3F00000F80
7FFFFFFFC0
FFFFFFFFE0
FFFFFFFFE0
7FFFFFFFC0
3F00000F80
1F80001F00
0FC0003E00
07E0007C00
03F000F800
01F801F000
00F803E000
007001C000
0020008000
ENDCHAR
STARTCHAR 2195
ENCODING 8597
SWIDTH 652 0
DWIDTH 29 0
BBX 24 33 3 -1
BITMAP
001800
003C00
007E00
01FF00
03FFC0
07FFE0
0FFFF0
3FBDFC
7F3CFE
FC3C7F
F83C1F
703C0E
603C04
003C00
003C00
003C00
003C00
003C00
003C00
003C00
603C06
703C0E
F83C1F
FE3C7F
7F3CFE
1FBDF8
0FFFF0
07FFE0
03FFC0
00FF00
007E00
003C00
001000
ENDCHAR
STARTCHAR 2196
ENCODING 8598
SWIDTH 652 0
DWIDTH 29 0
BBX 25 24 2 3
BITMAP
FFFF0000
FFFF0000
FFFF0000
FFFF0000
FF800000
FFC00000
FFE00000
FFF00000
FBF80000
F9FC0000
F8FE0000
F87F0000
F83F8000
F81FC000
F80FE000
F807F000
0003F800
0001FC00
0000FE00
00007F00
00003F80
00001F00
00000E00
00000400
ENDCHAR
STARTCHAR 2197
ENCODING 8599
SWIDTH 652 0
DWIDTH 29 0
BBX 24 24 3 3
BITMAP
00FFFF
00FFFF
00FFFF
00FFFF
0000FF
0001FF
0003FF
0007EF
000FCF
001F8F
003F0F
007E0F
00FC0F
01F80F
03F00F
07E00F
0FC000
1F8000
3F0000
7E0000
FC0000
F80000
700000
200000
ENDCHAR
STARTCHAR 2198
ENCODING 8600
SWIDTH 652 0
DWIDTH 29 0
BBX 24 24 3 3
BITMAP
300000
780000
FC0000
FE0000
7F0000
3F8000
1FC000
0FE000
07F00F
03F80F
01FC0F
00FE0F
007F0F
003F8F
001FCF
000FCF
0007EF
0003FF
0001FF
0000FF
00FFFF
00FFFF
00FFFF
00FFFF
ENDCHAR
STARTCHAR 2199
ENCODING 8601
SWIDTH 652 0
DWIDTH 29 0
BBX 24 24 2 3
BITMAP
000004
00000E
00001F
00003F
00007E
0000FC
0001F8
0003F0
F807E0
F80FC0
F81F80
F83F00
F87E00
F8FC00
F9F800
FBF000
FFE000
FFC000
FF8000
FF0000
FFFF00
FFFF00
FFFF00
FFFF00
ENDCHAR
STARTCHAR 2202
ENCODING 8706
SWIDTH 585 0
DWIDTH 26 0
BBX 22 34 2 -1
BITMAP
01C000
01E000
03F800
03FC00
07FF00
01FF80
007FC0
003FC0
000FE0
0007F0
0003F0
0003F8
0001F8
01F8F8
07FEFC
0FFFFC
1FFFFC
3FFFFC
7FC7FC
7F01FC
7E00FC
7E00FC
FC00FC
FC00FC
FC00FC
7E01F8
7E03F8
7F07F0
3FFFF0
3FFFE0
1FFFC0
0FFF80
03FE00
007800
ENDCHAR
STARTCHAR 2205
ENCODING 8709
SWIDTH 720 0
DWIDTH 32 0
BBX 27 28 3 2
BITMAP
00000040
00FFE0E0
03FFF9E0
07F1FFC0
0F803F80
1E000F00
3C001F80
78003F80
700079C0
F000F1C0
E001E0E0
E003C0E0
E00780E0
E00F00E0
E01E00E0
E03C00E0
E07800E0
E0F001E0
F1E001C0
73C001C0
7F800380
3F000780
1E000F00
3F803E00
7FF1FC00
F3FFF800
E0FFE000
40000000
ENDCHAR
STARTCHAR 220F
ENCODING 8719
SWIDTH 630 0
DWIDTH 28 0
BBX 24 37 2 -5
BITMAP
FFFFFF
FFFFFF
FFFFFF
FFFFFF
0F00F8
0F00F8
0F00F8
0F00F8
0F00F8
0F00F8
0F00F8
0F00F8
0F00F8
0F00F8
0F00F8
0F00F8
0F00F8
0F00F8
0F00F8
0F00F8
0F00F8
0F00F8
0F00F8
0F00F8
0F00F8
0F00F8
0F00F8
0F00F8
0F00F8
0F00F8
0F00F8
0F00F8
0F00F8
0F00F8
0F00F8
0F00F8
0F00F8
ENDCHAR
STARTCHAR 2211
ENCODING 8721
SWIDTH 495 0
DWIDTH 22 0
BBX 18 37 2 -5
BITMAP
FFFFC0
FFFFC0
FFFFC0
FFFFC0
7C0000
7E0000
3E0000
3F0000
1F0000
1F8000
0FC000
07C000
07E000
03E000
03F000
01F000
01F800
00F800
00FC00
00F800
01F800
01F000
03E000
07E000
07C000
0FC000
0F8000
1F8000
1F0000
3E0000
7E0000
7C0000
FFFFC0
FFFFC0
FFFFC0
FFFFC0
FFFFC0
ENDCHAR
STARTCHAR 2212
ENCODING 8722
SWIDTH 562 0
DWIDTH 25 0
BBX 21 5 2 12
BITMAP
FFFFF8
FFFFF8
FFFFF8
FFFFF8
FFFFF8
ENDCHAR
STARTCHAR 221A
ENCODING 8730
SWIDTH 697 0
DWIDTH 31 0
BBX 26 37 3 -5
BITMAP
0000FFC0
0000FFC0
0000FFC0
0001FFC0
0001FFC0
0001F000
0001F000
0003E000
0003E000
0003E000
0007E000
0007C000
0007C000
0007C000
000F8000
000F8000
000F8000
000F0000
F81F0000
F81F0000
F81F0000
7C3E0000
7C3E0000
7C3E0000
3E3C0000
3E7C0000
3E7C0000
1E7C0000
1F780000
1FF80000
0FF80000
0FF00000
0FF00000
07F00000
07F00000
07E00000
03E00000
ENDCHAR
STARTCHAR 221E
ENCODING 8734
SWIDTH 810 0
DWIDTH 36 0
BBX 33 15 2 8
BITMAP
0FF007F800
1FFC0FFC00
3FFE3FFE00
7C3F7E1F00
780FF80F00
7007F00700
F003E00780
F003E00780
7007F00700
780FF80F00
7C1F7C1F00
3FFE3FFE00
3FFC1FFC00
0FF80FF800
03C001C000
ENDCHAR
STARTCHAR 222B
ENCODING 8747
SWIDTH 517 0
DWIDTH 23 0
BBX 19 37 2 -5
BITMAP
0003E0
000FE0
001FE0
003FE0
003F00
003E00
007C00
007C00
007C00
007C00
007800
007800
00F800
00F800
00F800
00F800
00F000
01F000
01F000
01F000
01F000
01E000
01E000
03E000
03E000
03E000
03E000
03C000
03C000
07C000
07C000
07C000
0F8000
7F8000
FF0000
FE0000
F80000
ENDCHAR
STARTCHAR 2248
ENCODING 8776
SWIDTH 540 0
DWIDTH 24 0
BBX 20 15 2 7
BITMAP
7F8000
FFFEF0
FFFFF0
FFFFF0
C0FFF0
0007C0
000000
000000
000000
1E0000
FFF010
FFFFF0
FFFFF0
FFFFF0
001FE0
ENDCHAR
STARTCHAR 2260
ENCODING 8800
SWIDTH 562 0
DWIDTH 25 0
BBX 21 23 2 3
BITMAP
000F00
000F00
001F00
001E00
003E00
FFFFF8
FFFFF8
FFFFF8
FFFFF8
007800
00F800
00F000
00F000
01F000
FFFFF8
FFFFF8
FFFFF8
FFFFF8
07C000
078000
078000
0F8000
0F0000
ENDCHAR
STARTCHAR 2264
ENCODING 8804
SWIDTH 562 0
DWIDTH 25 0
BBX 21 20 2 4
BITMAP
000008
0000F8
001FF8
01FFF8
3FFFE0
FFFE00
FFC000
FF0000
FFF800
FFFF80
07FFF8
007FF8
0003F8
000038
000000
000000
FFFFF8
FFFFF8
FFFFF8
FFFFF8
ENDCHAR
STARTCHAR 2265
ENCODING 8805
SWIDTH 562 0
DWIDTH 25 0
BBX 21 20 2 4
BITMAP
800000
FC0000
FFC000
FFFE00
3FFFE0
01FFF8
000FF8
0003F8
007FF8
0FFFF8
FFFF80
FFF000
FF0000
E00000
000000
000000
FFFFF8
FFFFF8
FFFFF8
FFFFF8
ENDCHAR
STARTCHAR 25CA
ENCODING 9674
SWIDTH 517 0
DWIDTH 23 0
BBX 17 26 3 3
BITMAP
03E000
07F000
07F000
0FF800
0F7800
1F7C00
1E3C00
3E3E00
3C1E00
7C1F00
780F00
F80F80
F00780
F00780
F80F80
780F00
7C1F00
3C1E00
3E3E00
1E3C00
1F7C00
0F7800
0FF800
07F000
07F000
03E000
ENDCHAR
ENDFONT
